<svg width="416" height="128" viewBox="0 0 416 128" fill="none" xmlns="http://www.w3.org/2000/svg">
<path d="M398.298 0H17.7021C7.92551 0 0 7.90449 0 17.6552V110.345C0 120.096 7.92551 128 17.7021 128H398.298C408.074 128 416 120.096 416 110.345V17.6552C416 7.90449 408.074 0 398.298 0Z" fill="#0E0333"/>
<path d="M109.899 83.2398C109.899 80.5385 110.523 78.1154 111.771 75.9702C113.046 73.8251 114.758 72.1567 116.909 70.965C119.087 69.7468 121.463 69.1377 124.039 69.1377C126.986 69.1377 129.602 69.866 131.885 71.3225C134.195 72.7526 135.868 74.7918 136.904 77.44H131.447C130.73 75.9835 129.734 74.8977 128.46 74.1827C127.185 73.4676 125.712 73.1101 124.039 73.1101C122.207 73.1101 120.574 73.5206 119.14 74.3416C117.706 75.1625 116.577 76.341 115.754 77.877C114.958 79.413 114.559 81.2006 114.559 83.2398C114.559 85.2789 114.958 87.0665 115.754 88.6025C116.577 90.1385 117.706 91.3302 119.14 92.1777C120.574 92.9987 122.207 93.4091 124.039 93.4091C125.712 93.4091 127.185 93.0516 128.46 92.3366C129.734 91.6216 130.73 90.5358 131.447 89.0792H136.904C135.868 91.7275 134.195 93.7667 131.885 95.1967C129.602 96.6268 126.986 97.3418 124.039 97.3418C121.437 97.3418 119.06 96.746 116.909 95.5542C114.758 94.336 113.046 92.6544 111.771 90.5093C110.523 88.3642 109.899 85.941 109.899 83.2398ZM159.027 97.3816C156.451 97.3816 154.075 96.7857 151.897 95.594C149.746 94.3758 148.034 92.6941 146.759 90.549C145.511 88.3774 144.887 85.941 144.887 83.2398C144.887 80.5385 145.511 78.1154 146.759 75.9702C148.034 73.8251 149.746 72.1567 151.897 70.965C154.075 69.7468 156.451 69.1377 159.027 69.1377C161.629 69.1377 164.006 69.7468 166.156 70.965C168.334 72.1567 170.046 73.8251 171.294 75.9702C172.542 78.1154 173.166 80.5385 173.166 83.2398C173.166 85.941 172.542 88.3774 171.294 90.549C170.046 92.6941 168.334 94.3758 166.156 95.594C164.006 96.7857 161.629 97.3816 159.027 97.3816ZM159.027 93.4489C160.859 93.4489 162.492 93.0384 163.926 92.2174C165.36 91.37 166.475 90.1782 167.272 88.6422C168.095 87.0798 168.506 85.2789 168.506 83.2398C168.506 81.2006 168.095 79.413 167.272 77.877C166.475 76.341 165.36 75.1625 163.926 74.3416C162.492 73.5206 160.859 73.1101 159.027 73.1101C157.195 73.1101 155.562 73.5206 154.128 74.3416C152.694 75.1625 151.565 76.341 150.742 77.877C149.946 79.413 149.547 81.2006 149.547 83.2398C149.547 85.2789 149.946 87.0798 150.742 88.6422C151.565 90.1782 152.694 91.37 154.128 92.2174C155.562 93.0384 157.195 93.4489 159.027 93.4489ZM210.972 69.4952V97.1035H206.431V78.1948L197.987 97.1035H194.841L186.357 78.1948V97.1035H181.817V69.4952H186.716L196.434 91.1449L206.113 69.4952H210.972ZM250.277 69.4952V97.1035H245.737V78.1948L237.293 97.1035H234.146L225.662 78.1948V97.1035H221.122V69.4952H226.021L235.739 91.1449L245.418 69.4952H250.277ZM264.928 69.4952V87.093C264.928 89.1851 265.472 90.7609 266.561 91.8202C267.676 92.8795 269.216 93.4091 271.181 93.4091C273.173 93.4091 274.713 92.8795 275.801 91.8202C276.917 90.7609 277.474 89.1851 277.474 87.093V69.4952H282.015V87.0136C282.015 89.2646 281.524 91.1714 280.541 92.7338C279.559 94.2963 278.244 95.4616 276.598 96.2296C274.952 96.9976 273.133 97.3816 271.141 97.3816C269.15 97.3816 267.331 96.9976 265.685 96.2296C264.065 95.4616 262.777 94.2963 261.821 92.7338C260.865 91.1714 260.387 89.2646 260.387 87.0136V69.4952H264.928ZM314.852 97.1035H310.312L296.65 76.4867V97.1035H292.109V69.4555H296.65L310.312 90.0326V69.4555H314.852V97.1035ZM329.538 69.4952V97.1035H324.998V69.4952H329.538ZM357.565 69.4952V73.1896H350.197V97.1035H345.656V73.1896H338.248V69.4952H357.565ZM386.858 69.4952L377.697 87.093V97.1035H373.156V87.093L363.956 69.4952H369.014L375.427 83.0411L381.839 69.4952H386.858Z" fill="white"/>
<path d="M119.737 43.4582C120.41 43.5641 121.021 43.8378 121.569 44.2792C122.136 44.7205 122.578 45.2679 122.897 45.9211C123.233 46.5743 123.402 47.2717 123.402 48.0132C123.402 48.949 123.163 49.7964 122.685 50.5556C122.207 51.2971 121.507 51.8885 120.587 52.3299C119.684 52.7536 118.613 52.9655 117.374 52.9655H110.47V34.507H117.108C118.365 34.507 119.436 34.7189 120.321 35.1426C121.206 35.5487 121.87 36.1048 122.313 36.811C122.755 37.5172 122.977 38.3117 122.977 39.1945C122.977 40.2891 122.676 41.1983 122.074 41.9222C121.49 42.6284 120.711 43.1404 119.737 43.4582ZM112.886 42.4783H116.949C118.082 42.4783 118.958 42.2135 119.578 41.6839C120.197 41.1542 120.507 40.4215 120.507 39.4858C120.507 38.5501 120.197 37.8174 119.578 37.2877C118.958 36.7581 118.064 36.4932 116.896 36.4932H112.886V42.4783ZM117.162 50.9793C118.365 50.9793 119.304 50.6968 119.976 50.1318C120.649 49.5669 120.985 48.7812 120.985 47.7749C120.985 46.7509 120.631 45.9476 119.923 45.365C119.215 44.7647 118.268 44.4645 117.082 44.4645H112.886V50.9793H117.162ZM129.251 34.507V46.1859C129.251 47.8278 129.649 49.0461 130.446 49.8405C131.26 50.635 132.384 51.0323 133.818 51.0323C135.234 51.0323 136.34 50.635 137.137 49.8405C137.951 49.0461 138.359 47.8278 138.359 46.1859V34.507H140.775V46.1594C140.775 47.6954 140.465 48.9931 139.846 50.0524C139.226 51.0941 138.385 51.8709 137.323 52.3829C136.279 52.8949 135.101 53.1509 133.791 53.1509C132.481 53.1509 131.295 52.8949 130.233 52.3829C129.189 51.8709 128.357 51.0941 127.737 50.0524C127.135 48.9931 126.834 47.6954 126.834 46.1594V34.507H129.251ZM147.355 34.507V52.9655H144.938V34.507H147.355ZM154.819 51.0058H161.298V52.9655H152.403V34.507H154.819V51.0058ZM176.184 34.507V36.4667H171.139V52.9655H168.723V36.4667H163.651V34.507H176.184ZM195.771 43.4582C196.443 43.5641 197.054 43.8378 197.603 44.2792C198.169 44.7205 198.612 45.2679 198.931 45.9211C199.267 46.5743 199.435 47.2717 199.435 48.0132C199.435 48.949 199.196 49.7964 198.718 50.5556C198.24 51.2971 197.541 51.8885 196.62 52.3299C195.718 52.7536 194.647 52.9655 193.407 52.9655H186.504V34.507H193.142C194.399 34.507 195.47 34.7189 196.355 35.1426C197.24 35.5487 197.904 36.1048 198.346 36.811C198.789 37.5172 199.01 38.3117 199.01 39.1945C199.01 40.2891 198.709 41.1983 198.107 41.9222C197.523 42.6284 196.744 43.1404 195.771 43.4582ZM188.92 42.4783H192.983C194.116 42.4783 194.992 42.2135 195.611 41.6839C196.231 41.1542 196.541 40.4215 196.541 39.4858C196.541 38.5501 196.231 37.8174 195.611 37.2877C194.992 36.7581 194.098 36.4932 192.93 36.4932H188.92V42.4783ZM193.195 50.9793C194.399 50.9793 195.337 50.6968 196.01 50.1318C196.682 49.5669 197.019 48.7812 197.019 47.7749C197.019 46.7509 196.665 45.9476 195.957 45.365C195.249 44.7647 194.301 44.4645 193.115 44.4645H188.92V50.9793H193.195ZM215.613 34.507L209.586 46.0005V52.9655H207.169V46.0005L201.115 34.507H203.797L208.364 43.8554L212.931 34.507H215.613ZM235.837 34.507V36.4667H230.792V52.9655H228.375V36.4667H223.304V34.507H235.837ZM252.937 34.507V52.9655H250.521V44.597H241.094V52.9655H238.678V34.507H241.094V42.6107H250.521V34.507H252.937ZM259.345 36.4667V42.6372H266.09V44.6234H259.345V50.9793H266.886V52.9655H256.929V34.4805H266.886V36.4667H259.345ZM290.846 39.8565C290.333 38.7796 289.589 37.9498 288.616 37.3672C287.642 36.7669 286.509 36.4667 285.217 36.4667C283.924 36.4667 282.756 36.7669 281.712 37.3672C280.685 37.9498 279.871 38.7972 279.269 39.9095C278.685 41.0041 278.393 42.2753 278.393 43.723C278.393 45.1707 278.685 46.4419 279.269 47.5365C279.871 48.6312 280.685 49.4786 281.712 50.0789C282.756 50.6615 283.924 50.9528 285.217 50.9528C287.022 50.9528 288.509 50.4143 289.678 49.3374C290.846 48.2604 291.528 46.8038 291.722 44.9677H284.34V43.008H294.298V44.8618C294.156 46.3801 293.678 47.7749 292.864 49.0461C292.05 50.2996 290.979 51.2971 289.651 52.0386C288.323 52.7625 286.845 53.1244 285.217 53.1244C283.5 53.1244 281.933 52.7272 280.517 51.9327C279.101 51.1205 277.977 49.9994 277.145 48.5694C276.33 47.1393 275.923 45.5239 275.923 43.723C275.923 41.9222 276.33 40.3067 277.145 38.8767C277.977 37.429 279.101 36.3078 280.517 35.5134C281.933 34.7012 283.5 34.2952 285.217 34.2952C287.182 34.2952 288.916 34.7807 290.421 35.7517C291.944 36.7227 293.05 38.091 293.74 39.8565H290.846ZM301.104 34.507V52.9655H298.688V34.507H301.104ZM317.809 34.507V36.4667H312.763V52.9655H310.347V36.4667H305.275V34.507H317.809ZM320.012 43.723C320.012 41.9222 320.42 40.3067 321.234 38.8767C322.048 37.429 323.155 36.299 324.553 35.4869C325.969 34.6747 327.536 34.2687 329.253 34.2687C331.271 34.2687 333.032 34.7542 334.537 35.7252C336.042 36.6963 337.139 38.0734 337.83 39.8565H334.935C334.422 38.7443 333.678 37.888 332.705 37.2877C331.749 36.6874 330.598 36.3873 329.253 36.3873C327.961 36.3873 326.801 36.6874 325.775 37.2877C324.748 37.888 323.942 38.7443 323.358 39.8565C322.774 40.9512 322.482 42.24 322.482 43.723C322.482 45.1884 322.774 46.4772 323.358 47.5895C323.942 48.6841 324.748 49.5316 325.775 50.1318C326.801 50.7321 327.961 51.0323 329.253 51.0323C330.598 51.0323 331.749 50.741 332.705 50.1583C333.678 49.5581 334.422 48.7018 334.935 47.5895H337.83C337.139 49.355 336.042 50.7233 334.537 51.6943C333.032 52.6477 331.271 53.1244 329.253 53.1244C327.536 53.1244 325.969 52.7272 324.553 51.9327C323.155 51.1205 322.048 49.9994 321.234 48.5694C320.42 47.1393 320.012 45.5239 320.012 43.723ZM349.951 53.1509C348.234 53.1509 346.667 52.7536 345.251 51.9592C343.835 51.147 342.711 50.0259 341.879 48.5958C341.065 47.1481 340.658 45.5239 340.658 43.723C340.658 41.9222 341.065 40.3067 341.879 38.8767C342.711 37.429 343.835 36.3078 345.251 35.5134C346.667 34.7012 348.234 34.2952 349.951 34.2952C351.686 34.2952 353.261 34.7012 354.678 35.5134C356.094 36.3078 357.209 37.4201 358.023 38.8502C358.838 40.2803 359.245 41.9045 359.245 43.723C359.245 45.5415 358.838 47.1658 358.023 48.5958C357.209 50.0259 356.094 51.147 354.678 51.9592C353.261 52.7536 351.686 53.1509 349.951 53.1509ZM349.951 51.0587C351.243 51.0587 352.403 50.7586 353.43 50.1583C354.474 49.5581 355.288 48.7018 355.873 47.5895C356.474 46.4772 356.775 45.1884 356.775 43.723C356.775 42.24 356.474 40.9512 355.873 39.8565C355.288 38.7443 354.483 37.888 353.456 37.2877C352.429 36.6874 351.261 36.3873 349.951 36.3873C348.641 36.3873 347.473 36.6874 346.446 37.2877C345.419 37.888 344.605 38.7443 344.003 39.8565C343.419 40.9512 343.127 42.24 343.127 43.723C343.127 45.1884 343.419 46.4772 344.003 47.5895C344.605 48.7018 345.419 49.5581 346.446 50.1583C347.491 50.7586 348.659 51.0587 349.951 51.0587ZM365.779 34.507V52.9655H363.363V34.507H365.779ZM385.378 52.9655H382.961L373.243 38.2676V52.9655H370.826V34.4805H373.243L382.961 49.152V34.4805H385.378V52.9655Z" fill="white"/>
<path fill-rule="evenodd" clip-rule="evenodd" d="M80.5779 79.6205C82.108 80.8381 83.418 81.8866 84.2252 82.5446C84.504 82.7724 84.7282 83.0582 84.8817 83.3813C85.0353 83.7046 85.1143 84.0575 85.113 84.4146L85.0882 95.4078C85.0161 95.8308 84.7941 96.215 84.462 96.492C84.1301 96.7692 83.7092 96.9212 83.2742 96.9215H59.4217C41.5538 96.9215 26.6639 82.5025 26.8048 64.8811C26.8967 53.5405 33.0116 43.6168 42.1508 38.0646V27.3032C42.1508 26.8887 42.2371 26.4787 42.4044 26.0984C42.5717 25.7182 42.8162 25.3759 43.1231 25.0925C43.43 24.8094 43.7925 24.5913 44.1883 24.4521C44.5842 24.3128 45.0046 24.255 45.4239 24.2826C47.0552 24.387 48.2886 25.7945 48.2886 27.4064V35.1712C50.7671 34.3065 53.3439 33.746 55.9611 33.5021V27.3032C55.9611 26.8887 56.0474 26.4784 56.2147 26.0984C56.382 25.7182 56.6267 25.3757 56.9336 25.0925C57.2405 24.8094 57.6032 24.5913 57.9989 24.4521C58.3947 24.3128 58.8154 24.2552 59.2347 24.2826C60.8659 24.387 62.0993 25.7945 62.0993 27.4064V33.4992C69.8664 34.2235 76.8324 37.6654 82.0032 42.8518C82.9715 43.8227 83.876 44.8535 84.7111 45.9382C85.3524 46.7709 85.2081 47.4133 84.3257 47.9933L80.7516 50.8552C83.5957 55.0906 85.1136 60.0586 85.1154 65.1397C85.126 70.3107 83.5424 75.3605 80.5779 79.6205ZM75.8587 75.8787C77.9485 72.6776 79.0608 68.9497 79.0608 65.1397C79.0608 61.243 77.8642 57.5434 75.8888 54.4835L68.4449 60.0367C69.3017 61.5749 69.7575 63.299 69.7714 65.0539C69.7854 66.809 69.357 68.5399 68.5248 70.0911L68.7635 70.2794C69.8082 71.1021 72.7529 73.4222 75.8587 75.8787ZM78.9776 90.8675L79.0102 86.4239L63.8704 74.5947C62.3699 75.3444 60.711 75.7346 59.0289 75.7333C53.0965 75.7333 48.2872 70.9904 48.2872 65.1393C48.2872 59.2879 53.0965 54.5451 59.0289 54.5451C60.6852 54.5433 62.3193 54.9209 63.8023 55.6485L76.3316 45.928C71.6737 41.6557 65.8918 39.4104 59.0289 39.4104C55.3241 39.4078 51.6617 40.1864 48.2872 41.6941V51.5181C48.2872 51.9326 48.2007 52.3426 48.0337 52.7229C47.8664 53.1031 47.6216 53.4454 47.3147 53.7285C47.008 54.0117 46.6454 54.2297 46.2497 54.369C45.8539 54.5085 45.4334 54.5661 45.0141 54.5387C43.3829 54.4343 42.1495 53.0267 42.1495 51.4144V45.5301C36.5494 50.2233 32.9811 57.2035 32.9426 65.01C32.8716 79.2308 44.9314 90.8675 59.3513 90.8675H78.9776ZM62.8568 67.6618C63.3626 66.9152 63.6328 66.0373 63.6328 65.1393C63.6328 63.935 63.1475 62.7801 62.2843 61.9285C61.4209 61.0771 60.2499 60.5986 59.0289 60.5986C58.1181 60.5986 57.2281 60.865 56.4709 61.3637C55.7139 61.8627 55.1238 62.572 54.7753 63.4016C54.427 64.2314 54.3356 65.1444 54.5133 66.0251C54.691 66.9059 55.1296 67.715 55.7733 68.3499C56.4172 68.985 57.2377 69.4174 58.1305 69.5926C59.0236 69.7678 59.9494 69.678 60.7907 69.3342C61.6318 68.9906 62.3509 68.4086 62.8568 67.6618Z" fill="white"/>
</svg>
