<svg width="68" height="61" viewBox="0 0 68 61" fill="none" xmlns="http://www.w3.org/2000/svg">
    <path
        d="M20.416 39.3801L26.841 50.5837C26.9394 50.758 26.9919 50.9544 26.9935 51.1546C26.9952 51.3547 26.9459 51.552 26.8504 51.7279C26.7548 51.9037 26.6161 52.0524 26.4473 52.1599C26.2785 52.2674 26.0851 52.3303 25.8853 52.3425H12.9229C12.7164 52.3417 12.5138 52.2868 12.3352 52.1832C12.1567 52.0796 12.0084 51.931 11.9052 51.7522C11.802 51.5734 11.7475 51.3707 11.7471 51.1642C11.7467 50.9578 11.8004 50.7549 11.903 50.5757L18.3279 39.3721C18.429 39.1825 18.5798 39.024 18.7642 38.9138C18.9486 38.8036 19.1596 38.7458 19.3744 38.7466C19.5892 38.7475 19.7998 38.8069 19.9833 38.9185C20.1669 39.0302 20.3165 39.1897 20.416 39.3801ZM47.5938 39.3801L41.1447 50.5837C41.0418 50.7635 40.988 50.9672 40.9888 51.1743C40.9896 51.3814 41.0448 51.5847 41.1489 51.7637C41.2531 51.9427 41.4025 52.0912 41.5822 52.1942C41.7619 52.2972 41.9656 52.3512 42.1727 52.3506H55.103C55.3104 52.3522 55.5145 52.2988 55.6945 52.1958C55.8745 52.0928 56.024 51.9439 56.1277 51.7643C56.2314 51.5847 56.2856 51.3808 56.2847 51.1734C56.2839 50.966 56.2281 50.7625 56.123 50.5837L49.698 39.3801C49.604 39.177 49.4538 39.0051 49.2653 38.8846C49.0767 38.7641 48.8576 38.7 48.6338 38.7C48.41 38.7 48.1909 38.7641 48.0024 38.8846C47.8138 39.0051 47.6637 39.177 47.5697 39.3801H47.5938Z"
        fill="#FFCC00" />
    <path
        d="M32.9779 11.616L26.5127 22.8116C26.4082 22.991 26.3528 23.1947 26.3522 23.4024C26.3516 23.61 26.4057 23.8141 26.5092 23.9941C26.6126 24.1741 26.7617 24.3237 26.9414 24.4277C27.1211 24.5317 27.325 24.5864 27.5326 24.5865H40.471C40.6786 24.5864 40.8825 24.5317 41.0622 24.4277C41.2419 24.3237 41.391 24.1741 41.4945 23.9941C41.5979 23.8141 41.6521 23.61 41.6514 23.4024C41.6508 23.1947 41.5955 22.991 41.4909 22.8116L35.066 11.616C34.9657 11.426 34.8154 11.267 34.6315 11.1561C34.4475 11.0452 34.2367 10.9865 34.0219 10.9865C33.8071 10.9865 33.5963 11.0452 33.4124 11.1561C33.2284 11.267 33.0781 11.426 32.9779 11.616Z"
        fill="#FFCC00" />
    <path
        d="M60.4199 61.0001H7.57433C6.30514 61.0009 5.05811 60.6675 3.95865 60.0334C2.85919 59.3993 1.94604 58.487 1.3111 57.388C0.676147 56.2891 0.341756 55.0423 0.341553 53.7731C0.34135 52.5039 0.675372 51.257 1.30997 50.1579L27.7408 4.37983C28.3751 3.28073 29.2876 2.36799 30.3865 1.73339C31.4854 1.0988 32.7321 0.764709 34.0011 0.764709C35.2701 0.764709 36.5168 1.0988 37.6157 1.73339C38.7146 2.36799 39.6272 3.28073 40.2615 4.37983L66.6923 50.1579C67.3265 51.2564 67.6605 52.5026 67.6607 53.7711C67.6608 55.0396 67.3271 56.2858 66.6931 57.3845C66.0591 58.4832 65.1471 59.3957 64.0488 60.0304C62.9505 60.665 61.7045 60.9995 60.436 61.0001H60.4199ZM31.9009 6.7892L5.47015 52.5673C5.25861 52.9336 5.14729 53.3493 5.14736 53.7723C5.14743 54.1954 5.25889 54.611 5.47054 54.9773C5.68219 55.3436 5.98654 55.6477 6.35302 55.8591C6.71951 56.0704 7.13519 56.1816 7.55825 56.1813H60.4199C60.8423 56.1802 61.257 56.068 61.6223 55.8561C61.9877 55.6442 62.2909 55.3399 62.5016 54.9738C62.7123 54.6078 62.8231 54.1927 62.8228 53.7703C62.8225 53.3479 62.7112 52.933 62.5 52.5673L36.0772 6.7892C35.8659 6.42221 35.5617 6.11737 35.1951 5.90541C34.8285 5.69344 34.4126 5.58183 33.9891 5.58183C33.5656 5.58183 33.1496 5.69344 32.783 5.90541C32.4164 6.11737 32.1122 6.42221 31.9009 6.7892Z"
        fill="#FFCC00" />
</svg>