<svg width="179" height="160" viewBox="0 0 179 160" fill="none" xmlns="http://www.w3.org/2000/svg">
    <path
        d="M53.3235 102.572L70.3898 132.331C70.6512 132.794 70.7906 133.316 70.7949 133.848C70.7992 134.379 70.6684 134.903 70.4146 135.37C70.1607 135.837 69.7923 136.232 69.3439 136.518C68.8955 136.804 68.3818 136.971 67.8512 137.003H33.4198C32.8714 137.001 32.3332 136.855 31.8589 136.58C31.3845 136.305 30.9907 135.91 30.7166 135.435C30.4424 134.96 30.2976 134.422 30.2965 133.873C30.2955 133.325 30.4382 132.786 30.7106 132.31L47.7769 102.55C48.0453 102.047 48.4458 101.626 48.9356 101.333C49.4255 101.04 49.9859 100.887 50.5566 100.889C51.1272 100.891 51.6864 101.049 52.174 101.346C52.6616 101.642 53.059 102.066 53.3235 102.572ZM125.514 102.572L108.384 132.331C108.111 132.809 107.968 133.35 107.97 133.9C107.972 134.45 108.118 134.99 108.395 135.466C108.672 135.941 109.069 136.335 109.546 136.609C110.023 136.883 110.564 137.026 111.114 137.024H145.46C146.011 137.029 146.554 136.887 147.032 136.613C147.51 136.34 147.907 135.944 148.182 135.467C148.458 134.99 148.602 134.448 148.6 133.897C148.597 133.347 148.449 132.806 148.17 132.331L131.103 102.572C130.854 102.032 130.455 101.575 129.954 101.255C129.453 100.935 128.871 100.765 128.277 100.765C127.682 100.765 127.1 100.935 126.599 101.255C126.099 101.575 125.7 102.032 125.45 102.572H125.514Z"
        fill="#FFCC00" />
    <path
        d="M86.6882 28.8236L69.5152 58.5618C69.2376 59.0383 69.0904 59.5796 69.0888 60.1311C69.0871 60.6826 69.231 61.2247 69.5058 61.7029C69.7806 62.181 70.1765 62.5783 70.6538 62.8546C71.1311 63.1308 71.6729 63.2763 72.2244 63.2764H106.592C107.143 63.2763 107.685 63.1308 108.162 62.8546C108.64 62.5783 109.036 62.181 109.31 61.7029C109.585 61.2247 109.729 60.6826 109.727 60.1311C109.726 59.5796 109.579 59.0383 109.301 58.5618L92.2347 28.8236C91.9683 28.319 91.5693 27.8966 91.0806 27.602C90.5919 27.3073 90.0321 27.1516 89.4614 27.1516C88.8908 27.1516 88.331 27.3073 87.8423 27.602C87.3536 27.8966 86.9546 28.319 86.6882 28.8236Z"
        fill="#FFCC00" />
    <path
        d="M159.583 160H19.212C15.8407 160.002 12.5283 159.117 9.6079 157.432C6.68747 155.748 4.26193 153.325 2.57535 150.406C0.888765 147.486 0.000540216 144.175 2.46318e-07 140.803C-0.000539724 137.432 0.886706 134.12 2.57235 131.201L72.7791 9.60266C74.464 6.68317 76.8877 4.25872 79.8068 2.57307C82.7258 0.887415 86.0372 0 89.4081 0C92.7789 0 96.0903 0.887415 99.0093 2.57307C101.928 4.25872 104.352 6.68317 106.037 9.60266L176.244 131.201C177.929 134.119 178.816 137.429 178.816 140.798C178.816 144.168 177.93 147.478 176.246 150.396C174.562 153.315 172.14 155.739 169.222 157.424C166.305 159.11 162.995 159.998 159.626 160H159.583ZM83.8295 16.0025L13.6228 137.6C13.0609 138.574 12.7652 139.678 12.7654 140.801C12.7656 141.925 13.0617 143.029 13.6238 144.002C14.186 144.975 14.9945 145.783 15.9679 146.344C16.9414 146.906 18.0456 147.201 19.1693 147.2H159.583C160.705 147.197 161.806 146.899 162.777 146.336C163.747 145.773 164.553 144.965 165.112 143.993C165.672 143.02 165.966 141.918 165.966 140.796C165.965 139.674 165.669 138.572 165.108 137.6L94.9227 16.0025C94.3615 15.0277 93.5534 14.218 92.5796 13.655C91.6059 13.0919 90.501 12.7955 89.3762 12.7955C88.2513 12.7955 87.1463 13.0919 86.1726 13.655C85.1988 14.218 84.3907 15.0277 83.8295 16.0025Z"
        fill="#FFCC00" />
</svg>