<svg width="68" height="60" viewBox="0 0 68 60" fill="none" xmlns="http://www.w3.org/2000/svg">
<path d="M20.3375 38.4646L26.7374 49.6244C26.8354 49.798 26.8877 49.9937 26.8893 50.193C26.8909 50.3924 26.8419 50.5889 26.7467 50.7641C26.6515 50.9392 26.5133 51.0873 26.3452 51.1944C26.177 51.3015 25.9844 51.3641 25.7854 51.3763H12.8736C12.668 51.3755 12.4661 51.3208 12.2883 51.2176C12.1104 51.1144 11.9627 50.9664 11.8599 50.7883C11.7571 50.6102 11.7028 50.4083 11.7024 50.2026C11.702 49.997 11.7555 49.7949 11.8577 49.6164L18.2576 38.4566C18.3582 38.2677 18.5084 38.1099 18.6921 38.0001C18.8758 37.8903 19.0859 37.8327 19.2999 37.8335C19.5139 37.8344 19.7236 37.8936 19.9065 38.0048C20.0893 38.116 20.2383 38.2749 20.3375 38.4646ZM47.4091 38.4646L40.9851 49.6244C40.8827 49.8034 40.8291 50.0063 40.8299 50.2126C40.8306 50.419 40.8856 50.6214 40.9894 50.7998C41.0931 50.9781 41.242 51.126 41.421 51.2286C41.6 51.3312 41.8028 51.3849 42.0091 51.3844H54.8889C55.0955 51.386 55.2988 51.3328 55.4781 51.2302C55.6574 51.1276 55.8063 50.9792 55.9096 50.8003C56.0129 50.6214 56.0669 50.4183 56.066 50.2117C56.0652 50.0051 56.0096 49.8025 55.9049 49.6244L49.505 38.4646C49.4114 38.2623 49.2618 38.091 49.074 37.9709C48.8862 37.8509 48.6679 37.7871 48.445 37.7871C48.2221 37.7871 48.0039 37.8509 47.816 37.9709C47.6282 38.091 47.4786 38.2623 47.385 38.4646H47.4091Z" fill="#FFCC00"/>
<path d="M32.8503 10.8089L26.4104 21.9607C26.3063 22.1394 26.2511 22.3424 26.2505 22.5492C26.2499 22.756 26.3038 22.9593 26.4069 23.1386C26.5099 23.3179 26.6584 23.4669 26.8374 23.5705C27.0164 23.6741 27.2195 23.7287 27.4264 23.7287H40.3141C40.5209 23.7287 40.7241 23.6741 40.9031 23.5705C41.0821 23.4669 41.2306 23.3179 41.3336 23.1386C41.4367 22.9593 41.4906 22.756 41.49 22.5492C41.4894 22.3424 41.4342 22.1394 41.3301 21.9607L34.9302 10.8089C34.8303 10.6196 34.6807 10.4613 34.4974 10.3508C34.3142 10.2403 34.1042 10.1819 33.8903 10.1819C33.6763 10.1819 33.4663 10.2403 33.2831 10.3508C33.0998 10.4613 32.9502 10.6196 32.8503 10.8089Z" fill="#FFCC00"/>
<path d="M60.1852 60H7.54607C6.28183 60.0008 5.03968 59.6687 3.94452 59.0371C2.84936 58.4055 1.93978 57.4967 1.30731 56.4021C0.67484 55.3074 0.341755 54.0655 0.341553 52.8013C0.34135 51.537 0.674068 50.295 1.30618 49.2002L27.6337 3.601C28.2656 2.50619 29.1745 1.59702 30.2691 0.9649C31.3638 0.332781 32.6055 0 33.8696 0C35.1336 0 36.3754 0.332781 37.4701 0.9649C38.5647 1.59702 39.4737 2.50619 40.1055 3.601L66.4331 49.2002C67.0648 50.2945 67.3975 51.5357 67.3976 52.7993C67.3978 54.0628 67.0654 55.3042 66.4339 56.3986C65.8024 57.493 64.8939 58.402 63.7999 59.0341C62.7058 59.6663 61.4647 59.9994 60.2012 60H60.1852ZM31.7776 6.00096L5.45011 51.6001C5.2394 51.9651 5.12851 52.3791 5.12858 52.8005C5.12865 53.2219 5.23968 53.6359 5.4505 54.0008C5.66132 54.3657 5.96448 54.6686 6.32954 54.8791C6.69459 55.0896 7.10864 55.2004 7.53005 55.2001H60.1852C60.6059 55.199 61.019 55.0872 61.3829 54.8761C61.7468 54.665 62.0489 54.362 62.2588 53.9973C62.4686 53.6327 62.579 53.2192 62.5787 52.7985C62.5784 52.3778 62.4675 51.9645 62.2571 51.6001L35.9376 6.00096C35.7271 5.63539 35.4241 5.33175 35.0589 5.12061C34.6938 4.90948 34.2794 4.7983 33.8576 4.7983C33.4358 4.7983 33.0214 4.90948 32.6563 5.12061C32.2911 5.33175 31.9881 5.63539 31.7776 6.00096Z" fill="#FFCC00"/>
</svg>
