<svg width="107" height="108" viewBox="0 0 107 108" fill="none" xmlns="http://www.w3.org/2000/svg">
<path d="M45.2656 50.7257L45.2756 50.7239C45.3386 50.716 45.4012 50.7048 45.4631 50.6904C45.4917 50.6846 45.5202 50.6817 45.5478 50.6752C45.6059 50.6595 45.6628 50.6356 45.7196 50.6146C45.7479 50.6041 45.7779 50.596 45.8058 50.5837C45.8337 50.5714 45.8965 50.5345 45.9406 50.5121C45.9847 50.4898 46.0115 50.4768 46.0452 50.4544C46.0789 50.432 46.1112 50.4043 46.1444 50.3801C46.1776 50.3559 46.2266 50.3199 46.2639 50.2861C46.2639 50.2861 46.2677 50.2793 46.2703 50.2748C46.2984 50.2492 46.3209 50.2203 46.3475 50.1922C46.374 50.1641 46.4182 50.1208 46.4494 50.0819C46.4806 50.0431 46.5024 50.0077 46.5251 49.9759C46.5478 49.9441 46.5787 49.9006 46.6019 49.8601C46.6251 49.8196 46.6477 49.7802 46.6631 49.7352C46.6785 49.6901 46.7082 49.6564 46.7164 49.6162C46.7246 49.5759 46.7458 49.5208 46.7602 49.4722C46.7747 49.4236 46.7847 49.4009 46.7927 49.3636C46.7927 49.3636 46.7966 49.3568 46.7992 49.3523C46.8084 49.3021 46.8151 49.2514 46.8192 49.2005C46.8356 49.119 46.8398 49.0355 46.8316 48.9527C46.8306 48.9026 46.8331 48.8515 46.828 48.8006C46.8229 48.7496 46.8156 48.7364 46.8107 48.7035C46.8057 48.6706 46.7921 48.5877 46.7757 48.5332C46.7682 48.5048 46.7549 48.4761 46.7456 48.4481C46.7277 48.388 46.7064 48.329 46.6815 48.2714L46.6787 48.2608L32.8891 17.95L52.0406 45.1354L52.0506 45.1413C52.0849 45.1868 52.1215 45.2306 52.1601 45.2725C52.1834 45.2995 52.2036 45.3292 52.2281 45.354C52.2643 45.3885 52.3023 45.4211 52.3419 45.4516C52.3726 45.4785 52.4026 45.5094 52.4353 45.5329C52.468 45.5564 52.5057 45.5739 52.5414 45.5946C52.5772 45.6154 52.6285 45.6453 52.6721 45.6706C52.7157 45.696 52.7369 45.6978 52.769 45.712C52.8182 45.7406 52.8731 45.759 52.9281 45.7775L52.9382 45.7833C52.9711 45.7935 53.0043 45.7978 53.0368 45.8062C53.0887 45.8211 53.1414 45.8332 53.1947 45.8425C53.2373 45.8487 53.2803 45.8527 53.3234 45.8543C53.3717 45.8584 53.4187 45.8648 53.4667 45.8642C53.5147 45.8636 53.5567 45.858 53.602 45.8543C53.6473 45.8506 53.6941 45.8494 53.7396 45.8428C53.7851 45.8363 53.8357 45.8207 53.8826 45.809C53.9296 45.7973 53.958 45.7943 53.9957 45.7832L54.0082 45.777C54.0542 45.7618 54.097 45.7416 54.142 45.7228C54.1871 45.704 54.2242 45.6911 54.2631 45.6702C54.3019 45.6493 54.3231 45.6331 54.3524 45.6157C54.4004 45.5865 54.4506 45.5587 54.4965 45.5254C54.5153 45.5109 54.5325 45.4938 54.5501 45.4786C54.603 45.4358 54.6571 45.3908 54.7037 45.3459C54.7146 45.3268 54.7329 45.3104 54.7473 45.2932C54.7954 45.2428 54.8401 45.1891 54.8811 45.1325C54.8811 45.1325 54.8811 45.1326 54.8856 45.1247L74.0416 17.9455L60.2527 48.2334C60.2146 48.3169 60.1829 48.4034 60.1581 48.4919C60.1543 48.4986 60.1497 48.5065 60.1452 48.5144C60.1238 48.594 60.1082 48.6752 60.0984 48.7571C60.0919 48.7684 60.0951 48.7837 60.0942 48.7982C60.0858 48.8792 60.0829 48.9607 60.0855 49.0421L60.0884 49.0708C60.0921 49.1496 60.1019 49.2281 60.1177 49.3054C60.1184 49.3131 60.1195 49.3207 60.121 49.3283L60.124 49.3465C60.1321 49.3842 60.1473 49.4201 60.1572 49.4573C60.1671 49.4946 60.1827 49.5532 60.1996 49.599C60.2165 49.6448 60.2391 49.6834 60.2586 49.7248C60.2781 49.7661 60.2958 49.8079 60.3177 49.8477C60.3396 49.8874 60.3724 49.929 60.3978 49.9677C60.4233 50.0065 60.4444 50.0398 60.4713 50.0734C60.4982 50.1071 60.5439 50.1546 60.5815 50.193C60.6191 50.2314 60.6252 50.244 60.6515 50.2682L60.6616 50.2741C60.7038 50.3121 60.7504 50.3452 60.7963 50.3794C60.8265 50.397 60.8508 50.4246 60.8803 50.4433C60.9099 50.4619 60.9675 50.4939 61.011 50.5193C61.0546 50.5446 61.0825 50.5608 61.1172 50.581C61.1518 50.6011 61.1953 50.6084 61.2338 50.6218C61.2798 50.6411 61.3268 50.6579 61.3747 50.6722C61.4082 50.6812 61.445 50.6846 61.4799 50.6914C61.5347 50.7023 61.59 50.7149 61.6463 50.7206L61.6563 50.7265L94.6095 53.8371L61.6614 56.9529L61.6497 56.9551C61.6294 56.9568 61.61 56.962 61.5891 56.9648C61.5273 56.9739 61.4659 56.9848 61.4056 56.9992L61.3256 57.0217C61.2708 57.0374 61.2168 57.0561 61.164 57.0777C61.1409 57.0867 61.116 57.0963 61.0934 57.1072C61.0183 57.1412 60.9459 57.1808 60.8766 57.2256C60.8766 57.2256 60.8721 57.2335 60.8695 57.238C60.8032 57.2816 60.7405 57.3304 60.6817 57.3837C60.6731 57.3894 60.665 57.3957 60.6574 57.4026C60.651 57.4139 60.6383 57.423 60.6278 57.4335C60.5843 57.4756 60.5441 57.5198 60.5037 57.5668C60.4921 57.587 60.4727 57.6027 60.4577 57.621C60.4085 57.6844 60.3634 57.7509 60.3228 57.8201C60.2836 57.8901 60.249 57.9627 60.2191 58.0373C60.2075 58.0575 60.2037 58.0823 60.1955 58.1045C60.1759 58.1621 60.1574 58.2204 60.1429 58.2794L60.1311 58.3206C60.1292 58.3308 60.1278 58.341 60.127 58.3512C60.1109 58.4297 60.1002 58.5091 60.0949 58.5891C60.0932 58.5931 60.0911 58.5969 60.0885 58.6003C60.0846 58.6832 60.0868 58.7662 60.095 58.8487C60.097 58.8738 60.1008 58.8985 60.1045 58.9231C60.1131 58.9805 60.1248 59.0373 60.1394 59.0934C60.1443 59.1203 60.1511 59.1467 60.1595 59.1726C60.1753 59.2354 60.1952 59.2971 60.219 59.3572C60.226 59.3763 60.2312 59.3958 60.2399 59.4144L60.2439 59.4257L74.038 89.7286L54.8865 62.5431L54.8764 62.5373C54.8434 62.4911 54.8048 62.4492 54.7681 62.4068C54.7448 62.3798 54.7235 62.3494 54.699 62.3246C54.6745 62.2999 54.6238 62.2584 54.5858 62.2258C54.5479 62.1933 54.5245 62.1692 54.4918 62.1456C54.4591 62.1221 54.4203 62.1041 54.3857 62.0839C54.3434 62.0564 54.2998 62.031 54.255 62.0079C54.2248 61.9904 54.1901 61.9807 54.1581 61.9666C54.1089 61.938 54.0539 61.9196 54.0001 61.9018L53.9901 61.8959C53.9571 61.8858 53.9239 61.8814 53.8903 61.8724C53.8385 61.8571 53.7857 61.845 53.7324 61.8361C53.69 61.8295 53.648 61.8275 53.6037 61.8242C53.5561 61.8184 53.5083 61.8151 53.4604 61.8144C53.4141 61.8145 53.3693 61.82 53.324 61.8236C53.2787 61.8273 53.2318 61.8285 53.1864 61.8351C53.1409 61.8417 53.0914 61.8579 53.0433 61.8689C52.9953 61.88 52.9679 61.8836 52.9314 61.8953L52.9142 61.9019L52.8936 61.9094C52.8193 61.9355 52.7468 61.9665 52.6765 62.0022L52.6515 62.0146C52.5796 62.0524 52.5106 62.0955 52.445 62.1436C52.4386 62.1548 52.4227 62.1591 52.4118 62.1677C52.3462 62.2173 52.2843 62.2715 52.2265 62.33C52.2226 62.3367 52.2181 62.3446 52.2136 62.3525C52.1498 62.4157 52.0908 62.4837 52.0373 62.556L32.8858 89.7273L46.6812 59.4282C46.6812 59.4282 46.6844 59.4225 46.6857 59.4203C46.7124 59.3608 46.7323 59.2974 46.7527 59.2358C46.7656 59.2133 46.7731 59.1846 46.7793 59.1582C46.7942 59.0981 46.8058 59.0373 46.8139 58.9758C46.8191 58.9459 46.8266 58.9173 46.8301 58.8878C46.8361 58.8358 46.8341 58.7821 46.8361 58.7293C46.8381 58.6764 46.8408 58.651 46.839 58.6125C46.8373 58.5739 46.8285 58.5268 46.8218 58.484C46.8151 58.4411 46.8127 58.3856 46.8034 58.3368C46.8034 58.3368 46.8067 58.3311 46.8008 58.3232C46.7926 58.2855 46.7774 58.2496 46.7675 58.2124C46.7576 58.1751 46.742 58.1165 46.7251 58.0707C46.7082 58.0249 46.6856 57.9863 46.6668 57.9438C46.6479 57.9013 46.6296 57.8607 46.607 57.8221C46.5845 57.7834 46.5541 57.7403 46.5275 57.7009C46.501 57.6614 46.4799 57.6281 46.453 57.5945C46.4261 57.5609 46.3797 57.5144 46.3421 57.4761C46.3046 57.4377 46.2984 57.4251 46.2721 57.4008L46.262 57.395C46.2192 57.3573 46.1742 57.3221 46.1273 57.2896C46.0971 57.2721 46.0728 57.2444 46.0433 57.2258C46.001 57.1982 45.9574 57.1728 45.9126 57.1498C45.8779 57.1296 45.8422 57.1089 45.8064 57.0881C45.7707 57.0673 45.7301 57.0602 45.6905 57.0461C45.6509 57.0321 45.5967 57.0096 45.5489 56.9969C45.5012 56.9841 45.4786 56.9845 45.4444 56.9766C45.4102 56.9687 45.3343 56.953 45.278 56.9473L45.2679 56.9415L12.3169 53.8322L45.2656 50.7257Z" fill="#FFEEA8" stroke="#0E0333" stroke-miterlimit="10" stroke-linejoin="round"/>
<path d="M50.3664 62.093L50.3647 62.083C50.3568 62.0195 50.3457 61.9565 50.3315 61.8941C50.3251 61.8664 50.3228 61.8366 50.3163 61.8088C50.2993 61.7502 50.2792 61.6924 50.2561 61.6358C50.2457 61.6073 50.2377 61.5771 50.2255 61.549C50.2133 61.5209 50.1777 61.4583 50.1544 61.4132C50.1311 61.3681 50.1194 61.3418 50.0982 61.3085C50.0771 61.2752 50.0474 61.2414 50.0233 61.208C49.9993 61.1745 49.9635 61.1252 49.93 61.0877L49.9188 61.0812C49.8933 61.0529 49.8646 61.0302 49.8367 61.0035C49.8088 60.9768 49.7658 60.9323 49.7273 60.9008C49.6887 60.8694 49.6536 60.8475 49.6164 60.8214C49.5793 60.7953 49.5416 60.7674 49.5014 60.744C49.4612 60.7206 49.4221 60.6979 49.3774 60.6824C49.3326 60.6669 49.2992 60.6369 49.2536 60.6254C49.2081 60.614 49.1589 60.5959 49.1106 60.5813C49.0624 60.5667 49.0399 60.5566 49.0028 60.5486L48.9916 60.5421C48.9417 60.5327 48.8914 60.526 48.8408 60.5219C48.7599 60.5054 48.677 60.5012 48.5948 60.5094C48.5451 60.5104 48.4943 60.508 48.4438 60.5131C48.3932 60.5181 48.38 60.5255 48.3474 60.5305C48.3147 60.5355 48.2324 60.5492 48.1783 60.5657C48.1501 60.5733 48.1215 60.5867 48.0938 60.5961C48.0341 60.614 47.9755 60.6355 47.9183 60.6605L47.9078 60.6634L17.8261 74.5599L44.8201 55.2726L44.8259 55.2624C44.8718 55.2291 44.9134 55.1903 44.9555 55.1533C44.9823 55.1299 45.0125 55.1084 45.0371 55.0837C45.0617 55.059 45.1028 55.008 45.1352 54.9698C45.1675 54.9316 45.1914 54.908 45.2148 54.8751C45.2381 54.8421 45.2554 54.8042 45.2793 54.7626C45.3066 54.72 45.3318 54.6761 45.3547 54.6309C45.3722 54.6006 45.3817 54.5657 45.3958 54.5333C45.4186 54.4806 45.4425 54.4285 45.4602 54.3743C45.4629 54.3709 45.4651 54.3671 45.4666 54.363C45.4767 54.3299 45.481 54.2964 45.4893 54.2637C45.5028 54.2116 45.517 54.1583 45.5254 54.1047C45.5338 54.0511 45.5346 54.0185 45.5383 53.9757C45.542 53.9328 45.5475 53.879 45.5469 53.8307C45.5463 53.7823 45.5407 53.7401 45.5371 53.6945C45.5335 53.6489 45.5322 53.6017 45.5257 53.5559C45.5192 53.5101 45.5037 53.4591 45.4921 53.4118C45.4805 53.3646 45.4776 53.3359 45.4659 53.2991L45.4604 53.2854C45.4452 53.2391 45.4252 53.196 45.4059 53.1517C45.3909 53.1098 45.3736 53.0688 45.3543 53.0287C45.3383 52.9969 45.3174 52.9683 45.3001 52.9387C45.2712 52.8904 45.2436 52.8399 45.2105 52.7936C45.1961 52.7747 45.1792 52.7574 45.1641 52.7396C45.1229 52.6859 45.0787 52.6347 45.0316 52.5861C45.0126 52.575 44.9964 52.5566 44.98 52.5411C44.9299 52.4926 44.8766 52.4476 44.8204 52.4063L44.8126 52.4018L17.8249 33.1099L47.8994 46.9966C47.9824 47.035 48.0682 47.0668 48.1561 47.0918L48.1784 47.1048C48.2576 47.1263 48.3381 47.1421 48.4195 47.152L48.4603 47.1562C48.5407 47.1652 48.6216 47.1681 48.7025 47.165L48.7309 47.1621C48.8092 47.1583 48.8871 47.1484 48.9639 47.1325L48.9866 47.1292L49.0047 47.1262C49.0422 47.118 49.0771 47.1038 49.1148 47.0927C49.1524 47.0816 49.2099 47.0671 49.2554 47.05C49.3009 47.033 49.3393 47.0103 49.3803 46.9906C49.4214 46.971 49.4629 46.9532 49.5023 46.9311C49.5418 46.909 49.5824 46.8772 49.6227 46.8511C49.6629 46.825 49.6938 46.8024 49.7272 46.7753C49.7606 46.7482 49.8078 46.7022 49.8459 46.6644C49.8698 46.6408 49.8965 46.6203 49.92 46.5949C49.9226 46.5915 49.9248 46.5877 49.9264 46.5837C49.9642 46.5411 49.997 46.4942 50.031 46.448C50.0484 46.4176 50.0759 46.3931 50.0944 46.3634C50.1218 46.3208 50.147 46.2769 50.1699 46.2317C50.1905 46.1957 50.2111 46.1597 50.2344 46.1192C50.2576 46.0787 50.2616 46.0406 50.276 46.0024C50.2904 45.9643 50.3123 45.908 50.3249 45.8599C50.3376 45.8118 50.3373 45.7891 50.344 45.754C50.3548 45.6988 50.3673 45.643 50.373 45.5864L50.3788 45.5762L53.4668 12.3904L56.5543 45.5835L56.5565 45.5952C56.5582 45.6157 56.5634 45.6352 56.5662 45.6564C56.574 45.7186 56.5854 45.7803 56.6002 45.8412C56.6067 45.8689 56.6144 45.8944 56.6226 45.9217C56.6382 45.9769 56.6567 46.0313 56.6782 46.0845C56.6872 46.1077 56.6967 46.1328 56.7075 46.1555C56.7413 46.2311 56.7806 46.3041 56.8251 46.3739L56.8373 46.381C56.8814 46.447 56.93 46.5099 56.9827 46.5691C56.9883 46.5777 56.9946 46.5859 57.0015 46.5935C57.0112 46.604 57.0214 46.6139 57.0321 46.6233C57.0739 46.6674 57.1181 46.7091 57.1645 46.7483L57.2184 46.7946C57.2813 46.8441 57.3473 46.8895 57.416 46.9305C57.4856 46.97 57.5576 47.0048 57.6317 47.0349L57.6985 47.0587C57.7554 47.0795 57.8133 47.0972 57.8721 47.1117C57.8856 47.1164 57.8992 47.1203 57.913 47.1235C57.9231 47.1255 57.9332 47.1269 57.9434 47.1277C58.0212 47.1445 58.1002 47.1553 58.1796 47.16L58.1908 47.1665C58.273 47.1704 58.3554 47.1682 58.4373 47.1598C58.4623 47.1579 58.4868 47.1541 58.5113 47.1503C58.5683 47.1417 58.6247 47.1299 58.6804 47.1152C58.7067 47.1101 58.7327 47.1037 58.7584 47.096C58.8187 47.078 58.878 47.057 58.9361 47.0329C58.9557 47.0247 58.9751 47.0195 58.9935 47.0107L59.0047 47.0067L89.0875 33.1109L62.0935 52.3982L62.0877 52.4083C62.0418 52.4416 62.0002 52.4804 61.9581 52.5175C61.9313 52.5409 61.9011 52.5623 61.8765 52.587C61.8519 52.6117 61.8108 52.6628 61.7784 52.701C61.7461 52.7392 61.7222 52.7628 61.6988 52.7957C61.6755 52.8286 61.6575 52.8677 61.6343 52.9082C61.607 52.9507 61.5818 52.9947 61.5589 53.0398C61.5414 53.0702 61.5319 53.1051 61.5178 53.1374C61.495 53.1902 61.4711 53.2423 61.4534 53.2965C61.4509 53.2995 61.449 53.303 61.4476 53.3066C61.4375 53.3398 61.4332 53.3733 61.4243 53.4071C61.4091 53.4593 61.397 53.5124 61.3882 53.5661C61.3816 53.6088 61.3797 53.6511 61.3765 53.6958C61.3732 53.7404 61.3661 53.7917 61.3667 53.8401C61.3673 53.8884 61.3729 53.9307 61.3765 53.9763C61.3801 54.0219 61.3814 54.0691 61.3879 54.1149C61.3944 54.1607 61.4105 54.2106 61.4215 54.2589C61.4325 54.3073 61.436 54.3349 61.4477 54.3717L61.4542 54.389L61.4627 54.4104C61.4874 54.4853 61.5179 54.5582 61.5538 54.6283L61.5655 54.6547C61.6037 54.7264 61.6467 54.7955 61.6942 54.8615L61.7182 54.8949C61.7673 54.961 61.8212 55.0234 61.8793 55.0816L61.9016 55.0946C61.967 55.1588 62.0373 55.2177 62.1118 55.2708L89.0917 74.5582L59.0072 60.6656L58.9983 60.6604C58.9392 60.6336 58.8762 60.6135 58.815 60.5929C58.7895 60.5855 58.7636 60.5735 58.738 60.5661C58.6784 60.5511 58.6179 60.5395 58.5569 60.5313C58.5272 60.526 58.4988 60.5185 58.4695 60.515C58.4178 60.5089 58.3645 60.511 58.3114 60.5101C58.2583 60.5092 58.2343 60.5043 58.1961 60.506C58.1579 60.5078 58.1111 60.5166 58.0685 60.5233C58.0259 60.5301 57.9709 60.5326 57.9224 60.5419C57.9224 60.5419 57.9168 60.5386 57.9089 60.5445C57.8714 60.5527 57.8358 60.568 57.7988 60.578C57.7618 60.588 57.7037 60.6037 57.6582 60.6208C57.6127 60.6378 57.5743 60.6605 57.5322 60.6795C57.49 60.6985 57.4496 60.717 57.4113 60.7397C57.3729 60.7624 57.3301 60.793 57.2909 60.8197C57.2518 60.8464 57.2187 60.8677 57.1853 60.8948C57.1519 60.9219 57.1058 60.9686 57.0677 61.0064C57.0296 61.0443 57.0165 61.0516 56.993 61.077C56.9905 61.08 56.9886 61.0834 56.9872 61.0871C56.9498 61.1303 56.9148 61.1756 56.8826 61.2228C56.8652 61.2532 56.8377 61.2777 56.8192 61.3074C56.7918 61.35 56.7666 61.3939 56.7437 61.439C56.7237 61.4739 56.7031 61.5099 56.6792 61.5515C56.6554 61.5932 56.6515 61.6284 56.6376 61.6683C56.6237 61.7082 56.6013 61.7628 56.5887 61.8109C56.576 61.859 56.5763 61.8817 56.5685 61.9162C56.5577 61.9714 56.5451 62.0271 56.5394 62.0838C56.5394 62.0838 56.5356 62.0905 56.5336 62.0939L53.4463 95.2786L50.3664 62.093Z" fill="#FFCC00" stroke="#0E0333" stroke-miterlimit="10" stroke-linejoin="round"/>
<path d="M64.5912 47.8213C65.0451 47.0299 65.3397 46.1562 65.4582 45.25C65.5767 44.3439 65.5166 43.4231 65.2815 42.5404C65.0464 41.6576 64.6408 40.8302 64.088 40.1054C63.5352 39.3806 62.8459 38.7726 62.0597 38.3163C61.2741 37.8592 60.4068 37.5626 59.5074 37.4432C58.6079 37.3238 57.6939 37.3841 56.8176 37.6206C55.9413 37.857 55.1199 38.2651 54.4002 38.8214C53.6805 39.3777 53.0767 40.0713 52.6233 40.8627L47.7877 49.2977L59.7509 56.2537L64.5912 47.8213Z" fill="#02E2AC" stroke="#0E0333" stroke-miterlimit="10" stroke-linejoin="round"/>
<path d="M47.7922 49.3004L42.9566 57.7355C42.041 59.3325 41.7925 61.2304 42.2658 63.0119C42.739 64.7934 43.8953 66.3128 45.4804 67.2361C47.067 68.158 48.9523 68.4076 50.7216 67.9299C52.4909 67.4522 53.9993 66.2864 54.9152 64.6888L59.7509 56.2537L47.7922 49.3004Z" fill="#B3FFED" stroke="#0E0333" stroke-miterlimit="10" stroke-linejoin="round"/>
<path d="M60.9926 37.8088C62.2411 38.8591 63.0816 40.3194 63.366 41.9324C63.6505 43.5455 63.3607 45.2079 62.5477 46.627L57.712 55.062L59.7581 56.2517L64.5938 47.8167C65.047 47.0253 65.3409 46.1518 65.4587 45.2461C65.5766 44.3403 65.5162 43.42 65.2808 42.5378C65.0455 41.6556 64.6399 40.8287 64.0872 40.1043C63.5345 39.38 62.8456 38.7724 62.0597 38.3162C61.7188 38.1172 61.3618 37.9474 60.9926 37.8088Z" fill="#11BC92" stroke="#0E0333" stroke-miterlimit="10" stroke-linejoin="round"/>
<path d="M57.7094 55.0666L52.8737 63.5017C52.0602 64.9203 50.7757 66.0043 49.2463 66.5625C47.717 67.1207 46.0412 67.1173 44.5141 66.553C44.8174 66.8094 45.1423 67.0389 45.485 67.2387C47.0716 68.1607 48.9569 68.4102 50.7262 67.9326C52.4955 67.4549 54.0039 66.289 54.9198 64.6914L59.7555 56.2563L57.7094 55.0666Z" fill="#11BC92" stroke="#0E0333" stroke-miterlimit="10" stroke-linejoin="round"/>
</svg>
