<svg width="45" height="61" viewBox="0 0 45 61" fill="none" xmlns="http://www.w3.org/2000/svg">
<path d="M9.35356 41.2793C8.90815 41.2809 8.46881 41.1758 8.07226 40.973C7.67571 40.7701 7.33343 40.4754 7.07399 40.1133L1.19734 31.7414C0.870054 31.2719 0.69458 30.7134 0.69458 30.141C0.69458 29.5687 0.870054 29.0102 1.19734 28.5407L7.07399 20.1629C7.3318 19.7972 7.67373 19.4988 8.07094 19.2929C8.46816 19.0869 8.90904 18.9794 9.35648 18.9794C9.80392 18.9794 10.2448 19.0869 10.642 19.2929C11.0392 19.4988 11.3811 19.7972 11.6389 20.1629L17.5156 28.5407C17.8429 29.0102 18.0184 29.5687 18.0184 30.141C18.0184 30.7134 17.8429 31.2719 17.5156 31.7414L11.6389 40.1192C11.3776 40.4802 11.034 40.7738 10.6365 40.9756C10.2391 41.1774 9.79928 41.2815 9.35356 41.2793ZM4.94022 30.1148L9.35356 36.4113L13.7727 30.1148L9.3594 23.8184L4.94022 30.1148Z" fill="#6F3FF5"/>
<path d="M30.5924 11.5519L23.5439 21.6087C23.4556 21.7338 23.3386 21.8359 23.2026 21.9064C23.0667 21.9768 22.9158 22.0136 22.7626 22.0136C22.6095 22.0136 22.4586 21.9768 22.3227 21.9064C22.1867 21.8359 22.0697 21.7338 21.9814 21.6087L14.9271 11.5519C14.8163 11.3906 14.757 11.1996 14.757 11.0039C14.757 10.8082 14.8163 10.6171 14.9271 10.4559L21.9814 0.404889C22.0697 0.279776 22.1867 0.17769 22.3227 0.107232C22.4586 0.0367727 22.6095 0 22.7626 0C22.9158 0 23.0667 0.0367727 23.2026 0.107232C23.3386 0.17769 23.4556 0.279776 23.5439 0.404889L30.5924 10.4675C30.7038 10.6264 30.7635 10.8157 30.7635 11.0097C30.7635 11.2037 30.7038 11.3931 30.5924 11.5519Z" fill="#FFCC00"/>
<path d="M30.5924 49.7734L23.5439 59.8302C23.4556 59.9553 23.3386 60.0574 23.2026 60.1279C23.0667 60.1983 22.9158 60.2351 22.7627 60.2351C22.6095 60.2351 22.4586 60.1983 22.3227 60.1279C22.1867 60.0574 22.0697 59.9553 21.9814 59.8302L14.9271 49.7734C14.8163 49.6121 14.757 49.4211 14.757 49.2254C14.757 49.0297 14.8163 48.8386 14.9271 48.6774L21.9814 38.6264C22.0697 38.5013 22.1867 38.3992 22.3227 38.3287C22.4586 38.2583 22.6095 38.2215 22.7627 38.2215C22.9158 38.2215 23.0667 38.2583 23.2026 38.3287C23.3386 38.3992 23.4556 38.5013 23.5439 38.6264L30.5924 48.6774C30.7064 48.8374 30.7676 49.0289 30.7676 49.2254C30.7676 49.4218 30.7064 49.6134 30.5924 49.7734Z" fill="#FFCC00"/>
<path d="M36.1659 41.2795C35.7203 41.282 35.2807 41.1773 34.884 40.9744C34.4873 40.7715 34.1452 40.4762 33.8864 40.1135L28.0097 31.7415C27.6824 31.272 27.507 30.7135 27.507 30.1412C27.507 29.5689 27.6824 29.0103 28.0097 28.5408L33.8864 20.1631C34.1436 19.7974 34.4849 19.4989 34.8816 19.2929C35.2784 19.0869 35.7189 18.9793 36.1659 18.9793C36.613 18.9793 37.0535 19.0869 37.4502 19.2929C37.847 19.4989 38.1883 19.7974 38.4455 20.1631L44.3221 28.5408C44.6494 29.0103 44.8249 29.5689 44.8249 30.1412C44.8249 30.7135 44.6494 31.272 44.3221 31.7415L38.4455 40.1193C38.1861 40.481 37.8437 40.7751 37.447 40.977C37.0503 41.1789 36.611 41.2826 36.1659 41.2795ZM31.7526 30.1149L36.1659 36.4114L40.5851 30.1149L36.1659 23.8185L31.7526 30.1149Z" fill="#6F3FF5"/>
</svg>
