<svg width="45" height="60" viewBox="0 0 45 60" fill="none" xmlns="http://www.w3.org/2000/svg">
<path d="M9.31976 41.1182C8.87609 41.1197 8.43847 41.0151 8.04346 40.813C7.64846 40.611 7.30752 40.3174 7.04909 39.9567L1.19538 31.6175C0.869369 31.1498 0.69458 30.5935 0.69458 30.0234C0.69458 29.4533 0.869369 28.8969 1.19538 28.4293L7.04909 20.0842C7.30589 19.72 7.64649 19.4227 8.04215 19.2175C8.43781 19.0124 8.87697 18.9053 9.32267 18.9053C9.76836 18.9053 10.2075 19.0124 10.6032 19.2175C10.9988 19.4227 11.3394 19.72 11.5962 20.0842L17.45 28.4293C17.776 28.8969 17.9508 29.4533 17.9508 30.0234C17.9508 30.5935 17.776 31.1498 17.45 31.6175L11.5962 39.9625C11.3359 40.3222 10.9936 40.6147 10.5977 40.8157C10.2018 41.0166 9.76374 41.1203 9.31976 41.1182ZM4.92364 29.9973L9.31976 36.2691L13.7217 29.9973L9.32557 23.7254L4.92364 29.9973Z" fill="#FFCC00"/>
<path d="M30.4758 11.5068L23.4547 21.5244C23.3668 21.649 23.2502 21.7507 23.1148 21.8209C22.9794 21.8911 22.8291 21.9277 22.6766 21.9277C22.5241 21.9277 22.3738 21.8911 22.2384 21.8209C22.1029 21.7507 21.9863 21.649 21.8984 21.5244L14.8716 11.5068C14.7612 11.3462 14.7021 11.1558 14.7021 10.9609C14.7021 10.766 14.7612 10.5757 14.8716 10.4151L21.8984 0.403309C21.9863 0.278684 22.1029 0.176997 22.2384 0.106813C22.3738 0.0366292 22.5241 0 22.6766 0C22.8291 0 22.9794 0.0366292 23.1148 0.106813C23.2502 0.176997 23.3668 0.278684 23.4547 0.403309L30.4758 10.4267C30.5867 10.5849 30.6462 10.7735 30.6462 10.9667C30.6462 11.16 30.5867 11.3486 30.4758 11.5068Z" fill="#FFCC00"/>
<path d="M30.4758 49.5791L23.4548 59.5966C23.3668 59.7213 23.2503 59.8229 23.1148 59.8931C22.9794 59.9633 22.8291 60 22.6766 60C22.5241 60 22.3738 59.9633 22.2384 59.8931C22.1029 59.8229 21.9863 59.7213 21.8984 59.5966L14.8716 49.5791C14.7612 49.4184 14.7021 49.2281 14.7021 49.0332C14.7021 48.8383 14.7612 48.648 14.8716 48.4873L21.8984 38.4756C21.9863 38.351 22.1029 38.2493 22.2384 38.1791C22.3738 38.1089 22.5241 38.0723 22.6766 38.0723C22.8291 38.0723 22.9794 38.1089 23.1148 38.1791C23.2503 38.2493 23.3668 38.351 23.4548 38.4756L30.4758 48.4873C30.5893 48.6467 30.6503 48.8375 30.6503 49.0332C30.6503 49.2289 30.5893 49.4197 30.4758 49.5791Z" fill="#FFCC00"/>
<path d="M36.0275 41.1184C35.5837 41.1208 35.1457 41.0166 34.7506 40.8145C34.3554 40.6124 34.0146 40.3182 33.7569 39.9569L27.9031 31.6176C27.5771 31.15 27.4023 30.5936 27.4023 30.0235C27.4023 29.4535 27.5771 28.8971 27.9031 28.4294L33.7569 20.0844C34.013 19.7201 34.353 19.4229 34.7482 19.2176C35.1434 19.0124 35.5822 18.9053 36.0275 18.9053C36.4728 18.9053 36.9116 19.0124 37.3068 19.2176C37.702 19.4229 38.042 19.7201 38.2981 20.0844L44.1519 28.4294C44.4779 28.8971 44.6527 29.4535 44.6527 30.0235C44.6527 30.5936 44.4779 31.15 44.1519 31.6176L38.2981 39.9627C38.0398 40.323 37.6987 40.616 37.3036 40.8171C36.9085 41.0182 36.4709 41.1215 36.0275 41.1184ZM31.6314 29.9974L36.0275 36.2693L40.4294 29.9974L36.0275 23.7255L31.6314 29.9974Z" fill="#FFCC00"/>
</svg>
