<svg width="628" height="628" viewBox="0 0 628 628" fill="none" xmlns="http://www.w3.org/2000/svg">
<g filter="url(#filter0_d_234_133)">
<path d="M564 64H64V564H564V64Z" fill="#02E2AC"/>
</g>
<path d="M277 323.8C277.3 323.6 277.5 323.4 277.7 323.2C277.8 323.1 277.9 323 278 323C278.2 322.8 278.3 322.6 278.5 322.4C278.6 322.3 278.7 322.2 278.8 322.1C278.9 321.9 279 321.7 279.1 321.5C279.2 321.4 279.3 321.2 279.4 321.1C279.5 320.9 279.5 320.8 279.6 320.6C279.7 320.4 279.8 320.2 279.8 320C279.8 320 279.8 320 279.8 319.9C279.8 319.7 279.9 319.6 279.9 319.4C279.9 319.2 280 319 280 318.8C280 318.6 280 318.4 280 318.2C280 318 280 317.8 280 317.6C280 317.4 280 317.2 280 317C280 316.8 280 316.6 279.9 316.4C279.9 316.2 279.8 316 279.7 315.8C279.7 315.6 279.6 315.5 279.6 315.3C279.6 315.3 279.6 315.3 279.6 315.2C279.5 315 279.4 314.8 279.3 314.6C279.2 314.4 279.2 314.3 279.1 314.1C279 313.9 278.9 313.8 278.8 313.7C278.7 313.5 278.6 313.3 278.5 313.2C278.4 313.1 278.3 313 278.2 312.9C278 312.7 277.9 312.5 277.7 312.3C277.6 312.2 277.5 312.1 277.4 312.1C277.2 311.9 277 311.7 276.8 311.6L160.5 230.5L290 288.5C290.2 288.6 290.5 288.7 290.7 288.7C290.8 288.7 291 288.8 291.1 288.8C291.3 288.9 291.5 288.9 291.7 288.9C291.9 288.9 292 289 292.2 289C292.4 289 292.5 289 292.7 289C292.9 289 293.1 289 293.4 289C293.5 289 293.7 289 293.8 288.9C294 288.9 294.3 288.8 294.5 288.8C294.5 288.8 294.5 288.8 294.6 288.8C294.7 288.8 294.9 288.7 295 288.7C295.2 288.6 295.4 288.6 295.7 288.5C295.9 288.4 296 288.3 296.2 288.3C296.4 288.2 296.6 288.1 296.8 288C297 287.9 297.1 287.8 297.3 287.7C297.5 287.6 297.6 287.5 297.8 287.4C298 287.3 298.1 287.1 298.3 287C298.4 286.9 298.5 286.8 298.7 286.7C298.8 286.5 299 286.4 299.1 286.2C299.2 286 299.3 285.9 299.4 285.7C299.5 285.6 299.5 285.4 299.6 285.3C299.7 285.1 299.8 284.9 299.9 284.7C299.9 284.6 300 284.5 300 284.4C300.1 284.1 300.2 283.9 300.3 283.6C300.3 283.5 300.3 283.4 300.4 283.3C300.5 283 300.5 282.7 300.5 282.4L312.5 141L327 282.1C327 282.5 327.1 282.9 327.2 283.3V283.4C327.3 283.7 327.4 284.1 327.6 284.4C327.6 284.5 327.6 284.5 327.7 284.6C327.8 284.9 328 285.2 328.2 285.5C328.2 285.5 328.2 285.6 328.3 285.6C328.5 285.9 328.7 286.1 328.9 286.4C328.9 286.4 328.9 286.5 329 286.5C329 286.5 329 286.5 329 286.6C329.1 286.7 329.2 286.8 329.4 286.9C329.6 287 329.7 287.2 329.9 287.3C330.1 287.4 330.2 287.5 330.4 287.6C330.6 287.7 330.7 287.8 330.9 287.9C331.1 288 331.3 288.1 331.5 288.2C331.7 288.3 331.8 288.4 332 288.4C332.2 288.5 332.4 288.5 332.7 288.6C332.8 288.6 333 288.7 333.1 288.7C333.1 288.7 333.1 288.7 333.2 288.7C333.4 288.7 333.7 288.8 333.9 288.8C334 288.8 334.2 288.8 334.3 288.9C334.5 288.9 334.7 288.9 334.9 288.9C335.1 288.9 335.2 288.9 335.4 288.9C335.6 288.9 335.7 288.8 335.9 288.8C336.1 288.8 336.3 288.7 336.5 288.7C336.6 288.7 336.8 288.6 336.9 288.5C337.1 288.4 337.4 288.3 337.6 288.2L466 227.8L351 310.9C350.9 311 350.9 311 350.8 311.1C350.6 311.3 350.4 311.4 350.2 311.6C350.1 311.7 350 311.8 350 311.9C349.8 312.1 349.7 312.3 349.5 312.5C349.4 312.6 349.4 312.7 349.3 312.8C349.1 313.1 348.9 313.4 348.8 313.7C348.8 313.7 348.8 313.7 348.8 313.8C348.7 314.1 348.5 314.4 348.4 314.7V314.8C348.4 314.9 348.4 314.9 348.4 315C348.3 315.2 348.3 315.5 348.2 315.8C348.2 315.9 348.2 316 348.1 316.1C348.1 316.4 348 316.8 348 317.1C348 317.4 348 317.8 348.1 318.1C348.1 318.2 348.1 318.3 348.2 318.4C348.2 318.7 348.3 318.9 348.4 319.2C348.4 319.3 348.4 319.3 348.4 319.4V319.5C348.5 319.8 348.6 320.1 348.8 320.4C348.8 320.4 348.8 320.4 348.8 320.5C349 320.8 349.2 321.1 349.4 321.4C349.5 321.5 349.5 321.6 349.6 321.7C349.8 321.9 349.9 322.1 350.1 322.3C350.2 322.4 350.3 322.5 350.3 322.5C350.5 322.7 350.7 322.9 350.9 323C351 323.1 351 323.1 351.1 323.2L467.5 404.3L338 346.3C337.8 346.2 337.5 346.1 337.3 346.1C337.2 346.1 337 346 336.9 346C336.7 345.9 336.5 345.9 336.3 345.9C336.1 345.9 336 345.8 335.8 345.8C335.6 345.8 335.4 345.8 335.3 345.8C335.1 345.8 334.9 345.8 334.7 345.8C334.6 345.8 334.4 345.8 334.3 345.9C334.1 345.9 333.8 346 333.6 346C333.6 346 333.6 346 333.5 346C333.4 346 333.2 346.1 333.1 346.1C332.9 346.2 332.7 346.2 332.4 346.3C332.2 346.4 332.1 346.5 331.9 346.5C331.7 346.6 331.5 346.7 331.3 346.8C331.1 346.9 331 347 330.8 347.1C330.6 347.2 330.5 347.3 330.3 347.4C330.1 347.5 330 347.7 329.8 347.8C329.7 347.9 329.6 348 329.4 348.1C329.4 348.1 329.4 348.1 329.4 348.2C329.4 348.2 329.4 348.3 329.3 348.3C329.1 348.6 328.9 348.8 328.7 349.1C328.7 349.1 328.7 349.2 328.6 349.2C328.4 349.5 328.3 349.8 328.1 350.1C328.1 350.2 328.1 350.2 328 350.3C327.9 350.6 327.8 351 327.7 351.3V351.4C327.6 351.8 327.5 352.2 327.5 352.6L315.5 493.9L301 352.8C301 352.5 300.9 352.3 300.8 352C300.8 351.9 300.8 351.8 300.7 351.7C300.6 351.4 300.5 351.2 300.4 351C300.4 350.9 300.3 350.8 300.3 350.6C300.2 350.4 300.1 350.2 300 350C299.9 349.9 299.8 349.7 299.8 349.6C299.7 349.4 299.6 349.3 299.5 349.2C299.4 349 299.3 348.9 299.1 348.7C299 348.6 298.9 348.5 298.7 348.4C298.5 348.3 298.4 348.1 298.2 348C298 347.9 297.9 347.8 297.7 347.7C297.5 347.6 297.4 347.5 297.2 347.4C297 347.3 296.8 347.2 296.6 347.1C296.4 347 296.3 346.9 296.1 346.9C295.9 346.8 295.7 346.8 295.4 346.7C295.3 346.7 295.1 346.6 295 346.6C295 346.6 295 346.6 294.9 346.6C294.7 346.6 294.4 346.5 294.2 346.5C294.1 346.5 293.9 346.5 293.8 346.4C293.6 346.4 293.4 346.4 293.2 346.4C293 346.4 292.8 346.4 292.7 346.4C292.5 346.4 292.4 346.5 292.2 346.5C292 346.5 291.8 346.6 291.6 346.6C291.5 346.6 291.3 346.7 291.2 346.8C291 346.9 290.7 347 290.5 347.1L162.1 406.9L277 323.8Z" fill="#FFEEA8" stroke="black" stroke-width="2" stroke-miterlimit="10" stroke-linecap="round" stroke-linejoin="round"/>
<path d="M322.1 363.9C321.9 363.6 321.6 363.3 321.4 363.1C321.3 363 321.2 362.9 321.1 362.7C320.9 362.5 320.6 362.3 320.4 362.1C320.3 362 320.2 361.9 320 361.8C319.8 361.6 319.5 361.5 319.3 361.4C319.1 361.3 318.9 361.2 318.7 361.1C318.5 361 318.3 360.9 318.1 360.8C317.8 360.7 317.6 360.6 317.3 360.5C317.3 360.5 317.3 360.5 317.2 360.5C317 360.4 316.8 360.4 316.6 360.4C316.3 360.3 316.1 360.3 315.8 360.2C315.6 360.2 315.3 360.2 315.1 360.1C314.9 360.1 314.6 360.1 314.4 360.1C314.1 360.1 313.9 360.1 313.7 360.2C313.5 360.2 313.2 360.2 313 360.3C312.7 360.3 312.5 360.4 312.2 360.5C312 360.6 311.8 360.6 311.6 360.6C311.6 360.6 311.6 360.6 311.5 360.6C311.2 360.7 311 360.8 310.7 360.9C310.5 361 310.3 361.1 310.1 361.2C309.9 361.3 309.7 361.4 309.5 361.6C309.3 361.7 309 361.9 308.8 362C308.7 362.1 308.5 362.2 308.4 362.3C308.2 362.5 307.9 362.7 307.7 362.9C307.6 363 307.5 363.1 307.4 363.3C307.2 363.6 307 363.8 306.8 364.1L204.8 510.6L277.7 347.7C277.7 347.7 277.7 347.7 277.7 347.6C277.8 347.3 277.9 347 278 346.7C278.1 346.5 278.1 346.3 278.2 346.2C278.3 345.9 278.3 345.7 278.3 345.4C278.3 345.2 278.4 345 278.4 344.7C278.4 344.5 278.4 344.3 278.4 344C278.4 343.7 278.4 343.5 278.4 343.2C278.4 343 278.3 342.8 278.3 342.6C278.3 342.3 278.2 342 278.2 341.7C278.2 341.7 278.2 341.7 278.2 341.6C278.2 341.4 278.1 341.3 278 341.1C277.9 340.8 277.8 340.5 277.7 340.3C277.6 340.1 277.5 339.9 277.4 339.7C277.3 339.5 277.2 339.2 277 339C276.9 338.8 276.7 338.6 276.6 338.4C276.5 338.2 276.3 338 276.2 337.8C276 337.6 275.8 337.4 275.7 337.2C275.6 337.1 275.4 336.9 275.3 336.7C275.3 336.7 275.3 336.7 275.2 336.7C275 336.5 274.8 336.4 274.6 336.2C274.4 336.1 274.2 335.9 274 335.8C273.8 335.7 273.7 335.6 273.5 335.5C273.2 335.4 273 335.2 272.7 335.1C272.6 335 272.5 335 272.3 335C272 334.9 271.6 334.7 271.3 334.7C271.2 334.7 271.1 334.7 270.9 334.6C270.5 334.5 270.2 334.4 269.8 334.4L92.1 319.4L269.6 301.1C270.1 301.1 270.6 301 271 300.8H271.1C271.5 300.7 271.9 300.5 272.3 300.4C272.4 300.4 272.4 300.3 272.5 300.3C272.9 300.1 273.3 299.9 273.6 299.7L273.7 299.6C274 299.4 274.4 299.1 274.7 298.8L274.8 298.7C274.8 298.7 274.8 298.7 274.9 298.6C275.1 298.5 275.2 298.3 275.3 298.1C275.5 297.9 275.7 297.7 275.8 297.5C276 297.3 276.1 297.1 276.2 296.9C276.3 296.7 276.5 296.5 276.6 296.3C276.7 296.1 276.8 295.8 276.9 295.6C277 295.4 277.1 295.2 277.2 295C277.3 294.7 277.4 294.4 277.4 294.2C277.4 294 277.5 293.9 277.6 293.7C277.6 293.7 277.6 293.7 277.6 293.6C277.7 293.3 277.7 293 277.7 292.7C277.7 292.5 277.8 292.3 277.8 292.1C277.8 291.8 277.8 291.6 277.8 291.3C277.8 291.1 277.8 290.9 277.8 290.6C277.8 290.4 277.7 290.2 277.7 289.9C277.6 289.6 277.6 289.4 277.5 289.1C277.4 288.9 277.4 288.7 277.3 288.6C277.2 288.3 277.1 288 277 287.7C277 287.7 277 287.7 277 287.6L201.3 126.2L305.9 270.8C305.9 270.8 305.9 270.8 305.9 270.9C306 271 306 271.1 306.1 271.2C306.3 271.5 306.5 271.7 306.8 272C306.9 272.1 307 272.2 307.1 272.3C307.3 272.5 307.6 272.7 307.8 272.9C307.9 273 308 273.1 308.1 273.1C308.5 273.4 308.8 273.6 309.2 273.8H309.3C309.7 274 310.1 274.1 310.5 274.3C310.6 274.3 310.6 274.3 310.7 274.4C310.8 274.4 310.9 274.4 310.9 274.5C311.2 274.6 311.5 274.7 311.9 274.7C312 274.7 312.2 274.7 312.3 274.8C312.7 274.9 313.2 274.9 313.6 274.9C314 274.9 314.5 274.9 314.9 274.8C315 274.8 315.2 274.8 315.3 274.7C315.6 274.6 315.9 274.6 316.2 274.5C316.3 274.5 316.4 274.5 316.4 274.4C316.5 274.4 316.5 274.4 316.5 274.3C316.9 274.2 317.3 274 317.7 273.8C317.7 273.8 317.7 273.8 317.8 273.8C318.2 273.6 318.6 273.4 318.9 273.1C319 273 319.1 272.9 319.2 272.9C319.4 272.7 319.7 272.5 319.9 272.3C320 272.2 320.1 272.1 320.2 272C320.4 271.8 320.6 271.5 320.9 271.2C321 271.1 321 271 321.1 270.9C321.1 270.9 321.1 270.9 321.1 270.8L423.1 124.3L350.2 287.2C350.2 287.2 350.2 287.2 350.2 287.3C350.1 287.6 350 287.9 349.9 288.2C349.8 288.4 349.8 288.6 349.7 288.7C349.6 289 349.6 289.2 349.6 289.5C349.6 289.7 349.5 289.9 349.5 290.2C349.5 290.4 349.5 290.6 349.5 290.9C349.5 291.2 349.5 291.4 349.5 291.7C349.5 291.9 349.6 292.1 349.6 292.3C349.6 292.6 349.7 292.9 349.7 293.2C349.7 293.2 349.7 293.2 349.7 293.3C349.7 293.5 349.8 293.6 349.9 293.8C350 294.1 350.1 294.4 350.2 294.6C350.3 294.8 350.4 295 350.5 295.2C350.6 295.4 350.7 295.7 350.9 295.9C351 296.1 351.2 296.3 351.3 296.5C351.4 296.7 351.6 296.9 351.7 297.1C351.9 297.3 352.1 297.5 352.2 297.7C352.3 297.8 352.5 298 352.6 298.2C352.6 298.2 352.6 298.2 352.7 298.3L352.8 298.4C353.1 298.7 353.5 298.9 353.8 299.2L353.9 299.3C354.3 299.5 354.7 299.7 355.1 299.9C355.2 299.9 355.2 300 355.3 300C355.7 300.2 356.1 300.3 356.6 300.4H356.7C357.2 300.5 357.7 300.6 358.2 300.6L536 315.7L358.5 334C358.5 334 358.5 334 358.4 334C358.1 334 357.7 334.1 357.4 334.2C357.3 334.2 357.1 334.2 357 334.3C356.7 334.4 356.4 334.5 356.1 334.6C356 334.7 355.8 334.7 355.7 334.8C355.4 334.9 355.2 335.1 355 335.2C354.8 335.3 354.6 335.4 354.5 335.5C354.3 335.6 354.1 335.8 353.9 335.9C353.7 336.1 353.5 336.2 353.3 336.4C353.3 336.4 353.3 336.4 353.2 336.4C353 336.5 352.9 336.7 352.8 336.9C352.6 337.1 352.4 337.3 352.3 337.5C352.1 337.7 352 337.9 351.9 338.1C351.8 338.3 351.6 338.5 351.5 338.7C351.4 338.9 351.3 339.2 351.2 339.4C351.1 339.6 351 339.8 350.9 340C350.8 340.3 350.7 340.6 350.7 340.8C350.7 341 350.6 341.1 350.5 341.3C350.5 341.3 350.5 341.3 350.5 341.4C350.4 341.7 350.4 342 350.4 342.3C350.4 342.5 350.3 342.7 350.3 342.9C350.3 343.2 350.3 343.4 350.3 343.7C350.3 343.9 350.3 344.1 350.3 344.4C350.3 344.6 350.4 344.8 350.4 345.1C350.5 345.4 350.5 345.6 350.6 345.9C350.7 346.1 350.7 346.3 350.8 346.4C350.9 346.7 351 347 351.1 347.3C351.1 347.3 351.1 347.3 351.1 347.4L427 508.9L322.1 363.9Z" fill="#FFCC00" stroke="black" stroke-width="2" stroke-miterlimit="10" stroke-linecap="round" stroke-linejoin="round"/>
<path d="M219.9 535.7H216.3V516.7H219.9V524.5H220.7L225.7 516.7H229.7V516.9L223.8 526V526.5L230 535.6V535.8H225.8L220.6 528H219.8V535.7H219.9ZM236 530.1C236 530.5 236.1 530.9 236.3 531.2C236.5 531.5 236.7 531.8 237 532.1C237.3 532.3 237.6 532.5 238 532.7C238.4 532.8 238.8 532.9 239.2 532.9C240.1 532.9 240.7 532.8 241.2 532.5C241.7 532.2 242 531.8 242.2 531.4L245.1 533C244.9 533.3 244.7 533.7 244.4 534.1C244.1 534.5 243.7 534.8 243.3 535.1C242.8 535.4 242.3 535.7 241.6 535.9C240.9 536.1 240.2 536.2 239.3 536.2C238.3 536.2 237.4 536 236.5 535.7C235.7 535.4 234.9 534.9 234.3 534.3C233.7 533.7 233.2 532.9 232.9 532C232.6 531.1 232.4 530.1 232.4 529V528.8C232.4 527.8 232.6 526.8 232.9 526C233.3 525.1 233.7 524.4 234.4 523.8C235 523.2 235.7 522.7 236.6 522.4C237.4 522.1 238.3 521.9 239.2 521.9C240.4 521.9 241.4 522.1 242.2 522.5C243 522.9 243.7 523.4 244.3 524C244.8 524.6 245.2 525.3 245.5 526.1C245.8 526.9 245.9 527.6 245.9 528.3V530.1H236ZM239.2 524.9C238.3 524.9 237.6 525.1 237.1 525.6C236.6 526 236.2 526.6 236 527.1H242.4C242.3 526.5 242 525.9 241.4 525.5C240.8 525.2 240.1 524.9 239.2 524.9ZM248.7 522.2H252.4L255.6 534H256.1L259.3 522.2H263L259.1 535.7H252.6L248.7 522.2ZM266.5 532.4H271.1V525.4H266.9V522.1H274.6V532.3H278.5V535.6H266.6V532.4H266.5ZM275.3 518.2C275.3 518.6 275.2 518.9 275.1 519.2C275 519.5 274.8 519.8 274.5 520C274.3 520.2 274 520.4 273.7 520.5C273.4 520.6 273.1 520.7 272.7 520.7C272.3 520.7 272 520.6 271.7 520.5C271.4 520.4 271.1 520.2 270.9 520C270.7 519.8 270.5 519.5 270.3 519.2C270.2 518.9 270.1 518.5 270.1 518.2C270.1 517.8 270.2 517.5 270.3 517.2C270.4 516.9 270.6 516.6 270.9 516.4C271.1 516.2 271.4 516 271.7 515.9C272 515.8 272.3 515.7 272.7 515.7C273 515.7 273.4 515.8 273.7 515.9C274 516 274.3 516.2 274.5 516.4C274.7 516.6 274.9 516.9 275.1 517.2C275.3 517.5 275.3 517.9 275.3 518.2ZM286.3 535.7H282.9V522.2H286.3V524.2H286.8C287.1 523.4 287.6 522.9 288.3 522.4C289 522 289.8 521.8 290.7 521.8C291.4 521.8 292 521.9 292.5 522.1C293.1 522.3 293.6 522.6 294 523.1C294.4 523.5 294.8 524.1 295 524.8C295.2 525.5 295.4 526.3 295.4 527.2V535.7H292V528C292 527 291.8 526.3 291.3 525.7C290.8 525.1 290.2 524.9 289.3 524.9C288.3 524.9 287.5 525.2 287 525.9C286.5 526.6 286.3 527.5 286.3 528.6V535.7ZM315.3 524.1C315.3 521.6 315.9 519.7 317.2 518.4C318.4 517 320.2 516.4 322.3 516.4C324.5 516.4 326.2 517.1 327.4 518.4C328.6 519.8 329.3 521.7 329.3 524.1V528.3C329.3 530.8 328.7 532.8 327.4 534.1C326.2 535.4 324.4 536.1 322.3 536.1C320.1 536.1 318.4 535.4 317.2 534.1C316 532.8 315.3 530.8 315.3 528.3V524.1ZM322.3 532.8C323 532.8 323.5 532.7 323.9 532.5C324.3 532.3 324.7 532 325 531.6C325.3 531.2 325.5 530.8 325.6 530.2C325.7 529.7 325.8 529.1 325.8 528.5V523.8C325.8 523.2 325.7 522.6 325.6 522.1C325.5 521.6 325.3 521.1 325 520.7C324.7 520.3 324.4 520 323.9 519.8C323.5 519.6 322.9 519.5 322.3 519.5C321.7 519.5 321.2 519.6 320.7 519.8C320.3 520 319.9 520.3 319.6 520.7C319.3 521.1 319.1 521.5 319 522.1C318.9 522.6 318.8 523.2 318.8 523.8V528.5C318.8 529.1 318.9 529.7 319 530.2C319.1 530.7 319.3 531.2 319.6 531.6C319.9 532 320.2 532.3 320.7 532.5C321.1 532.7 321.7 532.8 322.3 532.8ZM345.9 535.7H340L339.2 525.5V523.9H338.5V525.5L337.7 535.7H331.8L330.9 522.2H334.1L334.7 532.4V534H335.4V532.4L336.1 522.2H341.7L342.4 532.4V534H343.1V532.4L343.7 522.2H346.9L345.9 535.7ZM362.6 529.1C362.6 530.2 362.4 531.2 362 532.1C361.6 533 361.1 533.7 360.5 534.3C359.8 534.9 359.1 535.3 358.3 535.6C357.5 535.9 356.6 536.1 355.7 536.1C354.8 536.1 353.9 535.9 353.1 535.6C352.3 535.3 351.5 534.8 350.9 534.3C350.2 533.7 349.7 533 349.4 532.1C349 531.2 348.8 530.2 348.8 529.1V528.8C348.8 527.7 349 526.7 349.4 525.9C349.8 525 350.3 524.3 350.9 523.7C351.6 523.1 352.3 522.7 353.1 522.3C353.9 522 354.8 521.8 355.7 521.8C356.6 521.8 357.5 522 358.3 522.3C359.1 522.6 359.9 523.1 360.5 523.7C361.2 524.3 361.7 525 362 525.9C362.4 526.8 362.6 527.7 362.6 528.8V529.1ZM355.6 532.8C356.1 532.8 356.6 532.7 357 532.6C357.4 532.4 357.8 532.2 358.1 531.9C358.4 531.6 358.7 531.2 358.9 530.8C359.1 530.4 359.2 529.9 359.2 529.3V528.8C359.2 528.2 359.1 527.7 358.9 527.3C358.7 526.9 358.5 526.5 358.1 526.2C357.8 525.9 357.4 525.7 357 525.5C356.6 525.3 356.1 525.3 355.6 525.3C355.1 525.3 354.6 525.4 354.2 525.5C353.8 525.7 353.4 525.9 353.1 526.2C352.8 526.5 352.5 526.9 352.3 527.3C352.1 527.7 352 528.2 352 528.8V529.3C352 529.9 352.1 530.4 352.3 530.8C352.5 531.2 352.7 531.6 353.1 531.9C353.4 532.2 353.8 532.4 354.2 532.6C354.6 532.7 355.1 532.8 355.6 532.8ZM379.1 530.8C378.8 532.4 378.1 533.7 376.9 534.7C375.7 535.7 374.2 536.2 372.3 536.2C371.3 536.2 370.4 536 369.5 535.7C368.6 535.4 367.9 534.9 367.3 534.4C366.7 533.8 366.2 533.1 365.8 532.3C365.4 531.4 365.3 530.5 365.3 529.4V529.1C365.3 528 365.5 527 365.8 526.2C366.2 525.3 366.7 524.6 367.3 524C367.9 523.4 368.7 522.9 369.6 522.6C370.5 522.3 371.4 522.1 372.4 522.1C374.3 522.1 375.8 522.6 377 523.6C378.2 524.6 378.9 525.9 379.2 527.5L375.8 528.4C375.7 527.6 375.3 526.9 374.8 526.3C374.2 525.7 373.4 525.4 372.4 525.4C371.9 525.4 371.4 525.5 371 525.7C370.6 525.9 370.2 526.1 369.9 526.5C369.6 526.8 369.3 527.2 369.1 527.7C368.9 528.2 368.8 528.7 368.8 529.3V529.5C368.8 530.1 368.9 530.6 369.1 531.1C369.3 531.6 369.5 531.9 369.9 532.3C370.2 532.6 370.6 532.8 371 533C371.4 533.2 371.9 533.2 372.4 533.2C373.4 533.2 374.3 532.9 374.8 532.4C375.4 531.9 375.7 531.2 375.9 530.3L379.1 530.8ZM387.1 527.2H387.8L391.4 522.3H395.1V522.5L390.8 528.7V529.2L395.6 535.7V535.9H391.7L387.8 530.6H387.1V535.9H383.7V516.9H387.1V527.2ZM399.5 532.4H404.1V525.4H399.9V522.1H407.6V532.3H411.5V535.6H399.6V532.4H399.5ZM408.3 518.2C408.3 518.6 408.2 518.9 408.1 519.2C408 519.5 407.8 519.8 407.5 520C407.3 520.2 407 520.4 406.7 520.5C406.4 520.6 406.1 520.7 405.7 520.7C405.3 520.7 405 520.6 404.7 520.5C404.4 520.4 404.1 520.2 403.9 520C403.7 519.8 403.5 519.5 403.3 519.2C403.2 518.9 403.1 518.5 403.1 518.2C403.1 517.8 403.2 517.5 403.3 517.2C403.4 516.9 403.6 516.6 403.9 516.4C404.1 516.2 404.4 516 404.7 515.9C405 515.8 405.3 515.7 405.7 515.7C406 515.7 406.4 515.8 406.7 515.9C407 516 407.3 516.2 407.5 516.4C407.7 516.6 407.9 516.9 408.1 517.2C408.2 517.5 408.3 517.9 408.3 518.2ZM109 112.2H105.6V106.8C105.6 106.4 105.5 106.1 105.3 105.8C105.1 105.5 104.7 105.4 104.2 105.4H100.3V112.1H97V94.4H103.9C104.8 94.4 105.6 94.5 106.3 94.8C107 95.1 107.6 95.4 108.1 95.9C108.6 96.4 108.9 96.9 109.2 97.5001C109.4 98.1 109.6 98.7001 109.6 99.4001V100C109.6 100.7 109.4 101.4 109 102.1C108.6 102.7 108 103.2 107.2 103.6V104.1C107.8 104.2 108.3 104.4 108.6 104.8C108.9 105.2 109.1 105.7 109.1 106.3V112.2H109ZM100.3 102.3H103.5C104.3 102.3 104.9 102.1 105.4 101.7C105.8 101.3 106 100.8 106 100.1V99.8C106 99.2 105.8 98.7 105.4 98.3C105 97.9 104.4 97.6 103.5 97.6H100.3V102.3ZM115.6 107C115.6 107.4 115.7 107.7 115.9 108C116.1 108.3 116.3 108.6 116.6 108.8C116.9 109 117.2 109.2 117.6 109.3C118 109.4 118.4 109.5 118.8 109.5C119.6 109.5 120.2 109.4 120.6 109.1C121 108.8 121.3 108.5 121.5 108.1L124.3 109.6C124.1 109.9 123.9 110.3 123.7 110.6C123.4 110.9 123.1 111.3 122.6 111.6C122.2 111.9 121.6 112.1 121 112.3C120.4 112.5 119.6 112.6 118.8 112.6C117.8 112.6 117 112.4 116.2 112.1C115.4 111.8 114.7 111.4 114.2 110.8C113.6 110.2 113.2 109.5 112.9 108.7C112.6 107.9 112.4 106.9 112.4 105.9V105.7C112.4 104.7 112.6 103.8 112.9 103C113.2 102.2 113.7 101.5 114.3 101C114.9 100.4 115.6 100 116.3 99.7001C117.1 99.4001 117.9 99.2001 118.8 99.2001C119.9 99.2001 120.8 99.4 121.6 99.8C122.4 100.2 123 100.7 123.5 101.3C124 101.9 124.4 102.5 124.6 103.2C124.8 103.9 125 104.6 125 105.3V107H115.6ZM118.6 102.1C117.8 102.1 117.1 102.3 116.6 102.7C116.1 103.1 115.8 103.6 115.6 104.1H121.6C121.5 103.5 121.2 103 120.6 102.6C120.1 102.3 119.4 102.1 118.6 102.1ZM137.4 110.4H137C136.9 110.7 136.7 111 136.5 111.2C136.3 111.5 136 111.7 135.7 111.9C135.4 112.1 135 112.3 134.6 112.4C134.2 112.5 133.6 112.6 133 112.6C132.2 112.6 131.5 112.5 130.8 112.2C130.1 111.9 129.5 111.5 129 110.9C128.5 110.3 128.1 109.7 127.8 108.9C127.5 108.1 127.4 107.2 127.4 106.1V105.6C127.4 104.6 127.5 103.7 127.8 102.9C128.1 102.1 128.5 101.4 129 100.9C129.5 100.3 130.1 99.9 130.8 99.6C131.5 99.3 132.2 99.2001 133 99.2001C134 99.2001 134.8 99.4 135.4 99.8C136 100.2 136.5 100.7 136.8 101.4H137.3V99.6H140.5V115.4C140.5 116 140.3 116.5 140 116.8C139.6 117.2 139.2 117.4 138.6 117.4H130.1V114.3H136.7C137.2 114.3 137.4 114 137.4 113.5V110.4ZM134 109.5C135 109.5 135.8 109.2 136.4 108.5C137 107.9 137.3 107 137.3 106V105.7C137.3 104.7 137 103.8 136.4 103.2C135.8 102.6 135 102.2 134 102.2C133 102.2 132.2 102.5 131.6 103.1C131 103.7 130.7 104.6 130.7 105.6V105.9C130.7 107 131 107.8 131.6 108.4C132.2 109.2 133 109.5 134 109.5ZM146.9 107C146.9 107.4 147 107.7 147.2 108C147.4 108.3 147.6 108.6 147.9 108.8C148.2 109 148.5 109.2 148.9 109.3C149.3 109.4 149.7 109.5 150.1 109.5C150.9 109.5 151.5 109.4 151.9 109.1C152.3 108.8 152.6 108.5 152.8 108.1L155.6 109.6C155.4 109.9 155.2 110.3 155 110.6C154.7 110.9 154.4 111.3 153.9 111.6C153.5 111.9 152.9 112.1 152.3 112.3C151.7 112.5 150.9 112.6 150.1 112.6C149.1 112.6 148.3 112.4 147.5 112.1C146.7 111.8 146 111.4 145.5 110.8C144.9 110.2 144.5 109.5 144.2 108.7C143.9 107.9 143.7 106.9 143.7 105.9V105.7C143.7 104.7 143.9 103.8 144.2 103C144.5 102.2 145 101.5 145.6 101C146.2 100.4 146.9 100 147.6 99.7001C148.4 99.4001 149.2 99.2001 150.1 99.2001C151.2 99.2001 152.1 99.4 152.9 99.8C153.7 100.2 154.3 100.7 154.8 101.3C155.3 101.9 155.7 102.5 155.9 103.2C156.1 103.9 156.3 104.6 156.3 105.3V107H146.9ZM149.9 102.1C149.1 102.1 148.4 102.3 147.9 102.7C147.4 103.1 147.1 103.6 146.9 104.1H152.9C152.8 103.5 152.5 103 151.9 102.6C151.4 102.3 150.7 102.1 149.9 102.1ZM162.9 112.2H159.7V99.6H162.9V101.5H163.4C163.7 100.8 164.2 100.2 164.8 99.8C165.4 99.4 166.2 99.2001 167.1 99.2001C167.7 99.2001 168.3 99.3001 168.8 99.5001C169.3 99.7001 169.8 100 170.2 100.4C170.6 100.8 170.9 101.3 171.2 102C171.4 102.6 171.5 103.4 171.5 104.2V112.2H168.3V105C168.3 104.1 168.1 103.4 167.6 102.9C167.2 102.4 166.5 102.1 165.7 102.1C164.7 102.1 164 102.4 163.6 103.1C163.1 103.7 162.9 104.6 162.9 105.7V112.2ZM178.1 107C178.1 107.4 178.2 107.7 178.4 108C178.6 108.3 178.8 108.6 179.1 108.8C179.4 109 179.7 109.2 180.1 109.3C180.5 109.4 180.9 109.5 181.3 109.5C182.1 109.5 182.7 109.4 183.1 109.1C183.5 108.8 183.8 108.5 184 108.1L186.8 109.6C186.6 109.9 186.4 110.3 186.2 110.6C185.9 110.9 185.6 111.3 185.1 111.6C184.7 111.9 184.1 112.1 183.5 112.3C182.9 112.5 182.1 112.6 181.3 112.6C180.3 112.6 179.5 112.4 178.7 112.1C177.9 111.8 177.2 111.4 176.7 110.8C176.1 110.2 175.7 109.5 175.4 108.7C175.1 107.9 174.9 106.9 174.9 105.9V105.7C174.9 104.7 175.1 103.8 175.4 103C175.7 102.2 176.2 101.5 176.8 101C177.4 100.4 178.1 100 178.8 99.7001C179.6 99.4001 180.4 99.2001 181.3 99.2001C182.4 99.2001 183.3 99.4 184.1 99.8C184.9 100.2 185.5 100.7 186 101.3C186.5 101.9 186.9 102.5 187.1 103.2C187.3 103.9 187.5 104.6 187.5 105.3V107H178.1ZM181.2 102.1C180.4 102.1 179.7 102.3 179.2 102.7C178.7 103.1 178.4 103.6 178.2 104.1H184.2C184.1 103.5 183.8 103 183.2 102.6C182.7 102.3 182 102.1 181.2 102.1ZM190.3 99.6H195.7V101.4H196.2C196.4 100.7 196.8 100.2 197.4 99.8C198 99.4 198.7 99.2001 199.5 99.2001C200.8 99.2001 201.8 99.6001 202.5 100.4C203.3 101.2 203.7 102.4 203.7 104V104.6L200.4 104.9V104.5C200.4 103.8 200.2 103.2 199.9 102.8C199.5 102.4 199 102.2 198.3 102.2C197.6 102.2 197 102.4 196.6 102.9C196.2 103.4 196 104.1 196 105V109.1H198.9V112.2H190V109.1H192.6V102.6H190.3V99.6ZM214.8 110.4C214.5 111.2 214 111.8 213.4 112.1C212.8 112.4 212.1 112.6 211.3 112.6C210.5 112.6 209.8 112.5 209.1 112.2C208.4 111.9 207.8 111.5 207.3 110.9C206.8 110.3 206.4 109.7 206.1 108.9C205.8 108.1 205.7 107.2 205.7 106.2V105.8C205.7 104.8 205.8 103.9 206.1 103.1C206.4 102.3 206.8 101.6 207.3 101.1C207.8 100.5 208.4 100.1 209 99.8C209.7 99.5 210.4 99.4001 211.1 99.4001C212 99.4001 212.7 99.6001 213.3 99.9001C213.9 100.2 214.3 100.7 214.6 101.3H215.1V99.8H218.3V108.6C218.3 109.1 218.5 109.4 219 109.4H219.5V112.5H217.3C216.7 112.5 216.2 112.3 215.9 112C215.5 111.7 215.4 111.2 215.4 110.7H214.8V110.4ZM211.9 109.5C212.8 109.5 213.6 109.2 214.1 108.6C214.7 108 214.9 107.1 214.9 106.1V105.8C214.9 104.7 214.6 103.9 214.1 103.3C213.5 102.7 212.8 102.4 211.9 102.4C211 102.4 210.2 102.7 209.7 103.3C209.1 103.9 208.9 104.8 208.9 105.8V106.1C208.9 107.2 209.2 108 209.7 108.6C210.3 109.2 211 109.5 211.9 109.5ZM221.9 99.6H225.7V94.4H228.9V99.6H233.5V102.7H228.9V108.5C228.9 109 229.1 109.3 229.6 109.3H233V112.4H227.6C227 112.4 226.5 112.2 226.2 111.8C225.8 111.4 225.7 110.9 225.7 110.4V102.8H221.9V99.6ZM238.1 109.2H242.4V102.7H238.4V99.6H245.6V109.2H249.3V112.3H238.1V109.2ZM246.4 95.8C246.4 96.1 246.3 96.5 246.2 96.8C246.1 97.1 245.9 97.4 245.7 97.6C245.5 97.8 245.2 98 244.9 98.1C244.6 98.2 244.3 98.3 244 98.3C243.7 98.3 243.3 98.2 243.1 98.1C242.8 98 242.6 97.8 242.3 97.6C242.1 97.4 241.9 97.1 241.8 96.8C241.7 96.5 241.6 96.2 241.6 95.8C241.6 95.5 241.7 95.1 241.8 94.8C241.9 94.5 242.1 94.2 242.3 94C242.5 93.8 242.8 93.6 243.1 93.5C243.4 93.4 243.7 93.3 244 93.3C244.3 93.3 244.6 93.4 244.9 93.5C245.2 93.6 245.5 93.8 245.7 94C245.9 94.2 246.1 94.5 246.2 94.8C246.4 95.2 246.4 95.5 246.4 95.8ZM252.6 99.6H256.1L259.1 110.7H259.6L262.6 99.6H266.1L262.5 112.3H256.4L252.6 99.6ZM272 107C272 107.4 272.1 107.7 272.3 108C272.5 108.3 272.7 108.6 273 108.8C273.3 109 273.6 109.2 274 109.3C274.4 109.4 274.8 109.5 275.2 109.5C276 109.5 276.6 109.4 277 109.1C277.4 108.8 277.7 108.5 277.9 108.1L280.7 109.6C280.5 109.9 280.3 110.3 280.1 110.6C279.8 110.9 279.5 111.3 279 111.6C278.6 111.9 278 112.1 277.4 112.3C276.8 112.5 276 112.6 275.2 112.6C274.2 112.6 273.4 112.4 272.6 112.1C271.8 111.8 271.1 111.4 270.6 110.8C270 110.2 269.6 109.5 269.3 108.7C269 107.9 268.8 106.9 268.8 105.9V105.7C268.8 104.7 269 103.8 269.3 103C269.6 102.2 270.1 101.5 270.7 101C271.3 100.4 272 100 272.7 99.7001C273.5 99.4001 274.3 99.2001 275.2 99.2001C276.3 99.2001 277.2 99.4 278 99.8C278.8 100.2 279.4 100.7 279.9 101.3C280.4 101.9 280.8 102.5 281 103.2C281.2 103.9 281.4 104.6 281.4 105.3V107H272ZM275.1 102.1C274.3 102.1 273.6 102.3 273.1 102.7C272.6 103.1 272.3 103.6 272.1 104.1H278.1C278 103.5 277.7 103 277.1 102.6C276.6 102.3 275.9 102.1 275.1 102.1ZM306.4 109.5C307 109.5 307.6 109.4 308 109.2C308.4 109 308.7 108.7 309 108.4C309.2 108.1 309.4 107.7 309.5 107.2C309.6 106.8 309.6 106.3 309.6 105.9V105.4H313V106C313 108.1 312.4 109.8 311.3 110.9C310.2 112.1 308.6 112.6 306.4 112.6C304.4 112.6 302.7 112 301.5 110.7C300.3 109.5 299.7 107.6 299.7 105.3V101.3C299.7 100.2 299.9 99.1001 300.2 98.2001C300.5 97.3001 300.9 96.5 301.5 95.9C302.1 95.3 302.8 94.8 303.6 94.5C304.4 94.2 305.3 94 306.4 94C307.5 94 308.4 94.2 309.2 94.5C310 94.8 310.7 95.3 311.3 95.8C311.9 96.4 312.3 97.1001 312.6 97.9001C312.9 98.7001 313 99.6001 313 100.7V101.2H309.6V100.7C309.6 100.3 309.5 99.8001 309.4 99.4001C309.3 99.0001 309.1 98.6001 308.9 98.2001C308.7 97.9001 308.3 97.6001 307.9 97.4001C307.5 97.2001 307 97.1 306.4 97.1C305.8 97.1 305.4 97.2001 304.9 97.4001C304.5 97.6001 304.1 97.9 303.9 98.3C303.6 98.7 303.4 99.1 303.3 99.6C303.2 100.1 303.1 100.6 303.1 101.1V105.6C303.1 106.2 303.2 106.7 303.3 107.2C303.4 107.7 303.6 108.1 303.9 108.5C304.2 108.9 304.5 109.1 304.9 109.3C305.3 109.4 305.8 109.5 306.4 109.5ZM315.5 99.6H320.9V101.4H321.4C321.6 100.7 322 100.2 322.6 99.8C323.2 99.4 323.9 99.2001 324.7 99.2001C326 99.2001 327 99.6001 327.7 100.4C328.5 101.2 328.9 102.4 328.9 104V104.6L325.6 104.9V104.5C325.6 103.8 325.4 103.2 325.1 102.8C324.7 102.4 324.2 102.2 323.5 102.2C322.8 102.2 322.2 102.4 321.8 102.9C321.4 103.4 321.2 104.1 321.2 105V109.1H324.1V112.2H315.4V109.1H318V102.6H315.7V99.6H315.5ZM340.4 99.6H343.6V115.4C343.6 116 343.4 116.5 343.1 116.8C342.7 117.2 342.3 117.4 341.7 117.4H334.2V114.3H339.8C340.3 114.3 340.5 114 340.5 113.5V110.4H340C339.4 111.9 338.2 112.6 336.4 112.6C335.8 112.6 335.2 112.5 334.6 112.3C334.1 112.1 333.6 111.8 333.2 111.4C332.8 111 332.5 110.4 332.2 109.8C332 109.2 331.9 108.4 331.9 107.5V99.6H335.1V106.9C335.1 107.8 335.3 108.5 335.7 109C336.1 109.5 336.8 109.8 337.6 109.8C338.6 109.8 339.3 109.5 339.7 108.9C340.2 108.3 340.4 107.4 340.4 106.4V99.6ZM350 117.4H346.8V99.6H350V101.4H350.5C350.8 100.7 351.3 100.2 352 99.8C352.6 99.4 353.5 99.2001 354.5 99.2001C355.2 99.2001 356 99.3 356.6 99.6C357.3 99.9 357.9 100.3 358.4 100.9C358.9 101.5 359.3 102.1 359.6 102.9C359.9 103.7 360 104.6 360 105.6V106.1C360 107.1 359.9 108.1 359.6 108.9C359.3 109.7 358.9 110.4 358.4 110.9C357.9 111.5 357.3 111.9 356.6 112.2C355.9 112.5 355.2 112.6 354.4 112.6C353.8 112.6 353.3 112.5 352.9 112.4C352.5 112.3 352.1 112.1 351.8 111.9C351.5 111.7 351.2 111.5 351 111.2C350.8 110.9 350.6 110.7 350.5 110.4H350V117.4ZM353.3 109.5C354.3 109.5 355.1 109.2 355.7 108.6C356.3 108 356.6 107.1 356.6 106.1V105.8C356.6 104.7 356.3 103.9 355.7 103.3C355.1 102.7 354.3 102.4 353.3 102.4C352.3 102.4 351.5 102.7 350.9 103.4C350.3 104 350 104.9 350 105.9V106.2C350 107.2 350.3 108.1 350.9 108.7C351.5 109.2 352.3 109.5 353.3 109.5ZM362.7 99.6H366.5V94.4H369.7V99.6H374.3V102.7H369.7V108.5C369.7 109 369.9 109.3 370.4 109.3H373.8V112.4H368.4C367.8 112.4 367.3 112.2 367 111.8C366.6 111.4 366.5 110.9 366.5 110.4V102.8H362.7V99.6ZM391.1 106.1C391.1 107.2 390.9 108.1 390.6 108.9C390.2 109.7 389.8 110.4 389.1 110.9C388.5 111.5 387.8 111.9 387 112.2C386.2 112.5 385.4 112.6 384.5 112.6C383.6 112.6 382.8 112.5 382 112.2C381.2 111.9 380.5 111.5 379.9 110.9C379.3 110.3 378.8 109.7 378.4 108.9C378 108.1 377.9 107.2 377.9 106.1V105.8C377.9 104.8 378.1 103.8 378.4 103C378.8 102.2 379.2 101.5 379.9 100.9C380.5 100.3 381.2 99.9 382 99.6C382.8 99.3 383.6 99.2001 384.5 99.2001C385.4 99.2001 386.2 99.3 387 99.6C387.8 99.9 388.5 100.3 389.1 100.9C389.7 101.5 390.2 102.1 390.6 103C391 103.8 391.1 104.7 391.1 105.8V106.1ZM384.5 109.5C385 109.5 385.4 109.4 385.8 109.3C386.2 109.2 386.6 108.9 386.9 108.6C387.2 108.3 387.4 108 387.6 107.5C387.8 107.1 387.9 106.6 387.9 106.1V105.6C387.9 105.1 387.8 104.6 387.6 104.2C387.4 103.8 387.2 103.4 386.9 103.1C386.6 102.8 386.2 102.6 385.8 102.4C385.4 102.2 385 102.2 384.5 102.2C384 102.2 383.6 102.3 383.2 102.4C382.8 102.6 382.4 102.8 382.1 103.1C381.8 103.4 381.6 103.7 381.4 104.2C381.2 104.6 381.1 105.1 381.1 105.6V106.1C381.1 106.6 381.2 107.1 381.4 107.5C381.6 107.9 381.8 108.3 382.1 108.6C382.4 108.9 382.8 109.1 383.2 109.3C383.6 109.5 384.1 109.5 384.5 109.5ZM394.5 94.4H405.8V97.6H397.9V101.7H405.5V104.9H397.9V109H406.1V112.2H394.5V94.4ZM422.4 107.6C422.1 109.1 421.4 110.3 420.3 111.2C419.2 112.1 417.8 112.6 416 112.6C415.1 112.6 414.2 112.5 413.4 112.2C412.6 111.9 411.9 111.5 411.3 110.9C410.7 110.4 410.2 109.7 409.9 108.9C409.6 108.1 409.4 107.2 409.4 106.2V105.9C409.4 104.9 409.6 104 409.9 103.1C410.2 102.3 410.7 101.6 411.3 101C411.9 100.4 412.6 100 413.4 99.7001C414.2 99.4001 415.1 99.2001 416 99.2001C417.8 99.2001 419.2 99.7 420.3 100.6C421.4 101.5 422.1 102.7 422.4 104.2L419.2 105C419.1 104.3 418.8 103.6 418.2 103.1C417.7 102.6 416.9 102.3 415.9 102.3C415.4 102.3 415 102.4 414.6 102.6C414.2 102.8 413.8 103 413.5 103.3C413.2 103.6 413 104 412.8 104.5C412.6 105 412.5 105.5 412.5 106V106.2C412.5 106.8 412.6 107.3 412.8 107.7C413 108.1 413.2 108.5 413.5 108.8C413.8 109.1 414.2 109.3 414.6 109.5C415 109.6 415.4 109.7 415.9 109.7C416.9 109.7 417.6 109.5 418.2 109C418.7 108.5 419.1 107.8 419.2 107L422.4 107.6ZM438.1 106.1C438.1 107.2 437.9 108.1 437.6 108.9C437.2 109.7 436.8 110.4 436.1 110.9C435.5 111.5 434.8 111.9 434 112.2C433.2 112.5 432.4 112.6 431.5 112.6C430.6 112.6 429.8 112.5 429 112.2C428.2 111.9 427.5 111.5 426.9 110.9C426.3 110.3 425.8 109.7 425.4 108.9C425 108.1 424.9 107.2 424.9 106.1V105.8C424.9 104.8 425.1 103.8 425.4 103C425.8 102.2 426.2 101.5 426.9 100.9C427.5 100.3 428.2 99.9 429 99.6C429.8 99.3 430.6 99.2001 431.5 99.2001C432.4 99.2001 433.2 99.3 434 99.6C434.8 99.9 435.5 100.3 436.1 100.9C436.7 101.5 437.2 102.1 437.6 103C438 103.8 438.1 104.7 438.1 105.8V106.1ZM431.5 109.5C432 109.5 432.4 109.4 432.8 109.3C433.2 109.1 433.6 108.9 433.9 108.6C434.2 108.3 434.4 108 434.6 107.5C434.8 107.1 434.9 106.6 434.9 106.1V105.6C434.9 105.1 434.8 104.6 434.6 104.2C434.4 103.8 434.2 103.4 433.9 103.1C433.6 102.8 433.2 102.6 432.8 102.4C432.4 102.2 432 102.2 431.5 102.2C431 102.2 430.6 102.3 430.2 102.4C429.8 102.6 429.4 102.8 429.1 103.1C428.8 103.4 428.6 103.7 428.4 104.2C428.2 104.6 428.1 105.1 428.1 105.6V106.1C428.1 106.6 428.2 107.1 428.4 107.5C428.6 107.9 428.8 108.3 429.1 108.6C429.4 108.9 429.8 109.1 430.2 109.3C430.6 109.5 431 109.5 431.5 109.5ZM444.5 112.2H441.3V99.6H444.5V101.5H445C445.3 100.8 445.8 100.2 446.4 99.8C447 99.4 447.8 99.2001 448.7 99.2001C449.3 99.2001 449.9 99.3001 450.4 99.5001C450.9 99.7001 451.4 100 451.8 100.4C452.2 100.8 452.5 101.3 452.8 102C453 102.6 453.1 103.4 453.1 104.2V112.2H449.9V105C449.9 104.1 449.7 103.4 449.2 102.9C448.8 102.4 448.1 102.1 447.3 102.1C446.3 102.1 445.6 102.4 445.2 103.1C444.7 103.7 444.5 104.6 444.5 105.7V112.2ZM469.4 106.1C469.4 107.2 469.2 108.1 468.9 108.9C468.5 109.7 468.1 110.4 467.4 110.9C466.8 111.5 466.1 111.9 465.3 112.2C464.5 112.5 463.7 112.6 462.8 112.6C461.9 112.6 461.1 112.5 460.3 112.2C459.5 111.9 458.8 111.5 458.2 110.9C457.6 110.3 457.1 109.7 456.7 108.9C456.3 108.1 456.2 107.2 456.2 106.1V105.8C456.2 104.8 456.4 103.8 456.7 103C457.1 102.2 457.5 101.5 458.2 100.9C458.8 100.3 459.5 99.9 460.3 99.6C461.1 99.3 461.9 99.2001 462.8 99.2001C463.7 99.2001 464.5 99.3 465.3 99.6C466.1 99.9 466.8 100.3 467.4 100.9C468 101.5 468.5 102.1 468.9 103C469.3 103.8 469.4 104.7 469.4 105.8V106.1ZM462.8 109.5C463.3 109.5 463.7 109.4 464.1 109.3C464.5 109.2 464.9 108.9 465.2 108.6C465.5 108.3 465.7 108 465.9 107.5C466.1 107.1 466.2 106.6 466.2 106.1V105.6C466.2 105.1 466.1 104.6 465.9 104.2C465.7 103.8 465.5 103.4 465.2 103.1C464.9 102.8 464.5 102.6 464.1 102.4C463.7 102.2 463.3 102.2 462.8 102.2C462.3 102.2 461.9 102.3 461.5 102.4C461.1 102.6 460.7 102.8 460.4 103.1C460.1 103.4 459.9 103.7 459.7 104.2C459.5 104.6 459.4 105.1 459.4 105.6V106.1C459.4 106.6 459.5 107.1 459.7 107.5C459.9 107.9 460.1 108.3 460.4 108.6C460.7 108.9 461.1 109.1 461.5 109.3C461.9 109.5 462.3 109.5 462.8 109.5ZM485.3 112.2H482.1V103.3C482.1 102.9 482 102.7 481.8 102.5C481.6 102.3 481.4 102.2 481.1 102.2C480.8 102.2 480.5 102.3 480.3 102.5C480.1 102.7 480 103 480 103.4V112.1H476.8V103.2C476.8 102.8 476.7 102.6 476.5 102.4C476.3 102.2 476.1 102.1 475.8 102.1C475.5 102.1 475.2 102.2 475 102.4C474.8 102.6 474.7 102.9 474.7 103.3V112H471.5V99.6H474.7V100.8H475.2C475.3 100.3 475.5 100 475.9 99.7001C476.3 99.4001 476.7 99.3 477.3 99.3C477.9 99.3 478.3 99.4001 478.7 99.7001C479.1 100 479.4 100.4 479.5 100.8H480C480.1 100.3 480.4 100 480.9 99.7001C481.3 99.4001 481.9 99.3 482.5 99.3C483.4 99.3 484 99.6001 484.5 100.2C485 100.8 485.3 101.6 485.3 102.6V112.2ZM488.5 109.2H492.8V102.7H488.8V99.6H496V109.2H499.7V112.3H488.5V109.2ZM496.8 95.8C496.8 96.1 496.7 96.5 496.6 96.8C496.5 97.1 496.3 97.4 496.1 97.6C495.9 97.8 495.6 98 495.3 98.1C495 98.2 494.7 98.3 494.4 98.3C494.1 98.3 493.7 98.2 493.5 98.1C493.2 98 493 97.8 492.7 97.6C492.5 97.4 492.3 97.1 492.2 96.8C492.1 96.5 492 96.2 492 95.8C492 95.5 492.1 95.1 492.2 94.8C492.3 94.5 492.5 94.2 492.7 94C492.9 93.8 493.2 93.6 493.5 93.5C493.8 93.4 494.1 93.3 494.4 93.3C494.7 93.3 495 93.4 495.3 93.5C495.6 93.6 495.9 93.8 496.1 94C496.3 94.2 496.5 94.5 496.6 94.8C496.7 95.2 496.8 95.5 496.8 95.8ZM516.2 107.6C515.9 109.1 515.2 110.3 514.1 111.2C513 112.1 511.6 112.6 509.8 112.6C508.9 112.6 508 112.5 507.2 112.2C506.4 111.9 505.7 111.5 505.1 110.9C504.5 110.4 504 109.7 503.7 108.9C503.4 108.1 503.2 107.2 503.2 106.2V105.9C503.2 104.9 503.4 104 503.7 103.1C504 102.3 504.5 101.6 505.1 101C505.7 100.4 506.4 100 507.2 99.7001C508 99.4001 508.9 99.2001 509.8 99.2001C511.6 99.2001 513 99.7 514.1 100.6C515.2 101.5 515.9 102.7 516.2 104.2L513 105C512.9 104.3 512.6 103.6 512 103.1C511.5 102.6 510.7 102.3 509.7 102.3C509.2 102.3 508.8 102.4 508.4 102.6C508 102.8 507.6 103 507.3 103.3C507 103.6 506.8 104 506.6 104.5C506.4 105 506.3 105.5 506.3 106V106.2C506.3 106.8 506.4 107.3 506.6 107.7C506.8 108.1 507 108.5 507.3 108.8C507.6 109.1 508 109.3 508.4 109.5C508.8 109.6 509.2 109.7 509.7 109.7C510.7 109.7 511.4 109.5 512 109C512.5 108.5 512.9 107.8 513 107L516.2 107.6ZM523.6 103.1C523.6 103.5 523.8 103.8 524.2 104C524.6 104.2 525.4 104.3 526.5 104.4C527.8 104.5 528.9 104.9 529.7 105.6C530.5 106.2 530.9 107.1 530.9 108.3V108.5C530.9 109.8 530.4 110.8 529.5 111.5C528.6 112.3 527.3 112.6 525.6 112.6C524.6 112.6 523.8 112.5 523.1 112.2C522.4 111.9 521.8 111.6 521.4 111.2C520.9 110.8 520.6 110.4 520.3 109.9C520.1 109.4 519.9 109 519.8 108.5L522.8 107.5C522.9 108 523.2 108.5 523.7 108.9C524.1 109.3 524.8 109.5 525.7 109.5C526.5 109.5 527.1 109.4 527.3 109.1C527.6 108.9 527.7 108.6 527.7 108.3C527.7 108.1 527.7 108 527.6 107.8C527.5 107.7 527.4 107.5 527.2 107.4C527 107.3 526.7 107.2 526.4 107.1C526.1 107 525.6 106.9 525.1 106.9C523.7 106.8 522.5 106.4 521.7 105.8C520.9 105.2 520.4 104.3 520.4 103.1V102.9C520.4 102.3 520.5 101.7 520.8 101.2C521.1 100.7 521.4 100.3 521.9 100C522.3 99.7001 522.9 99.4001 523.4 99.2001C524 99.0001 524.6 98.9001 525.2 98.9001C526 98.9001 526.7 99.0001 527.3 99.2001C527.9 99.4001 528.4 99.7001 528.8 100C529.2 100.3 529.5 100.7 529.8 101C530.1 101.4 530.3 101.8 530.4 102.1L527.5 103.3C527.3 102.8 527.1 102.5 526.7 102.2C526.3 101.9 525.8 101.8 525.2 101.8C524.7 101.8 524.2 101.9 524 102.1C523.7 102.6 523.6 102.9 523.6 103.1Z" fill="black"/>
<path d="M365.1 311.7C377.1 300.3 377.7 281.4 366.4 269.3C355 257.3 336.1 256.7 324 268L293.5 296.8L334.6 340.4L365.1 311.7Z" fill="#02E2AC" stroke="black" stroke-width="2" stroke-miterlimit="10" stroke-linecap="round" stroke-linejoin="round"/>
<path d="M293.4 296.9L262.9 325.7C250.9 337.1 250.3 356 261.6 368.1C273 380.1 291.9 380.7 304 369.4L334.5 340.6L293.4 296.9Z" fill="#5BF1CD" stroke="black" stroke-width="2" stroke-miterlimit="10" stroke-linecap="round" stroke-linejoin="round"/>
<path d="M362.5 266C370.4 277.9 368.8 294.2 358.1 304.3L327.6 333.1L334.6 340.6L365.1 311.8C377.1 300.4 377.7 281.5 366.4 269.4C365.1 268.1 363.9 267 362.5 266Z" fill="#11BC92" stroke="black" stroke-width="2" stroke-miterlimit="10" stroke-linecap="round" stroke-linejoin="round"/>
<path d="M327.5 333.1L297 361.8C286.2 372 269.9 372.6 258.5 364C259.4 365.4 260.5 366.8 261.7 368C273.1 380 292 380.6 304.1 369.3L334.6 340.5L327.5 333.1Z" fill="#11BC92" stroke="black" stroke-width="2" stroke-miterlimit="10" stroke-linecap="round" stroke-linejoin="round"/>
<path d="M416 386H435.3V470H481.8V488.4H416V386ZM129.6 216.8H154.2C154.2 222 152.7 226.1 149.7 229.2C146.7 232.3 142.4 233.8 136.6 233.8C123.7 233.8 117.3 225.9 117.3 210.1V188.5C117.3 179.6 119.1 173.4 122.6 169.7C126.1 166 130.6 164.2 136 164.2C141.7 164.2 146.2 165.8 149.4 169C152.6 172.2 154.2 176.8 154.2 183V184.8H173.5V183C173.5 177.8 172.7 173 171 168.5C169.3 164 166.9 160 163.7 156.7C160.5 153.3 156.6 150.7 152 148.8C147.4 146.9 142.2 145.9 136.4 145.9C130.7 145.9 125.6 146.8 120.9 148.6C116.2 150.4 112.2 153.1 108.8 156.6C105.4 160.1 102.8 164.4 100.9 169.5C99 174.6 98 180.5 98 187.1V211.1C98 217.9 98.9 223.9 100.6 229C102.4 234.1 104.7 238.4 107.8 241.9C110.8 245.4 114.4 248 118.5 249.7C122.6 251.5 127 252.3 131.7 252.3C138.3 252.3 143.3 251 146.6 248.4C149.9 245.8 152.2 242.6 153.3 238.8H155.9V250.2H173.4V198.4H129.6V216.8ZM282.5 250.1H348.9V231.7H301.8V208H345.4V189.6H301.8V166.2H347.1V147.8H282.5V250.1ZM260.4 214.7C260.4 211.3 259.4 208.5 257.4 206.2C255.4 204 252.7 202.6 249.3 202.3V199.7C254 197.8 257.4 194.9 259.7 191.3C261.9 187.6 263.1 183.7 263.1 179.5V176C263.1 172.1 262.4 168.4 261 165C259.6 161.6 257.5 158.6 254.9 156C252.2 153.4 248.9 151.4 244.9 149.9C240.9 148.4 236.3 147.7 231 147.7H191.8V250H211V211.4H233.2C236 211.4 238 212.1 239.3 213.6C240.5 215.1 241.1 217 241.1 219.3V250H260.4V214.7ZM211 166.2H229.4C234.1 166.2 237.6 167.4 240.1 169.9C242.5 172.4 243.8 175.3 243.8 178.7V180.5C243.8 184.5 242.6 187.6 240.1 189.8C237.7 192 234.1 193.1 229.4 193.1H211V166.2ZM372 250.1H438.4V231.7H391.3V208H434.9V189.6H391.3V166.2H436.6V147.8H372V250.1ZM235.6 404.5H260.2V470H235.6V488.4H304V470H279.4V404.5H304V386H235.6V404.5ZM326.6 488.4H392.4V470H345.9V386H326.6V488.4ZM496.1 147.8H458.4V250.1H477.7V157.4H480.3L492.3 250.1H530V147.8H510.7V240.5H508.1L496.1 147.8ZM186.2 449.8C191.5 449.8 196 448.9 199.9 447.2C203.8 445.4 207 443.1 209.6 440.3C212.2 437.4 214.1 434.2 215.4 430.5C216.7 426.8 217.4 423.1 217.4 419.3V415.8C217.4 412.1 216.7 408.5 215.4 404.9C214.1 401.3 212.1 398.2 209.6 395.4C207 392.6 203.8 390.4 199.9 388.7C196 387 191.4 386.1 186.2 386.1H146.2V488.4H165.5V449.8H186.2ZM165.5 404.5H184.4C188.7 404.5 192.1 405.7 194.6 408C197.1 410.3 198.3 413.4 198.3 417.1V418.9C198.3 422.6 197.1 425.6 194.6 428C192.1 430.3 188.7 431.5 184.4 431.5H165.5V404.5Z" fill="black"/>
<defs>
<filter id="filter0_d_234_133" x="0" y="0" width="628" height="628" filterUnits="userSpaceOnUse" color-interpolation-filters="sRGB">
<feFlood flood-opacity="0" result="BackgroundImageFix"/>
<feColorMatrix in="SourceAlpha" type="matrix" values="0 0 0 0 0 0 0 0 0 0 0 0 0 0 0 0 0 0 127 0" result="hardAlpha"/>
<feOffset/>
<feGaussianBlur stdDeviation="32"/>
<feComposite in2="hardAlpha" operator="out"/>
<feColorMatrix type="matrix" values="0 0 0 0 0 0 0 0 0 0.683333 0 0 0 0 0.518601 0 0 0 1 0"/>
<feBlend mode="normal" in2="BackgroundImageFix" result="effect1_dropShadow_234_133"/>
<feBlend mode="normal" in="SourceGraphic" in2="effect1_dropShadow_234_133" result="shape"/>
</filter>
</defs>
</svg>
