<svg id="etv1yjEkxsq1" xmlns="http://www.w3.org/2000/svg" xmlns:xlink="http://www.w3.org/1999/xlink" viewBox="0 0 628 628" shape-rendering="geometricPrecision" text-rendering="geometricPrecision" width="628" height="628"><style><![CDATA[#etv1yjEkxsq3_tr {animation: etv1yjEkxsq3_tr__tr 3000ms linear infinite normal forwards}@keyframes etv1yjEkxsq3_tr__tr { 0% {transform: translate(249.950003px,250.000014px) rotate(0deg)} 100% {transform: translate(249.950003px,250.000014px) rotate(-60deg)}} #etv1yjEkxsq4_tr {animation: etv1yjEkxsq4_tr__tr 3000ms linear infinite normal forwards}@keyframes etv1yjEkxsq4_tr__tr { 0% {transform: translate(250.000001px,249.999998px) rotate(0deg)} 100% {transform: translate(250.000001px,249.999998px) rotate(60deg)}} #etv1yjEkxsq7_tr {animation: etv1yjEkxsq7_tr__tr 3000ms linear infinite normal forwards}@keyframes etv1yjEkxsq7_tr__tr { 0% {transform: translate(249.949996px,251.249975px) rotate(0deg);animation-timing-function: cubic-bezier(0.42,0,0.58,1)} 50% {transform: translate(249.949996px,251.249975px) rotate(5deg);animation-timing-function: cubic-bezier(0.42,0,0.58,1)} 100% {transform: translate(249.949996px,251.249975px) rotate(0deg)}}]]></style><defs><filter id="etv1yjEkxsq2-filter" x="-400%" width="600%" y="-400%" height="600%"><feGaussianBlur id="etv1yjEkxsq2-filter-drop-shadow-0-blur" in="SourceAlpha" stdDeviation="30,30"/><feOffset id="etv1yjEkxsq2-filter-drop-shadow-0-offset" dx="0" dy="0" result="tmp"/><feFlood id="etv1yjEkxsq2-filter-drop-shadow-0-flood" flood-color="#008362"/><feComposite id="etv1yjEkxsq2-filter-drop-shadow-0-composite" operator="in" in2="tmp"/><feMerge id="etv1yjEkxsq2-filter-drop-shadow-0-merge"><feMergeNode id="etv1yjEkxsq2-filter-drop-shadow-0-merge-node-1"/><feMergeNode id="etv1yjEkxsq2-filter-drop-shadow-0-merge-node-2" in="SourceGraphic"/></feMerge></filter></defs><rect width="500" height="500" rx="0" ry="0" transform="matrix(.651207 0 0 0.651207 87.148253 83.748251)" filter="url(#etv1yjEkxsq2-filter)" fill="#02e2ac"/><g id="etv1yjEkxsq3_tr" transform="translate(249.950003,250.000014) rotate(0)"><path d="M213,259.8c0,0,0,0,0,0c.3-.2.5-.4.7-.6.1-.1.2-.2.3-.2.2-.2.3-.4.5-.6.1-.1.2-.2.3-.3.1-.2.2-.4.3-.6.1-.1.2-.3.3-.4.1-.2.1-.3.2-.5s.2-.4.2-.6c0,0,0,0,0-.1c0-.2.1-.3.1-.5s.1-.4.1-.6s0-.4,0-.6s0-.4,0-.6s0-.4,0-.6s0-.4-.1-.6c0-.2-.1-.4-.2-.6c0-.2-.1-.3-.1-.5c0,0,0,0,0-.1-.1-.2-.2-.4-.3-.6s-.1-.3-.2-.5-.2-.3-.3-.4c-.1-.2-.2-.4-.3-.5s-.2-.2-.3-.3c-.2-.2-.3-.4-.5-.6-.1-.1-.2-.2-.3-.2-.2-.2-.4-.4-.6-.5c0,0,0,0,0,0L96.5,166.5l129.5,58c0,0,0,0,0,0c.2.1.5.2.7.2.1,0,.3.1.4.1.2.1.4.1.6.1s.3.1.5.1.3,0,.5,0s.4,0,.7,0c.1,0,.3,0,.4-.1.2,0,.5-.1.7-.1c0,0,0,0,.1,0s.3-.1.4-.1c.2-.1.4-.1.7-.2.2-.1.3-.2.5-.2.2-.1.4-.2.6-.3s.3-.2.5-.3.3-.2.5-.3.3-.3.5-.4c.1-.1.2-.2.4-.3c0,0,0,0,0,0c.1-.2.3-.3.4-.5s.2-.3.3-.5c.1-.1.1-.3.2-.4.1-.2.2-.4.3-.6c0-.1.1-.2.1-.3.1-.3.2-.5.3-.8c0-.1,0-.2.1-.3.1-.3.1-.6.1-.9c0,0,0,0,0,0L248.5,77L263,218.1c0,.4.1.8.2,1.2c0,0,0,.1,0,.1.1.3.2.7.4,1c0,.1,0,.1.1.2.1.3.3.6.5.9c0,0,0,.1.1.1.2.3.4.5.6.8c0,0,0,.1.1.1c0,0,0,0,0,.1.1.1.2.2.4.3s.3.3.5.4.3.2.5.3.3.2.5.3.4.2.6.3.3.2.5.2c.2.1.4.1.7.2.1,0,.3.1.4.1c0,0,0,0,.1,0c.2,0,.5.1.7.1.1,0,.3,0,.4.1.2,0,.4,0,.6,0s.3,0,.5,0s.3-.1.5-.1.4-.1.6-.1c.1,0,.3-.1.4-.2.2-.1.5-.2.7-.3c0,0,0,0,0,0L402,163.8L287,246.9c0,0,0,0,0,0-.1.1-.1.1-.2.2-.2.2-.4.3-.6.5-.1.1-.2.2-.2.3-.2.2-.3.4-.5.6-.1.1-.1.2-.2.3-.2.3-.4.6-.5.9c0,0,0,0,0,.1-.1.3-.3.6-.4.9c0,0,0,.1,0,.1c0,.1,0,.1,0,.2-.1.2-.1.5-.2.8c0,.1,0,.2-.1.3c0,.3-.1.7-.1,1c0,0,0,0,0,0s0,0,0,0s0,0,0,0s0,0,0,0c0,.3,0,.7.1,1c0,.1,0,.2.1.3c0,.3.1.5.2.8c0,.1,0,.1,0,.2c0,0,0,.1,0,.1.1.3.2.6.4.9c0,0,0,0,0,.1.2.3.4.6.6.9.1.1.1.2.2.3.2.2.3.4.5.6.1.1.2.2.2.2.2.2.4.4.6.5.1.1.1.1.2.2c0,0,0,0,0,0l116.4,81.1-129.5-58c0,0,0,0,0,0-.2-.1-.5-.2-.7-.2-.1,0-.3-.1-.4-.1-.2-.1-.4-.1-.6-.1s-.3-.1-.5-.1-.4,0-.5,0c-.2,0-.4,0-.6,0-.1,0-.3,0-.4.1-.2,0-.5.1-.7.1c0,0,0,0-.1,0s-.3.1-.4.1c-.2.1-.4.1-.7.2-.2.1-.3.2-.5.2-.2.1-.4.2-.6.3s-.3.2-.5.3-.3.2-.5.3-.3.3-.5.4c-.1.1-.2.2-.4.3c0,0,0,0,0,.1c0,0,0,.1-.1.1-.2.3-.4.5-.6.8c0,0,0,.1-.1.1-.2.3-.3.6-.5.9c0,.1,0,.1-.1.2-.1.3-.2.7-.3,1c0,0,0,.1,0,.1-.1.4-.2.8-.2,1.2l-12,141.3L237,288.8c0,0,0,0,0,0c0-.3-.1-.5-.2-.8c0-.1,0-.2-.1-.3-.1-.3-.2-.5-.3-.7c0-.1-.1-.2-.1-.4-.1-.2-.2-.4-.3-.6-.1-.1-.2-.3-.2-.4-.1-.2-.2-.3-.3-.4-.1-.2-.2-.3-.4-.5c0,0,0,0,0,0-.1-.1-.2-.2-.4-.3s-.3-.3-.5-.4-.3-.2-.5-.3-.3-.2-.5-.3-.4-.2-.6-.3-.3-.2-.5-.2c-.2-.1-.4-.1-.7-.2-.1,0-.3-.1-.4-.1c0,0,0,0-.1,0-.2,0-.5-.1-.7-.1-.1,0-.3,0-.4-.1-.2,0-.4,0-.6,0s-.4,0-.5,0c-.2,0-.3.1-.5.1s-.4.1-.6.1c-.1,0-.3.1-.4.2-.2.1-.5.2-.7.3c0,0,0,0,0,0L98.1,342.9L213,259.8Z" transform="scale(0.651207,0.651207) translate(-250,-253.450012)" fill="#ffeea8" stroke="#000" stroke-width="2" stroke-linecap="round" stroke-linejoin="round" stroke-miterlimit="10"/></g><g id="etv1yjEkxsq4_tr" transform="translate(250.000001,249.999998) rotate(0)"><path d="M258.1,299.9c0,0,0,0,0,0-.2-.3-.5-.6-.7-.8-.1-.1-.2-.2-.3-.4-.2-.2-.5-.4-.7-.6-.1-.1-.2-.2-.4-.3-.2-.2-.5-.3-.7-.4s-.4-.2-.6-.3-.4-.2-.6-.3c-.3-.1-.5-.2-.8-.3c0,0,0,0-.1,0-.2-.1-.4-.1-.6-.1-.3-.1-.5-.1-.8-.2-.2,0-.5,0-.7-.1-.2,0-.5,0-.7,0-.3,0-.5,0-.7.1-.2,0-.5,0-.7.1-.3,0-.5.1-.8.2-.2.1-.4.1-.6.1c0,0,0,0-.1,0-.3.1-.5.2-.8.3-.2.1-.4.2-.6.3s-.4.2-.6.4c-.2.1-.5.3-.7.4-.1.1-.3.2-.4.3-.2.2-.5.4-.7.6-.1.1-.2.2-.3.4-.2.3-.4.5-.6.8c0,0,0,0,0,0l-102,146.5l72.9-162.9c0,0,0,0,0-.1.1-.3.2-.6.3-.9.1-.2.1-.4.2-.5.1-.3.1-.5.1-.8c0-.2.1-.4.1-.7c0-.2,0-.4,0-.7s0-.5,0-.8c0-.2-.1-.4-.1-.6c0-.3-.1-.6-.1-.9c0,0,0,0,0-.1c0-.2-.1-.3-.2-.5-.1-.3-.2-.6-.3-.8s-.2-.4-.3-.6-.2-.5-.4-.7c-.1-.2-.3-.4-.4-.6s-.3-.4-.4-.6c-.2-.2-.4-.4-.5-.6-.1-.1-.3-.3-.4-.5c0,0,0,0-.1,0-.2-.2-.4-.3-.6-.5-.2-.1-.4-.3-.6-.4s-.3-.2-.5-.3c-.3-.1-.5-.3-.8-.4-.1-.1-.2-.1-.4-.1-.3-.1-.7-.3-1-.3-.1,0-.2,0-.4-.1-.4-.1-.7-.2-1.1-.2c0,0,0,0,0,0l-177.7-15l177.5-18.3c.5,0,1-.1,1.4-.3c0,0,.1,0,.1,0c.4-.1.8-.3,1.2-.4.1,0,.1-.1.2-.1.4-.2.8-.4,1.1-.6c0,0,.1-.1.1-.1.3-.2.7-.5,1-.8c0,0,.1-.1.1-.1s0,0,.1-.1c.2-.1.3-.3.4-.5.2-.2.4-.4.5-.6.2-.2.3-.4.4-.6s.3-.4.4-.6.2-.5.3-.7.2-.4.3-.6c.1-.3.2-.6.2-.8s.1-.3.2-.5c0,0,0,0,0-.1.1-.3.1-.6.1-.9c0-.2.1-.4.1-.6c0-.3,0-.5,0-.8c0-.2,0-.4,0-.7c0-.2-.1-.4-.1-.7-.1-.3-.1-.5-.2-.8-.1-.2-.1-.4-.2-.5-.1-.3-.2-.6-.3-.9c0,0,0,0,0-.1L137.3,62.2L241.9,206.8c0,0,0,0,0,.1.1.1.1.2.2.3.2.3.4.5.7.8.1.1.2.2.3.3.2.2.5.4.7.6.1.1.2.2.3.2.4.3.7.5,1.1.7c0,0,.1,0,.1,0c.4.2.8.3,1.2.5.1,0,.1,0,.2.1.1,0,.2,0,.2.1.3.1.6.2,1,.2.1,0,.3,0,.4.1.4.1.9.1,1.3.1c0,0,0,0,0,0s0,0,0,0s0,0,0,0s0,0,0,0c.4,0,.9,0,1.3-.1.1,0,.3,0,.4-.1.3-.1.6-.1.9-.2.1,0,.2,0,.2-.1.1,0,.1,0,.1-.1.4-.1.8-.3,1.2-.5c0,0,0,0,.1,0c.4-.2.8-.4,1.1-.7.1-.1.2-.2.3-.2.2-.2.5-.4.7-.6.1-.1.2-.2.3-.3.2-.2.4-.5.7-.8.1-.1.1-.2.2-.3c0,0,0,0,0-.1l102-146.5-72.9,162.9c0,0,0,0,0,.1-.1.3-.2.6-.3.9-.1.2-.1.4-.2.5-.1.3-.1.5-.1.8c0,.2-.1.4-.1.7c0,.2,0,.4,0,.7s0,.5,0,.8c0,.2.1.4.1.6c0,.3.1.6.1.9c0,0,0,0,0,.1c0,.2.1.3.2.5.1.3.2.6.3.8s.2.4.3.6.2.5.4.7c.1.2.3.4.4.6s.3.4.4.6c.2.2.4.4.5.6.1.1.3.3.4.5c0,0,0,0,.1.1c0,0,.1.1.1.1.3.3.7.5,1,.8c0,0,.1.1.1.1.4.2.8.4,1.2.6.1,0,.1.1.2.1.4.2.8.3,1.3.4c0,0,.1,0,.1,0c.5.1,1,.2,1.5.2L472,251.7L294.5,270c0,0,0,0-.1,0-.3,0-.7.1-1,.2-.1,0-.3,0-.4.1-.3.1-.6.2-.9.3-.1.1-.3.1-.4.2-.3.1-.5.3-.7.4s-.4.2-.5.3c-.2.1-.4.3-.6.4-.2.2-.4.3-.6.5c0,0,0,0-.1,0-.2.1-.3.3-.4.5-.2.2-.4.4-.5.6-.2.2-.3.4-.4.6s-.3.4-.4.6-.2.5-.3.7-.2.4-.3.6c-.1.3-.2.6-.2.8s-.1.3-.2.5c0,0,0,0,0,.1-.1.3-.1.6-.1.9c0,.2-.1.4-.1.6c0,.3,0,.5,0,.8c0,.2,0,.4,0,.7c0,.2.1.4.1.7.1.3.1.5.2.8.1.2.1.4.2.5.1.3.2.6.3.9c0,0,0,0,0,.1L363,444.9l-104.9-145Z" transform="scale(0.651207,0.651207) translate(-250.049997,-253.449997)" fill="#fc0" stroke="#000" stroke-width="2" stroke-linecap="round" stroke-linejoin="round" stroke-miterlimit="10"/></g><path d="M155.9,471.7h-3.6v-19h3.6v7.8h.8l5-7.8h4v.2l-5.9,9.1v.5l6.2,9.1v.2h-4.2l-5.2-7.8h-.8v7.7Zm16.1-5.6c0,.4.1.8.3,1.1s.4.6.7.9c.3.2.6.4,1,.6.4.1.8.2,1.2.2.9,0,1.5-.1,2-.4s.8-.7,1-1.1l2.9,1.6c-.2.3-.4.7-.7,1.1s-.7.7-1.1,1c-.5.3-1,.6-1.7.8s-1.4.3-2.3.3c-1,0-1.9-.2-2.8-.5-.8-.3-1.6-.8-2.2-1.4s-1.1-1.4-1.4-2.3-.5-1.9-.5-3v-.2c0-1,.2-2,.5-2.8.4-.9.8-1.6,1.5-2.2.6-.6,1.3-1.1,2.2-1.4.8-.3,1.7-.5,2.6-.5c1.2,0,2.2.2,3,.6s1.5.9,2.1,1.5c.5.6.9,1.3,1.2,2.1s.4,1.5.4,2.2v1.8h-9.9Zm3.2-5.2c-.9,0-1.6.2-2.1.7-.5.4-.9,1-1.1,1.5h6.4c-.1-.6-.4-1.2-1-1.6-.6-.3-1.3-.6-2.2-.6Zm9.5-2.7h3.7l3.2,11.8h.5l3.2-11.8h3.7l-3.9,13.5h-6.5l-3.9-13.5Zm17.8,10.2h4.6v-7h-4.2v-3.3h7.7v10.2h3.9v3.3h-11.9v-3.2Zm8.8-14.2c0,.4-.1.7-.2,1s-.3.6-.6.8c-.2.2-.5.4-.8.5s-.6.2-1,.2-.7-.1-1-.2-.6-.3-.8-.5-.4-.5-.6-.8c-.1-.3-.2-.7-.2-1c0-.4.1-.7.2-1s.3-.6.6-.8c.2-.2.5-.4.8-.5s.6-.2,1-.2c.3,0,.7.1,1,.2s.6.3.8.5.4.5.6.8.2.7.2,1Zm11,17.5h-3.4v-13.5h3.4v2h.5c.3-.8.8-1.3,1.5-1.8.7-.4,1.5-.6,2.4-.6.7,0,1.3.1,1.8.3.6.2,1.1.5,1.5,1c.4.4.8,1,1,1.7s.4,1.5.4,2.4v8.5h-3.4v-7.7c0-1-.2-1.7-.7-2.3s-1.1-.8-2-.8c-1,0-1.8.3-2.3,1s-.7,1.6-.7,2.7v7.1Zm29-11.6c0-2.5.6-4.4,1.9-5.7c1.2-1.4,3-2,5.1-2c2.2,0,3.9.7,5.1,2c1.2,1.4,1.9,3.3,1.9,5.7v4.2c0,2.5-.6,4.5-1.9,5.8-1.2,1.3-3,2-5.1,2-2.2,0-3.9-.7-5.1-2s-1.9-3.3-1.9-5.8v-4.2Zm7,8.7c.7,0,1.2-.1,1.6-.3s.8-.5,1.1-.9.5-.8.6-1.4c.1-.5.2-1.1.2-1.7v-4.7c0-.6-.1-1.2-.2-1.7s-.3-1-.6-1.4-.6-.7-1.1-.9c-.4-.2-1-.3-1.6-.3s-1.1.1-1.6.3c-.4.2-.8.5-1.1.9s-.5.8-.6,1.4c-.1.5-.2,1.1-.2,1.7v4.7c0,.6.1,1.2.2,1.7s.3,1,.6,1.4.6.7,1.1.9c.4.2,1,.3,1.6.3Zm23.6,2.9h-5.9l-.8-10.2v-1.6h-.7v1.6l-.8,10.2h-5.9l-.9-13.5h3.2l.6,10.2v1.6h.7v-1.6l.7-10.2h5.6l.7,10.2v1.6h.7v-1.6l.6-10.2h3.2l-1,13.5Zm16.7-6.6c0,1.1-.2,2.1-.6,3s-.9,1.6-1.5,2.2c-.7.6-1.4,1-2.2,1.3s-1.7.5-2.6.5-1.8-.2-2.6-.5-1.6-.8-2.2-1.3c-.7-.6-1.2-1.3-1.5-2.2-.4-.9-.6-1.9-.6-3v-.3c0-1.1.2-2.1.6-2.9.4-.9.9-1.6,1.5-2.2.7-.6,1.4-1,2.2-1.4.8-.3,1.7-.5,2.6-.5s1.8.2,2.6.5s1.6.8,2.2,1.4c.7.6,1.2,1.3,1.5,2.2.4.9.6,1.8.6,2.9v.3Zm-7,3.7c.5,0,1-.1,1.4-.2.4-.2.8-.4,1.1-.7s.6-.7.8-1.1.3-.9.3-1.5v-.5c0-.6-.1-1.1-.3-1.5s-.4-.8-.8-1.1c-.3-.3-.7-.5-1.1-.7s-.9-.2-1.4-.2-1,.1-1.4.2c-.4.2-.8.4-1.1.7s-.6.7-.8,1.1-.3.9-.3,1.5v.5c0,.6.1,1.1.3,1.5s.4.8.8,1.1c.3.3.7.5,1.1.7.4.1.9.2,1.4.2Zm23.5-2c-.3,1.6-1,2.9-2.2,3.9s-2.7,1.5-4.6,1.5c-1,0-1.9-.2-2.8-.5s-1.6-.8-2.2-1.3c-.6-.6-1.1-1.3-1.5-2.1-.4-.9-.5-1.8-.5-2.9v-.3c0-1.1.2-2.1.5-2.9.4-.9.9-1.6,1.5-2.2s1.4-1.1,2.3-1.4s1.8-.5,2.8-.5c1.9,0,3.4.5,4.6,1.5s1.9,2.3,2.2,3.9l-3.4.9c-.1-.8-.5-1.5-1-2.1-.6-.6-1.4-.9-2.4-.9-.5,0-1,.1-1.4.3s-.8.4-1.1.8c-.3.3-.6.7-.8,1.2s-.3,1-.3,1.6v.2c0,.6.1,1.1.3,1.6s.4.8.8,1.2c.3.3.7.5,1.1.7s.9.2,1.4.2c1,0,1.9-.3,2.4-.8.6-.5.9-1.2,1.1-2.1l3.2.5Zm8-3.6h.7l3.6-4.9h3.7v.2l-4.3,6.2v.5l4.8,6.5v.2h-3.9l-3.9-5.3h-.7v5.3h-3.4v-19h3.4v10.3Zm12.4,5.2h4.6v-7h-4.2v-3.3h7.7v10.2h3.9v3.3h-11.9v-3.2Zm8.8-14.2c0,.4-.1.7-.2,1s-.3.6-.6.8c-.2.2-.5.4-.8.5s-.6.2-1,.2-.7-.1-1-.2-.6-.3-.8-.5-.4-.5-.6-.8c-.1-.3-.2-.7-.2-1c0-.4.1-.7.2-1s.3-.6.6-.8c.2-.2.5-.4.8-.5s.6-.2,1-.2c.3,0,.7.1,1,.2s.6.3.8.5.4.5.6.8c.1.3.2.7.2,1ZM45,48.2h-3.4v-5.4c0-.4-.1-.7-.3-1s-.6-.4-1.1-.4h-3.9v6.7h-3.3v-17.7h6.9c.9,0,1.7.1,2.4.4s1.3.6,1.8,1.1.8,1,1.1,1.6c.2.6.4,1.2.4,1.9v.6c0,.7-.2,1.4-.6,2.1-.4.6-1,1.1-1.8,1.5v.5c.6.1,1.1.3,1.4.7s.5.9.5,1.5v5.9Zm-8.7-9.9h3.2c.8,0,1.4-.2,1.9-.6.4-.4.6-.9.6-1.6v-.3c0-.6-.2-1.1-.6-1.5s-1-.7-1.9-.7h-3.2v4.7ZM51.6,43c0,.4.1.7.3,1s.4.6.7.8.6.4,1,.5.8.2,1.2.2c.8,0,1.4-.1,1.8-.4s.7-.6.9-1l2.8,1.5c-.2.3-.4.7-.6,1-.3.3-.6.7-1.1,1-.4.3-1,.5-1.6.7s-1.4.3-2.2.3c-1,0-1.8-.2-2.6-.5s-1.5-.7-2-1.3c-.6-.6-1-1.3-1.3-2.1s-.5-1.8-.5-2.8v-.2c0-1,.2-1.9.5-2.7s.8-1.5,1.4-2c.6-.6,1.3-1,2-1.3.8-.3,1.6-.5,2.5-.5c1.1,0,2,.2,2.8.6s1.4.9,1.9,1.5.9,1.2,1.1,1.9.4,1.4.4,2.1v1.7h-9.4Zm3-4.9c-.8,0-1.5.2-2,.6s-.8.9-1,1.4h6c-.1-.6-.4-1.1-1-1.5-.5-.3-1.2-.5-2-.5Zm18.8,8.3h-.4c-.1.3-.3.6-.5.8-.2.3-.5.5-.8.7s-.7.4-1.1.5-1,.2-1.6.2c-.8,0-1.5-.1-2.2-.4s-1.3-.7-1.8-1.3-.9-1.2-1.2-2-.4-1.7-.4-2.8v-.5c0-1,.1-1.9.4-2.7s.7-1.5,1.2-2c.5-.6,1.1-1,1.8-1.3s1.4-.4,2.2-.4c1,0,1.8.2,2.4.6s1.1.9,1.4,1.6h.5v-1.8h3.2v15.8c0,.6-.2,1.1-.5,1.4-.4.4-.8.6-1.4.6h-8.5v-3.1h6.6c.5,0,.7-.3.7-.8v-3.1ZM70,45.5c1,0,1.8-.3,2.4-1c.6-.6.9-1.5.9-2.5v-.3c0-1-.3-1.9-.9-2.5s-1.4-1-2.4-1-1.8.3-2.4.9-.9,1.5-.9,2.5v.3c0,1.1.3,1.9.9,2.5.6.8,1.4,1.1,2.4,1.1ZM82.9,43c0,.4.1.7.3,1s.4.6.7.8.6.4,1,.5.8.2,1.2.2c.8,0,1.4-.1,1.8-.4s.7-.6.9-1l2.8,1.5c-.2.3-.4.7-.6,1-.3.3-.6.7-1.1,1-.4.3-1,.5-1.6.7s-1.4.3-2.2.3c-1,0-1.8-.2-2.6-.5s-1.5-.7-2-1.3c-.6-.6-1-1.3-1.3-2.1s-.5-1.8-.5-2.8v-.2c0-1,.2-1.9.5-2.7s.8-1.5,1.4-2c.6-.6,1.3-1,2-1.3.8-.3,1.6-.5,2.5-.5c1.1,0,2,.2,2.8.6s1.4.9,1.9,1.5.9,1.2,1.1,1.9.4,1.4.4,2.1v1.7h-9.4Zm3-4.9c-.8,0-1.5.2-2,.6s-.8.9-1,1.4h6c-.1-.6-.4-1.1-1-1.5-.5-.3-1.2-.5-2-.5Zm13,10.1h-3.2v-12.6h3.2v1.9h.5c.3-.7.8-1.3,1.4-1.7s1.4-.6,2.3-.6c.6,0,1.2.1,1.7.3s1,.5,1.4.9.7.9,1,1.6c.2.6.3,1.4.3,2.2v8h-3.2v-7.2c0-.9-.2-1.6-.7-2.1-.4-.5-1.1-.8-1.9-.8-1,0-1.7.3-2.1,1-.5.6-.7,1.5-.7,2.6v6.5ZM114.1,43c0,.4.1.7.3,1s.4.6.7.8.6.4,1,.5.8.2,1.2.2c.8,0,1.4-.1,1.8-.4s.7-.6.9-1l2.8,1.5c-.2.3-.4.7-.6,1-.3.3-.6.7-1.1,1-.4.3-1,.5-1.6.7s-1.4.3-2.2.3c-1,0-1.8-.2-2.6-.5s-1.5-.7-2-1.3c-.6-.6-1-1.3-1.3-2.1s-.5-1.8-.5-2.8v-.2c0-1,.2-1.9.5-2.7s.8-1.5,1.4-2c.6-.6,1.3-1,2-1.3.8-.3,1.6-.5,2.5-.5c1.1,0,2,.2,2.8.6s1.4.9,1.9,1.5.9,1.2,1.1,1.9.4,1.4.4,2.1v1.7h-9.4Zm3.1-4.9c-.8,0-1.5.2-2,.6s-.8.9-1,1.4h6c-.1-.6-.4-1.1-1-1.5-.5-.3-1.2-.5-2-.5Zm9.1-2.5h5.4v1.8h.5c.2-.7.6-1.2,1.2-1.6s1.3-.6,2.1-.6c1.3,0,2.3.4,3,1.2.8.8,1.2,2,1.2,3.6v.6l-3.3.3v-.4c0-.7-.2-1.3-.5-1.7-.4-.4-.9-.6-1.6-.6s-1.3.2-1.7.7-.6,1.2-.6,2.1v4.1h2.9v3.1h-8.9v-3.1h2.6v-6.5h-2.3v-3Zm24.5,10.8c-.3.8-.8,1.4-1.4,1.7s-1.3.5-2.1.5-1.5-.1-2.2-.4-1.3-.7-1.8-1.3-.9-1.2-1.2-2-.4-1.7-.4-2.7v-.4c0-1,.1-1.9.4-2.7s.7-1.5,1.2-2c.5-.6,1.1-1,1.7-1.3.7-.3,1.4-.4,2.1-.4.9,0,1.6.2,2.2.5s1,.8,1.3,1.4h.5v-1.5h3.2v8.8c0,.5.2.8.7.8h.5v3.1h-2.2c-.6,0-1.1-.2-1.4-.5-.4-.3-.5-.8-.5-1.3h-.6Zm-2.9-.9c.9,0,1.7-.3,2.2-.9.6-.6.8-1.5.8-2.5v-.3c0-1.1-.3-1.9-.8-2.5-.6-.6-1.3-.9-2.2-.9s-1.7.3-2.2.9c-.6.6-.8,1.5-.8,2.5v.3c0,1.1.3,1.9.8,2.5.6.6,1.3.9,2.2.9Zm10-9.9h3.8v-5.2h3.2v5.2h4.6v3.1h-4.6v5.8c0,.5.2.8.7.8h3.4v3.1h-5.4c-.6,0-1.1-.2-1.4-.6-.4-.4-.5-.9-.5-1.4v-7.6h-3.8v-3.2Zm16.2,9.6h4.3v-6.5h-4v-3.1h7.2v9.6h3.7v3.1h-11.2v-3.1Zm8.3-13.4c0,.3-.1.7-.2,1s-.3.6-.5.8-.5.4-.8.5-.6.2-.9.2-.7-.1-.9-.2c-.3-.1-.5-.3-.8-.5-.2-.2-.4-.5-.5-.8s-.2-.6-.2-1c0-.3.1-.7.2-1s.3-.6.5-.8.5-.4.8-.5.6-.2.9-.2.6.1.9.2.6.3.8.5.4.5.5.8c.2.4.2.7.2,1Zm6.2,3.8h3.5l3,11.1h.5l3-11.1h3.5l-3.6,12.7h-6.1l-3.8-12.7ZM208,43c0,.4.1.7.3,1s.4.6.7.8.6.4,1,.5.8.2,1.2.2c.8,0,1.4-.1,1.8-.4s.7-.6.9-1l2.8,1.5c-.2.3-.4.7-.6,1-.3.3-.6.7-1.1,1-.4.3-1,.5-1.6.7s-1.4.3-2.2.3c-1,0-1.8-.2-2.6-.5s-1.5-.7-2-1.3c-.6-.6-1-1.3-1.3-2.1s-.5-1.8-.5-2.8v-.2c0-1,.2-1.9.5-2.7s.8-1.5,1.4-2c.6-.6,1.3-1,2-1.3.8-.3,1.6-.5,2.5-.5c1.1,0,2,.2,2.8.6s1.4.9,1.9,1.5.9,1.2,1.1,1.9.4,1.4.4,2.1v1.7h-9.4Zm3.1-4.9c-.8,0-1.5.2-2,.6s-.8.9-1,1.4h6c-.1-.6-.4-1.1-1-1.5-.5-.3-1.2-.5-2-.5Zm31.3,7.4c.6,0,1.2-.1,1.6-.3s.7-.5,1-.8c.2-.3.4-.7.5-1.2.1-.4.1-.9.1-1.3v-.5h3.4v.6c0,2.1-.6,3.8-1.7,4.9-1.1,1.2-2.7,1.7-4.9,1.7-2,0-3.7-.6-4.9-1.9-1.2-1.2-1.8-3.1-1.8-5.4v-4c0-1.1.2-2.2.5-3.1s.7-1.7,1.3-2.3s1.3-1.1,2.1-1.4s1.7-.5,2.8-.5s2,.2,2.8.5s1.5.8,2.1,1.3c.6.6,1,1.3,1.3,2.1s.4,1.7.4,2.8v.5h-3.4v-.5c0-.4-.1-.9-.2-1.3s-.3-.8-.5-1.2c-.2-.3-.6-.6-1-.8s-.9-.3-1.5-.3-1,.1-1.5.3c-.4.2-.8.5-1,.9-.3.4-.5.8-.6,1.3s-.2,1-.2,1.5v4.5c0,.6.1,1.1.2,1.6s.3.9.6,1.3.6.6,1,.8c.4.1.9.2,1.5.2Zm9.1-9.9h5.4v1.8h.5c.2-.7.6-1.2,1.2-1.6s1.3-.6,2.1-.6c1.3,0,2.3.4,3,1.2.8.8,1.2,2,1.2,3.6v.6l-3.3.3v-.4c0-.7-.2-1.3-.5-1.7-.4-.4-.9-.6-1.6-.6s-1.3.2-1.7.7-.6,1.2-.6,2.1v4.1h2.9v3.1h-8.7v-3.1h2.6v-6.5h-2.3v-3Zm24.9,0h3.2v15.8c0,.6-.2,1.1-.5,1.4-.4.4-.8.6-1.4.6h-7.5v-3.1h5.6c.5,0,.7-.3.7-.8v-3.1h-.5c-.6,1.5-1.8,2.2-3.6,2.2-.6,0-1.2-.1-1.8-.3-.5-.2-1-.5-1.4-.9s-.7-1-1-1.6c-.2-.6-.3-1.4-.3-2.3v-7.9h3.2v7.3c0,.9.2,1.6.6,2.1s1.1.8,1.9.8c1,0,1.7-.3,2.1-.9.5-.6.7-1.5.7-2.5v-6.8ZM286,53.4h-3.2v-17.8h3.2v1.8h.5c.3-.7.8-1.2,1.5-1.6.6-.4,1.5-.6,2.5-.6.7,0,1.5.1,2.1.4.7.3,1.3.7,1.8,1.3s.9,1.2,1.2,2s.4,1.7.4,2.7v.5c0,1-.1,2-.4,2.8s-.7,1.5-1.2,2c-.5.6-1.1,1-1.8,1.3s-1.4.4-2.2.4c-.6,0-1.1-.1-1.5-.2s-.8-.3-1.1-.5-.6-.4-.8-.7-.4-.5-.5-.8h-.5v7Zm3.3-7.9c1,0,1.8-.3,2.4-.9s.9-1.5.9-2.5v-.3c0-1.1-.3-1.9-.9-2.5s-1.4-.9-2.4-.9-1.8.3-2.4,1c-.6.6-.9,1.5-.9,2.5v.3c0,1,.3,1.9.9,2.5.6.5,1.4.8,2.4.8Zm9.4-9.9h3.8v-5.2h3.2v5.2h4.6v3.1h-4.6v5.8c0,.5.2.8.7.8h3.4v3.1h-5.4c-.6,0-1.1-.2-1.4-.6-.4-.4-.5-.9-.5-1.4v-7.6h-3.8v-3.2Zm28.4,6.5c0,1.1-.2,2-.5,2.8-.4.8-.8,1.5-1.5,2-.6.6-1.3,1-2.1,1.3s-1.6.4-2.5.4-1.7-.1-2.5-.4-1.5-.7-2.1-1.3-1.1-1.2-1.5-2-.5-1.7-.5-2.8v-.3c0-1,.2-2,.5-2.8.4-.8.8-1.5,1.5-2.1.6-.6,1.3-1,2.1-1.3s1.6-.4,2.5-.4s1.7.1,2.5.4s1.5.7,2.1,1.3s1.1,1.2,1.5,2.1c.4.8.5,1.7.5,2.8v.3Zm-6.6,3.4c.5,0,.9-.1,1.3-.2s.8-.4,1.1-.7.5-.6.7-1.1c.2-.4.3-.9.3-1.4v-.5c0-.5-.1-1-.3-1.4s-.4-.8-.7-1.1-.7-.5-1.1-.7-.8-.2-1.3-.2-.9.1-1.3.2c-.4.2-.8.4-1.1.7s-.5.6-.7,1.1c-.2.4-.3.9-.3,1.4v.5c0,.5.1,1,.3,1.4s.4.8.7,1.1.7.5,1.1.7.9.2,1.3.2Zm10-15.1h11.3v3.2h-7.9v4.1h7.6v3.2h-7.6v4.1h8.2v3.2h-11.6v-17.8Zm27.9,13.2c-.3,1.5-1,2.7-2.1,3.6s-2.5,1.4-4.3,1.4c-.9,0-1.8-.1-2.6-.4s-1.5-.7-2.1-1.3c-.6-.5-1.1-1.2-1.4-2s-.5-1.7-.5-2.7v-.3c0-1,.2-1.9.5-2.8.3-.8.8-1.5,1.4-2.1s1.3-1,2.1-1.3s1.7-.5,2.6-.5c1.8,0,3.2.5,4.3,1.4s1.8,2.1,2.1,3.6l-3.2.8c-.1-.7-.4-1.4-1-1.9-.5-.5-1.3-.8-2.3-.8-.5,0-.9.1-1.3.3s-.8.4-1.1.7-.5.7-.7,1.2-.3,1-.3,1.5v.2c0,.6.1,1.1.3,1.5s.4.8.7,1.1.7.5,1.1.7c.4.1.8.2,1.3.2c1,0,1.7-.2,2.3-.7.5-.5.9-1.2,1-2l3.2.6Zm15.7-1.5c0,1.1-.2,2-.5,2.8-.4.8-.8,1.5-1.5,2-.6.6-1.3,1-2.1,1.3s-1.6.4-2.5.4-1.7-.1-2.5-.4-1.5-.7-2.1-1.3-1.1-1.2-1.5-2-.5-1.7-.5-2.8v-.3c0-1,.2-2,.5-2.8.4-.8.8-1.5,1.5-2.1.6-.6,1.3-1,2.1-1.3s1.6-.4,2.5-.4s1.7.1,2.5.4s1.5.7,2.1,1.3s1.1,1.2,1.5,2.1c.4.8.5,1.7.5,2.8v.3Zm-6.6,3.4c.5,0,.9-.1,1.3-.2.4-.2.8-.4,1.1-.7s.5-.6.7-1.1c.2-.4.3-.9.3-1.4v-.5c0-.5-.1-1-.3-1.4s-.4-.8-.7-1.1-.7-.5-1.1-.7-.8-.2-1.3-.2-.9.1-1.3.2c-.4.2-.8.4-1.1.7s-.5.6-.7,1.1c-.2.4-.3.9-.3,1.4v.5c0,.5.1,1,.3,1.4s.4.8.7,1.1.7.5,1.1.7.8.2,1.3.2Zm13,2.7h-3.2v-12.6h3.2v1.9h.5c.3-.7.8-1.3,1.4-1.7s1.4-.6,2.3-.6c.6,0,1.2.1,1.7.3s1,.5,1.4.9.7.9,1,1.6c.2.6.3,1.4.3,2.2v8h-3.2v-7.2c0-.9-.2-1.6-.7-2.1-.4-.5-1.1-.8-1.9-.8-1,0-1.7.3-2.1,1-.5.6-.7,1.5-.7,2.6v6.5Zm24.9-6.1c0,1.1-.2,2-.5,2.8-.4.8-.8,1.5-1.5,2-.6.6-1.3,1-2.1,1.3s-1.6.4-2.5.4-1.7-.1-2.5-.4-1.5-.7-2.1-1.3-1.1-1.2-1.5-2-.5-1.7-.5-2.8v-.3c0-1,.2-2,.5-2.8.4-.8.8-1.5,1.5-2.1.6-.6,1.3-1,2.1-1.3s1.6-.4,2.5-.4s1.7.1,2.5.4s1.5.7,2.1,1.3s1.1,1.2,1.5,2.1c.4.8.5,1.7.5,2.8v.3Zm-6.6,3.4c.5,0,.9-.1,1.3-.2s.8-.4,1.1-.7.5-.6.7-1.1c.2-.4.3-.9.3-1.4v-.5c0-.5-.1-1-.3-1.4s-.4-.8-.7-1.1-.7-.5-1.1-.7-.8-.2-1.3-.2-.9.1-1.3.2c-.4.2-.8.4-1.1.7s-.5.6-.7,1.1c-.2.4-.3.9-.3,1.4v.5c0,.5.1,1,.3,1.4s.4.8.7,1.1.7.5,1.1.7.8.2,1.3.2Zm22.5,2.7h-3.2v-8.9c0-.4-.1-.6-.3-.8s-.4-.3-.7-.3-.6.1-.8.3-.3.5-.3.9v8.7h-3.2v-8.9c0-.4-.1-.6-.3-.8s-.4-.3-.7-.3-.6.1-.8.3-.3.5-.3.9v8.7h-3.2v-12.4h3.2v1.2h.5c.1-.5.3-.8.7-1.1s.8-.4,1.4-.4s1,.1,1.4.4.7.7.8,1.1h.5c.1-.5.4-.8.9-1.1.4-.3,1-.4,1.6-.4.9,0,1.5.3,2,.9s.8,1.4.8,2.4v9.6Zm3.2-3h4.3v-6.5h-4v-3.1h7.2v9.6h3.7v3.1h-11.2v-3.1Zm8.3-13.4c0,.3-.1.7-.2,1s-.3.6-.5.8-.5.4-.8.5-.6.2-.9.2-.7-.1-.9-.2c-.3-.1-.5-.3-.8-.5-.2-.2-.4-.5-.5-.8s-.2-.6-.2-1c0-.3.1-.7.2-1s.3-.6.5-.8.5-.4.8-.5.6-.2.9-.2.6.1.9.2.6.3.8.5.4.5.5.8c.1.4.2.7.2,1Zm19.4,11.8c-.3,1.5-1,2.7-2.1,3.6s-2.5,1.4-4.3,1.4c-.9,0-1.8-.1-2.6-.4s-1.5-.7-2.1-1.3c-.6-.5-1.1-1.2-1.4-2s-.5-1.7-.5-2.7v-.3c0-1,.2-1.9.5-2.8.3-.8.8-1.5,1.4-2.1s1.3-1,2.1-1.3s1.7-.5,2.6-.5c1.8,0,3.2.5,4.3,1.4s1.8,2.1,2.1,3.6L449,41c-.1-.7-.4-1.4-1-1.9-.5-.5-1.3-.8-2.3-.8-.5,0-.9.1-1.3.3s-.8.4-1.1.7-.5.7-.7,1.2-.3,1-.3,1.5v.2c0,.6.1,1.1.3,1.5s.4.8.7,1.1.7.5,1.1.7c.4.1.8.2,1.3.2c1,0,1.7-.2,2.3-.7.5-.5.9-1.2,1-2l3.2.6Zm7.4-4.5c0,.4.2.7.6.9s1.2.3,2.3.4c1.3.1,2.4.5,3.2,1.2.8.6,1.2,1.5,1.2,2.7v.2c0,1.3-.5,2.3-1.4,3-.9.8-2.2,1.1-3.9,1.1-1,0-1.8-.1-2.5-.4s-1.3-.6-1.7-1c-.5-.4-.8-.8-1.1-1.3-.2-.5-.4-.9-.5-1.4l3-1c.1.5.4,1,.9,1.4.4.4,1.1.6,2,.6.8,0,1.4-.1,1.6-.4.3-.2.4-.5.4-.8c0-.2,0-.3-.1-.5-.1-.1-.2-.3-.4-.4s-.5-.2-.8-.3-.8-.2-1.3-.2c-1.4-.1-2.6-.5-3.4-1.1s-1.3-1.5-1.3-2.7v-.2c0-.6.1-1.2.4-1.7s.6-.9,1.1-1.2c.4-.3,1-.6,1.5-.8.6-.2,1.2-.3,1.8-.3.8,0,1.5.1,2.1.3s1.1.5,1.5.8.7.7,1,1c.3.4.5.8.6,1.1l-2.9,1.2c-.2-.5-.4-.8-.8-1.1s-.9-.4-1.5-.4c-.5,0-1,.1-1.2.3-.3.5-.4.8-.4,1Z" transform="matrix(.651207 0 0 0.651207 87.130818 84.00985)"/><path d="M352,322h19.3v84h46.5v18.4h-65.8v-102.4ZM65.6,152.8h24.6c0,5.2-1.5,9.3-4.5,12.4s-7.3,4.6-13.1,4.6c-12.9,0-19.3-7.9-19.3-23.7v-21.6c0-8.9,1.8-15.1,5.3-18.8s8-5.5,13.4-5.5c5.7,0,10.2,1.6,13.4,4.8s4.8,7.8,4.8,14v1.8h19.3v-1.8c0-5.2-.8-10-2.5-14.5s-4.1-8.5-7.3-11.8c-3.2-3.4-7.1-6-11.7-7.9s-9.8-2.9-15.6-2.9c-5.7,0-10.8.9-15.5,2.7s-8.7,4.5-12.1,8-6,7.8-7.9,12.9-2.9,11-2.9,17.6v24c0,6.8.9,12.8,2.6,17.9c1.8,5.1,4.1,9.4,7.2,12.9c3,3.5,6.6,6.1,10.7,7.8c4.1,1.8,8.5,2.6,13.2,2.6c6.6,0,11.6-1.3,14.9-3.9s5.6-5.8,6.7-9.6h2.6v11.4h17.5v-51.8h-43.8v18.4Zm152.9,33.3h66.4v-18.4h-47.1v-23.7h43.6v-18.4h-43.6v-23.4h45.3v-18.4h-64.6v102.3Zm-22.1-35.4c0-3.4-1-6.2-3-8.5-2-2.2-4.7-3.6-8.1-3.9v-2.6c4.7-1.9,8.1-4.8,10.4-8.4c2.2-3.7,3.4-7.6,3.4-11.8v-3.5c0-3.9-.7-7.6-2.1-11s-3.5-6.4-6.1-9c-2.7-2.6-6-4.6-10-6.1s-8.6-2.2-13.9-2.2h-39.2v102.3h19.2v-38.6h22.2c2.8,0,4.8.7,6.1,2.2c1.2,1.5,1.8,3.4,1.8,5.7v30.7h19.3v-35.3ZM147,102.2h18.4c4.7,0,8.2,1.2,10.7,3.7c2.4,2.5,3.7,5.4,3.7,8.8v1.8c0,4-1.2,7.1-3.7,9.3-2.4,2.2-6,3.3-10.7,3.3h-18.4v-26.9Zm161,83.9h66.4v-18.4h-47.1v-23.7h43.6v-18.4h-43.6v-23.4h45.3v-18.4h-64.6v102.3ZM171.6,340.5h24.6v65.5h-24.6v18.4h68.4v-18.4h-24.6v-65.5h24.6v-18.5h-68.4v18.5Zm91,83.9h65.8v-18.4h-46.5v-84h-19.3v102.4ZM432.1,83.8h-37.7v102.3h19.3v-92.7h2.6l12,92.7h37.7v-102.3h-19.3v92.7h-2.6l-12-92.7Zm-309.9,302c5.3,0,9.8-.9,13.7-2.6c3.9-1.8,7.1-4.1,9.7-6.9c2.6-2.9,4.5-6.1,5.8-9.8s2-7.4,2-11.2v-3.5c0-3.7-.7-7.3-2-10.9s-3.3-6.7-5.8-9.5c-2.6-2.8-5.8-5-9.7-6.7s-8.5-2.6-13.7-2.6h-40v102.3h19.3v-38.6h20.7Zm-20.7-45.3h18.9c4.3,0,7.7,1.2,10.2,3.5s3.7,5.4,3.7,9.1v1.8c0,3.7-1.2,6.7-3.7,9.1-2.5,2.3-5.9,3.5-10.2,3.5h-18.9v-27Z" transform="matrix(.651207 0 0 0.651207 87.148253 84.846953)"/><g id="etv1yjEkxsq7_tr" transform="translate(249.949996,251.249975) rotate(0)"><g transform="scale(0.651207,0.651207) translate(-249.999992,-254.699974)"><path d="M301.1,247.7c12-11.4,12.6-30.3,1.3-42.4v0c-11.4-12-30.3-12.6-42.4-1.3l-30.5,28.8l41.1,43.6l30.5-28.7Z" fill="#02e2ac" stroke="#000" stroke-width="2" stroke-linecap="round" stroke-linejoin="round" stroke-miterlimit="10"/><path d="M229.4,232.9l-30.5,28.8c-12,11.4-12.6,30.3-1.3,42.4v0c11.4,12,30.3,12.6,42.4,1.3l30.5-28.8-41.1-43.7Z" fill="#5bf1cd" stroke="#000" stroke-width="2" stroke-linecap="round" stroke-linejoin="round" stroke-miterlimit="10"/><path d="M298.5,202c7.9,11.9,6.3,28.2-4.4,38.3l-30.5,28.8l7,7.5l30.5-28.8c12-11.4,12.6-30.3,1.3-42.4v0c-1.3-1.3-2.5-2.4-3.9-3.4Z" fill="#11bc92" stroke="#000" stroke-width="2" stroke-linecap="round" stroke-linejoin="round" stroke-miterlimit="10"/><path d="M263.5,269.1L233,297.8c-10.8,10.2-27.1,10.8-38.5,2.2.9,1.4,2,2.8,3.2,4v0c11.4,12,30.3,12.6,42.4,1.3l30.5-28.8-7.1-7.4v0Z" fill="#11bc92" stroke="#000" stroke-width="2" stroke-linecap="round" stroke-linejoin="round" stroke-miterlimit="10"/></g></g></svg>