<svg id="recruit" width="162" height="160" viewBox="0 0 162 160" fill="none" xmlns="http://www.w3.org/2000/svg">
    <path
        d="M64.0162 160C53.4889 160.001 43.1238 157.406 33.8392 152.444C24.5545 147.482 16.6371 140.307 10.7882 131.554C4.93932 122.801 1.33962 112.741 0.308054 102.264C-0.723508 91.7872 0.84491 81.2179 4.87431 71.4922C8.90372 61.7665 15.2697 53.1848 23.4083 46.5074C31.5469 39.83 41.2068 35.2631 51.5323 33.2112C61.8577 31.1593 72.5298 31.6858 82.6031 34.7441C92.6764 37.8023 101.84 43.2979 109.282 50.744C118.229 59.6967 124.322 71.1012 126.789 83.5158C129.256 95.9304 127.987 108.798 123.142 120.491C118.297 132.185 110.095 142.18 99.5705 149.212C89.0464 156.244 76.6736 159.998 64.0162 160ZM64.0162 44.0779C52.0064 44.0815 40.3694 48.2489 31.0876 55.8702C21.8058 63.4915 15.4536 74.0952 13.1131 85.8748C10.7726 97.6543 12.5887 109.881 18.2519 120.472C23.9151 131.062 33.0751 139.362 44.1714 143.957C55.2676 148.551 67.6136 149.156 79.1059 145.669C90.5983 142.182 100.526 134.818 107.198 124.831C113.87 114.845 116.873 102.855 115.695 90.9028C114.518 78.9509 109.233 67.7768 100.741 59.2843C95.93 54.4465 90.2065 50.6114 83.9025 48.0012C77.5985 45.391 70.8392 44.0575 64.0162 44.0779Z"
        fill="#FFCC00" />
    <path
        d="M141.191 46.1538C152.198 42.6771 158.302 30.936 154.825 19.9293C151.348 8.92269 139.607 2.81844 128.601 6.29517C117.594 9.77189 111.49 21.513 114.967 32.5197C118.443 43.5263 130.184 49.6305 141.191 46.1538Z"
        fill="#FFCC00" />
    <path
        d="M67.2752 116.591C78.6777 114.797 86.4671 104.099 84.6734 92.6969C82.8797 81.2945 72.182 73.5051 60.7795 75.2988C49.377 77.0925 41.5877 87.7902 43.3814 99.1926C45.1751 110.595 55.8727 118.385 67.2752 116.591Z"
        fill="#FFCC00" />
</svg>