<svg width="61" height="60" viewBox="0 0 61 60" fill="none" xmlns="http://www.w3.org/2000/svg">
<path d="M24.465 60C20.5173 60.0005 16.6304 59.0273 13.1487 57.1666C9.66692 55.3059 6.69787 52.6152 4.50455 49.3328C2.31123 46.0504 0.96134 42.2777 0.574505 38.349C0.187669 34.4203 0.775825 30.4567 2.28685 26.8096C3.79788 23.1625 6.18511 19.9444 9.23709 17.4404C12.2891 14.9363 15.9115 13.2237 19.7836 12.4543C23.6556 11.6848 27.6576 11.8822 31.4351 13.0291C35.2126 14.1759 38.6489 16.2368 41.4396 19.0291C44.7949 22.3863 47.0796 26.663 48.0047 31.3185C48.9299 35.974 48.454 40.7992 46.6372 45.1843C44.8205 49.5694 41.7444 53.3174 37.7979 55.9545C33.8514 58.5916 29.2116 59.9994 24.465 60ZM24.465 16.5293C19.9614 16.5306 15.5975 18.0934 12.1168 20.9514C8.63616 23.8094 6.25406 27.7858 5.37639 32.2031C4.49871 36.6204 5.17974 41.2054 7.30345 45.1769C9.42715 49.1484 12.8622 52.2608 17.0232 53.9837C21.1843 55.7067 25.8141 55.9336 30.1237 54.6258C34.4333 53.3181 38.1562 50.5566 40.6581 46.8118C43.1601 43.067 44.2862 38.5706 43.8447 34.0886C43.4032 29.6066 41.4215 25.4163 38.237 22.2317C36.4327 20.4175 34.2864 18.9793 31.9224 18.0005C29.5584 17.0217 27.0237 16.5216 24.465 16.5293Z" fill="#FFCC00"/>
<path d="M53.4055 17.3076C57.533 16.0038 59.8221 11.6009 58.5183 7.47344C57.2146 3.34595 52.8117 1.05686 48.6842 2.36063C44.5567 3.6644 42.2676 8.06731 43.5714 12.1948C44.8751 16.3223 49.2781 18.6114 53.4055 17.3076Z" fill="#FFCC00"/>
<path d="M25.6874 43.7216C29.9633 43.049 32.8843 39.0374 32.2117 34.7614C31.539 30.4855 27.5274 27.5645 23.2515 28.2371C18.9756 28.9098 16.0546 32.9214 16.7272 37.1973C17.3999 41.4732 21.4115 44.3943 25.6874 43.7216Z" fill="#FFCC00"/>
</svg>
