<svg width="62" height="61" viewBox="0 0 62 61" fill="none" xmlns="http://www.w3.org/2000/svg">
    <path
        d="M24.5594 60.2353C20.5961 60.2358 16.694 59.2588 13.1986 57.3908C9.70317 55.5228 6.72247 52.8215 4.52055 49.5262C2.31862 46.231 0.963433 42.4435 0.57508 38.4993C0.186727 34.5552 0.77719 30.5761 2.29414 26.9147C3.8111 23.2533 6.2077 20.0225 9.27165 17.5087C12.3356 14.9948 15.9723 13.2755 19.8595 12.503C23.7467 11.7305 27.7645 11.9287 31.5568 13.0801C35.3491 14.2314 38.7989 16.3004 41.6005 19.1036C44.969 22.474 47.2626 26.7675 48.1914 31.4412C49.1202 36.115 48.6424 40.9592 46.8186 45.3615C44.9947 49.7637 41.9065 53.5264 37.9445 56.1739C33.9825 58.8213 29.3245 60.2347 24.5594 60.2353ZM24.5594 16.594C20.038 16.5953 15.657 18.1643 12.1627 21.0335C8.66837 23.9027 6.27692 27.8947 5.3958 32.3293C4.51468 36.764 5.19839 41.367 7.33042 45.3541C9.46246 49.3412 12.9109 52.4657 17.0884 54.1954C21.2658 55.9251 25.9137 56.1529 30.2402 54.84C34.5667 53.5272 38.3043 50.7548 40.816 46.9953C43.3277 43.2359 44.4583 38.7218 44.0151 34.2222C43.5719 29.7227 41.5823 25.5159 38.3853 22.3188C36.574 20.4975 34.4192 19.0537 32.046 18.071C29.6727 17.0883 27.128 16.5863 24.5594 16.594Z"
        fill="#FFCC00" />
    <path
        d="M53.6133 17.3754C57.757 16.0666 60.055 11.6464 58.7461 7.5027C57.4373 3.35902 53.0171 1.06095 48.8734 2.36983C44.7297 3.67871 42.4317 8.0989 43.7406 12.2426C45.0494 16.3863 49.4696 18.6843 53.6133 17.3754Z"
        fill="#FFCC00" />
    <path
        d="M25.7865 43.8931C30.0792 43.2178 33.0117 39.1905 32.3364 34.8978C31.6611 30.6051 27.6338 27.6726 23.3411 28.3479C19.0484 29.0232 16.1159 33.0505 16.7912 37.3432C17.4665 41.6359 21.4938 44.5684 25.7865 43.8931Z"
        fill="#FFCC00" />
</svg>