<svg width="60" height="60" viewBox="0 0 60 60" fill="none" xmlns="http://www.w3.org/2000/svg">
<path d="M6.52031 60C5.48621 59.9916 4.46867 59.7393 3.5504 59.2637C2.63212 58.7881 1.83901 58.1025 1.23551 57.2628C0.632007 56.423 0.235143 55.4527 0.077162 54.4307C-0.080819 53.4087 0.00453996 52.3638 0.326306 51.381L10.2017 21.7988C10.5615 20.7468 11.1824 19.8033 12.0061 19.0565C12.8298 18.3096 13.8295 17.7839 14.9116 17.5286C15.9937 17.2732 17.123 17.2964 18.1937 17.5961C19.2644 17.8959 20.2416 18.4623 21.0339 19.2423L40.7553 38.9638C41.5371 39.756 42.105 40.7337 42.4058 41.8053C42.7065 42.8769 42.7302 44.0073 42.4747 45.0905C42.2192 46.1738 41.6929 47.1745 40.945 47.9988C40.1971 48.8231 39.2522 49.444 38.1988 49.8033L8.60202 59.6494C7.93125 59.8766 7.22847 59.9949 6.52031 60ZM16.4176 22.259C16.2897 22.2583 16.1621 22.273 16.0377 22.3028C15.77 22.3658 15.5227 22.4961 15.3194 22.6815C15.1162 22.8668 14.9637 23.1011 14.8764 23.3619L5.00103 52.9441C4.90685 53.2286 4.89375 53.5338 4.96317 53.8253C5.03259 54.1168 5.18181 54.3833 5.39411 54.5948C5.6064 54.8064 5.87339 54.9546 6.16518 55.023C6.45697 55.0914 6.76204 55.0772 7.04622 54.982L36.6211 45.1067C36.8812 45.0197 37.1148 44.8678 37.3 44.6654C37.4851 44.4631 37.6156 44.2169 37.6792 43.9501C37.7428 43.6833 37.7374 43.4047 37.6634 43.1406C37.5895 42.8765 37.4495 42.6356 37.2566 42.4406L17.5351 22.7192C17.3885 22.5725 17.2142 22.4563 17.0224 22.3773C16.8306 22.2983 16.625 22.2581 16.4176 22.259Z" fill="#FFCC00"/>
<path d="M45.2548 12.6247L32.9983 19.476C32.789 19.5925 32.6096 19.7558 32.4742 19.9533C32.3387 20.1507 32.2509 20.3769 32.2177 20.6141C32.1844 20.8512 32.2066 21.0928 32.2824 21.3199C32.3583 21.547 32.4858 21.7535 32.655 21.923L38.0674 27.3354C38.2376 27.5046 38.4446 27.6321 38.6723 27.7079C38.9 27.7838 39.1421 27.806 39.3797 27.7727C39.6174 27.7395 39.8441 27.6517 40.0422 27.5163C40.2403 27.3809 40.4044 27.2015 40.5217 26.9921L47.3584 14.7429C47.5267 14.4487 47.5937 14.1075 47.5494 13.7715C47.5051 13.4356 47.3517 13.1234 47.113 12.883C46.8742 12.6426 46.5631 12.4871 46.2275 12.4404C45.8918 12.3937 45.5501 12.4585 45.2548 12.6247Z" fill="#FFCC00"/>
<path d="M58.0514 27.9564L44.3559 31.0242C44.122 31.0775 43.9036 31.1842 43.7177 31.336C43.5319 31.4878 43.3837 31.6804 43.2847 31.899C43.1857 32.1175 43.1385 32.356 43.147 32.5958C43.1554 32.8356 43.2192 33.0702 43.3333 33.2812L46.9855 40.0084C47.099 40.2191 47.2602 40.4005 47.456 40.5381C47.6519 40.6757 47.8772 40.7658 48.1139 40.8013C48.3507 40.8367 48.5924 40.8165 48.82 40.7423C49.0476 40.6681 49.2547 40.5418 49.4251 40.3736L59.4684 30.5786C59.7105 30.3437 59.8692 30.0361 59.9205 29.7026C59.9717 29.3691 59.9126 29.0281 59.7522 28.7313C59.5918 28.4345 59.3389 28.1982 59.0319 28.0583C58.7249 27.9184 58.3806 27.8826 58.0514 27.9564Z" fill="#FFCC00"/>
<path d="M32.0341 1.94591L28.959 15.6341C28.9066 15.8678 28.8008 16.0862 28.6498 16.272C28.4988 16.4579 28.3067 16.6063 28.0887 16.7054C27.8706 16.8045 27.6326 16.8517 27.3932 16.8432C27.1539 16.8347 26.9198 16.7709 26.7093 16.6566L19.9821 13.0045C19.7718 12.8897 19.591 12.7279 19.4536 12.5316C19.3161 12.3354 19.2259 12.1101 19.1898 11.8733C19.1538 11.6365 19.1729 11.3946 19.2457 11.1663C19.3185 10.9381 19.443 10.7298 19.6096 10.5576L29.4118 0.485058C29.6483 0.234759 29.9615 0.0704273 30.3018 0.018033C30.6421 -0.0343614 30.9902 0.0281742 31.291 0.195757C31.5919 0.36334 31.8282 0.626407 31.9628 0.943368C32.0974 1.26033 32.1224 1.6131 32.0341 1.94591Z" fill="#FFCC00"/>
</svg>
