<svg id="tip" class="tip-box" width="160" height="160" viewBox="0 0 160 160" fill="none" xmlns="http://www.w3.org/2000/svg">
    <path
        d="M17.3875 160C14.6299 159.978 11.9164 159.305 9.46771 158.037C7.01898 156.768 4.90402 154.94 3.29468 152.701C1.68535 150.461 0.627047 147.874 0.205765 145.148C-0.215517 142.423 0.0121065 139.637 0.870148 137.016L27.2044 58.1303C28.164 55.3249 29.8196 52.8088 32.0162 50.8173C34.2127 48.8258 36.8785 47.4239 39.7642 46.7429C42.6499 46.0618 45.6612 46.1239 48.5164 46.9231C51.3716 47.7224 53.9774 49.2327 56.0902 51.313L108.681 103.903C110.765 106.016 112.28 108.623 113.082 111.481C113.884 114.338 113.947 117.353 113.266 120.241C112.584 123.13 111.181 125.799 109.187 127.997C107.192 130.195 104.672 131.851 101.863 132.809L22.9387 159.065C21.15 159.671 19.2759 159.986 17.3875 160ZM43.7801 59.3574C43.439 59.3555 43.0989 59.3948 42.7672 59.4743C42.0531 59.6421 41.3938 59.9897 40.8518 60.484C40.3097 60.9783 39.903 61.6029 39.6702 62.2986L13.336 141.184C13.0849 141.943 13.05 142.757 13.2351 143.534C13.4202 144.312 13.8181 145.022 14.3843 145.586C14.9504 146.15 15.6624 146.546 16.4405 146.728C17.2186 146.91 18.0321 146.872 18.7899 146.619L97.6561 120.284C98.3497 120.052 98.9727 119.647 99.4664 119.108C99.9601 118.568 100.308 117.912 100.478 117.2C100.647 116.489 100.633 115.746 100.436 115.042C100.238 114.337 99.865 113.695 99.3507 113.175L46.7602 60.5845C46.3691 60.1933 45.9044 59.8834 45.3929 59.6728C44.8814 59.4622 44.3333 59.355 43.7801 59.3574Z"
        fill="#FFCC00" />
    <path
        d="M120.679 33.6658L87.995 51.9361C87.437 52.2465 86.9586 52.6822 86.5974 53.2088C86.2362 53.7353 86.0021 54.3385 85.9133 54.9708C85.8246 55.6032 85.8838 56.2475 86.0861 56.8531C86.2885 57.4587 86.6285 58.0092 87.0795 58.4612L101.513 72.8944C101.967 73.3455 102.519 73.6855 103.126 73.8878C103.733 74.0901 104.378 74.1493 105.012 74.0606C105.646 73.972 106.251 73.7379 106.779 73.3768C107.307 73.0157 107.745 72.5372 108.057 71.9789L126.289 39.3144C126.737 38.53 126.916 37.62 126.798 36.7241C126.68 35.8282 126.271 34.9959 125.634 34.3547C124.997 33.7135 124.168 33.2989 123.273 33.1744C122.378 33.05 121.467 33.2226 120.679 33.6658Z"
        fill="#FFCC00" />
    <path
        d="M154.804 74.5501L118.283 82.7308C117.659 82.873 117.077 83.1576 116.581 83.5623C116.086 83.967 115.69 84.4808 115.426 85.0636C115.162 85.6464 115.037 86.2823 115.059 86.9218C115.082 87.5612 115.252 88.1867 115.556 88.7495L125.295 106.689C125.598 107.251 126.028 107.734 126.55 108.101C127.072 108.468 127.673 108.708 128.304 108.803C128.936 108.898 129.58 108.844 130.187 108.646C130.794 108.448 131.347 108.111 131.801 107.663L158.583 81.5426C159.229 80.9161 159.652 80.0958 159.788 79.2066C159.925 78.3173 159.768 77.4078 159.34 76.6164C158.912 75.8249 158.238 75.1947 157.419 74.8217C156.6 74.4488 155.682 74.3534 154.804 74.5501Z"
        fill="#FFCC00" />
    <path
        d="M85.4239 5.18908L77.2236 41.6908C77.0841 42.314 76.8018 42.8964 76.3991 43.3921C75.9964 43.8878 75.4842 44.2833 74.9028 44.5476C74.3214 44.8119 73.6866 44.9377 73.0484 44.9151C72.4101 44.8926 71.7857 44.7223 71.2244 44.4177L53.2852 34.6787C52.7246 34.3725 52.2423 33.9409 51.8759 33.4177C51.5094 32.8944 51.2688 32.2937 51.1726 31.6621C51.0765 31.0306 51.1275 30.3855 51.3216 29.7769C51.5157 29.1683 51.8478 28.6128 52.2919 28.1536L78.4313 1.29349C79.0619 0.626024 79.897 0.187806 80.8045 0.0480878C81.7121 -0.0916302 82.6403 0.0751312 83.4425 0.522019C84.2446 0.968907 84.875 1.67042 85.2338 2.51564C85.5926 3.36087 85.6595 4.30159 85.4239 5.18908Z"
        fill="#FFCC00" />
</svg>