<svg width="61" height="61" viewBox="0 0 61 61" fill="none" xmlns="http://www.w3.org/2000/svg">
    <path
        d="M6.54588 60.2352C5.50772 60.2268 4.48619 59.9735 3.56432 59.4961C2.64244 59.0186 1.84622 58.3303 1.24035 57.4873C0.634485 56.6442 0.236065 55.6701 0.0774646 54.6441C-0.0811359 53.6181 0.00455777 52.5691 0.327586 51.5824L10.2417 21.8843C10.6029 20.8281 11.2262 19.8809 12.0532 19.1311C12.8801 18.3814 13.8837 17.8536 14.9701 17.5972C16.0565 17.3408 17.1901 17.3642 18.265 17.6651C19.3399 17.966 20.321 18.5346 21.1163 19.3177L40.9151 39.1165C41.7 39.9118 42.2701 40.8933 42.572 41.9691C42.874 43.0449 42.8978 44.1798 42.6413 45.2673C42.3848 46.3548 41.8564 47.3594 41.1056 48.1869C40.3548 49.0145 39.4061 49.6378 38.3486 49.9985L8.63575 59.8833C7.96236 60.1113 7.25682 60.2301 6.54588 60.2352ZM16.4819 22.3462C16.3535 22.3455 16.2255 22.3603 16.1006 22.3902C15.8318 22.4534 15.5836 22.5843 15.3795 22.7704C15.1755 22.9565 15.0223 23.1916 14.9347 23.4535L5.02064 53.1517C4.9261 53.4373 4.91294 53.7436 4.98263 54.0363C5.05233 54.329 5.20213 54.5965 5.41526 54.8089C5.62839 55.0212 5.89643 55.1701 6.18936 55.2387C6.48229 55.3074 6.78856 55.2931 7.07385 55.1976L36.7647 45.2835C37.0258 45.1961 37.2604 45.0437 37.4462 44.8405C37.6321 44.6374 37.7631 44.3902 37.827 44.1224C37.8908 43.8546 37.8853 43.5749 37.8111 43.3097C37.7369 43.0446 37.5963 42.8027 37.4027 42.607L17.6039 22.8082C17.4566 22.6609 17.2817 22.5443 17.0891 22.465C16.8966 22.3857 16.6902 22.3453 16.4819 22.3462Z"
        fill="#FFCC00" />
    <path
        d="M45.4323 12.6741L33.1277 19.5524C32.9177 19.6693 32.7376 19.8333 32.6016 20.0315C32.4656 20.2297 32.3775 20.4568 32.3441 20.6949C32.3107 20.9329 32.3329 21.1755 32.4091 21.4035C32.4853 21.6315 32.6133 21.8387 32.7831 22.0089L38.2168 27.4426C38.3876 27.6124 38.5955 27.7404 38.824 27.8166C39.0526 27.8927 39.2956 27.915 39.5342 27.8816C39.7728 27.8483 40.0004 27.7601 40.1993 27.6242C40.3982 27.4882 40.5629 27.3081 40.6806 27.0979L47.5442 14.8007C47.7131 14.5054 47.7804 14.1628 47.7359 13.8255C47.6914 13.4882 47.5375 13.1749 47.2978 12.9335C47.058 12.6921 46.7458 12.536 46.4088 12.4892C46.0718 12.4423 45.7288 12.5073 45.4323 12.6741Z"
        fill="#FFCC00" />
    <path
        d="M58.2791 28.0661L44.5299 31.1459C44.2951 31.1994 44.0758 31.3065 43.8892 31.4589C43.7027 31.6113 43.5539 31.8047 43.4545 32.0241C43.3551 32.2435 43.3077 32.4829 43.3162 32.7236C43.3247 32.9644 43.3887 33.1999 43.5033 33.4117L47.1698 40.1653C47.2838 40.3769 47.4456 40.5589 47.6422 40.6971C47.8388 40.8353 48.065 40.9257 48.3026 40.9613C48.5403 40.9969 48.783 40.9766 49.0115 40.9021C49.24 40.8276 49.4479 40.7008 49.6189 40.532L59.7017 30.6986C59.9447 30.4627 60.1041 30.1539 60.1555 29.8191C60.2069 29.4843 60.1476 29.1419 59.9866 28.844C59.8256 28.546 59.5717 28.3087 59.2634 28.1683C58.9552 28.0279 58.6096 27.992 58.2791 28.0661Z"
        fill="#FFCC00" />
    <path
        d="M32.1596 1.95354L29.0724 15.6954C29.0199 15.93 28.9136 16.1492 28.762 16.3358C28.6104 16.5225 28.4176 16.6714 28.1987 16.7709C27.9798 16.8704 27.7408 16.9177 27.5006 16.9092C27.2603 16.9008 27.0252 16.8367 26.8139 16.722L20.0603 13.0555C19.8493 12.9402 19.6677 12.7778 19.5297 12.5808C19.3918 12.3838 19.3012 12.1576 19.265 11.9199C19.2288 11.6821 19.248 11.4392 19.3211 11.2101C19.3942 10.981 19.5192 10.7719 19.6863 10.599L29.5271 0.48696C29.7645 0.23568 30.0789 0.0707034 30.4205 0.0181037C30.7622 -0.0344961 31.1117 0.0282847 31.4136 0.196525C31.7156 0.364765 31.9529 0.628863 32.088 0.947067C32.2231 1.26527 32.2483 1.61942 32.1596 1.95354Z"
        fill="#FFCC00" />
</svg>