<svg width="78" height="61" viewBox="0 0 78 61" fill="none" xmlns="http://www.w3.org/2000/svg">
<path d="M63.1926 60.1998C59.0328 60.1998 56.8745 57.5786 55.2932 55.6696C53.7119 53.7607 52.9284 52.9059 51.1406 52.9059C49.3527 52.9059 48.498 53.8533 46.995 55.6696C45.4921 57.486 43.2554 60.1998 39.1028 60.1998C34.9501 60.1998 32.7847 57.5786 31.2034 55.6696C29.6221 53.7607 28.8172 52.9415 27.0579 52.9415C25.2985 52.9415 24.4081 53.8889 22.9123 55.7053C21.4165 57.5216 19.1727 60.2355 15.0129 60.2355C10.8531 60.2355 8.69486 57.6142 7.12069 55.7053C5.54652 53.7963 4.75587 52.9415 2.97513 52.9415C2.35275 52.9079 1.76699 52.6369 1.33834 52.1844C0.909684 51.7319 0.670776 51.1323 0.670776 50.5091C0.670776 49.8858 0.909684 49.2862 1.33834 48.8337C1.76699 48.3812 2.35275 48.1103 2.97513 48.0766C7.12781 48.0766 9.2932 50.6978 10.8674 52.6068C12.4415 54.5157 13.2322 55.3705 15.0129 55.3705C16.7937 55.3705 17.6627 54.4231 19.1585 52.6068C20.6543 50.7904 22.8981 48.0766 27.0579 48.0766C31.2177 48.0766 33.3759 50.6978 34.9501 52.6068C36.5242 54.5157 37.3149 55.3705 39.1028 55.3705C40.8906 55.3705 41.7454 54.4231 43.2483 52.6068C44.7513 50.7904 46.9879 48.0766 51.1406 48.0766C55.2933 48.0766 57.4657 50.6907 59.0399 52.6068C60.6141 54.5228 61.4047 55.3705 63.1926 55.3705C64.9805 55.3705 65.8423 54.4231 67.3453 52.6068C68.8482 50.7904 71.0848 48.0766 75.2446 48.0766C75.867 48.1103 76.4528 48.3812 76.8815 48.8337C77.3101 49.2862 77.549 49.8858 77.549 50.5091C77.549 51.1323 77.3101 51.7319 76.8815 52.1844C76.4528 52.6369 75.867 52.9079 75.2446 52.9415C73.4568 52.9415 72.5949 53.8889 71.0919 55.7053C69.589 57.5216 67.3524 60.1998 63.1926 60.1998Z" fill="#6F3FF5"/>
<path d="M63.1926 47.8913C59.0328 47.8913 56.8745 45.27 55.2932 43.3611C53.7119 41.4521 52.9284 40.5974 51.1406 40.5974C49.3527 40.5974 48.498 41.5447 46.995 43.3611C45.4921 45.1774 43.2554 47.8913 39.1028 47.8913C34.9501 47.8913 32.7847 45.27 31.2034 43.3611C29.6221 41.4521 28.8386 40.5974 27.0579 40.5974C25.2771 40.5974 24.4081 41.5447 22.9123 43.3611C21.4165 45.1774 19.1727 47.8913 15.0129 47.8913C10.8531 47.8913 8.69486 45.27 7.12069 43.3611C5.54652 41.4521 4.75587 40.5974 2.97513 40.5974C2.35275 40.5637 1.76699 40.2927 1.33834 39.8402C0.909684 39.3877 0.670776 38.7882 0.670776 38.1649C0.670776 37.5416 0.909684 36.942 1.33834 36.4895C1.76699 36.0371 2.35275 35.7661 2.97513 35.7324C7.12781 35.7324 9.2932 38.3536 10.8674 40.2626C12.4415 42.1715 13.2322 43.0263 15.0129 43.0263C16.7937 43.0263 17.6627 42.0789 19.1585 40.2626C20.6543 38.4462 22.8981 35.7324 27.0579 35.7324C31.2177 35.7324 33.3759 38.3536 34.9501 40.2626C36.5242 42.1715 37.3149 43.0263 39.1028 43.0263C40.8906 43.0263 41.7454 42.0789 43.2483 40.2626C44.7513 38.4462 46.9879 35.7324 51.1406 35.7324C55.2933 35.7324 57.4657 38.3536 59.0399 40.2626C60.6141 42.1715 61.4047 43.0263 63.1926 43.0263C64.9805 43.0263 65.8423 42.0789 67.3453 40.2626C68.8482 38.4462 71.0848 35.7324 75.2446 35.7324C75.867 35.7661 76.4528 36.0371 76.8815 36.4895C77.3101 36.942 77.549 37.5416 77.549 38.1649C77.549 38.7882 77.3101 39.3877 76.8815 39.8402C76.4528 40.2927 75.867 40.5637 75.2446 40.5974C73.4568 40.5974 72.5949 41.5447 71.0919 43.3611C69.589 45.1774 67.3524 47.8913 63.1926 47.8913Z" fill="#6F3FF5"/>
<path d="M19.1585 32.9972C20.7398 31.0811 22.8981 28.467 27.0579 28.467C31.2177 28.467 33.3759 31.0811 34.9501 32.9972C36.5243 34.9132 37.3149 35.7609 39.1028 35.7609C40.8907 35.7609 41.7454 34.8135 43.2484 32.9972C44.7513 31.1808 46.9879 28.467 51.1406 28.467C55.2933 28.467 57.4658 31.0811 59.0399 32.9972C59.3462 33.3676 59.624 33.7095 59.8947 33.9873C61.7165 30.4278 62.5937 26.4601 62.4422 22.4643C62.2907 18.4686 61.1155 14.5787 59.0294 11.1674C56.9432 7.75608 54.0159 4.93771 50.528 2.98231C47.0402 1.0269 43.1085 0 39.1099 0C35.1113 0 31.1797 1.0269 27.6918 2.98231C24.2039 4.93771 21.2766 7.75608 19.1905 11.1674C17.1043 14.5787 15.9292 18.4686 15.7776 22.4643C15.6261 26.4601 16.5033 30.4278 18.3251 33.9873C18.5816 33.7095 18.8451 33.3818 19.1585 32.9972Z" fill="#FFCC00"/>
</svg>
