<svg width="78" height="60" viewBox="0 0 78 60" fill="none" xmlns="http://www.w3.org/2000/svg">
<path d="M62.9483 59.9646C58.8048 59.9646 56.655 57.3536 55.0798 55.4521C53.5047 53.5506 52.7243 52.6992 50.9434 52.6992C49.1625 52.6992 48.3111 53.6428 46.8141 55.4521C45.317 57.2613 43.0891 59.9646 38.9527 59.9646C34.8162 59.9646 32.6593 57.3536 31.0842 55.4521C29.5091 53.5506 28.7073 52.7346 26.9549 52.7346C25.2024 52.7346 24.3155 53.6783 22.8255 55.4875C21.3355 57.2968 19.1005 60 14.957 60C10.8135 60 8.66362 57.389 7.0956 55.4875C5.52758 53.5861 4.74002 52.7346 2.96624 52.7346C2.3463 52.7011 1.76283 52.4312 1.33585 51.9805C0.908872 51.5297 0.670898 50.9325 0.670898 50.3117C0.670898 49.6908 0.908872 49.0936 1.33585 48.6429C1.76283 48.1921 2.3463 47.9222 2.96624 47.8887C7.10269 47.8887 9.25962 50.4997 10.8276 52.4012C12.3957 54.3027 13.1832 55.1541 14.957 55.1541C16.7308 55.1541 17.5964 54.2104 19.0864 52.4012C20.5763 50.5919 22.8113 47.8887 26.9549 47.8887C31.0984 47.8887 33.2482 50.4997 34.8162 52.4012C36.3842 54.3027 37.1718 55.1541 38.9527 55.1541C40.7335 55.1541 41.585 54.2104 43.082 52.4012C44.5791 50.5919 46.807 47.8887 50.9434 47.8887C55.0799 47.8887 57.2439 50.4926 58.8119 52.4012C60.3799 54.3098 61.1675 55.1541 62.9483 55.1541C64.7292 55.1541 65.5877 54.2104 67.0848 52.4012C68.5819 50.5919 70.8097 47.8887 74.9532 47.8887C75.5732 47.9222 76.1567 48.1921 76.5837 48.6429C77.0107 49.0936 77.2486 49.6908 77.2486 50.3117C77.2486 50.9325 77.0107 51.5297 76.5837 51.9805C76.1567 52.4312 75.5732 52.7011 74.9532 52.7346C73.1724 52.7346 72.3139 53.6783 70.8168 55.4875C69.3197 57.2968 67.0919 59.9646 62.9483 59.9646Z" fill="#FFCC00"/>
<path d="M62.9483 47.7041C58.8048 47.7041 56.655 45.0931 55.0798 43.1916C53.5047 41.2902 52.7243 40.4387 50.9434 40.4387C49.1625 40.4387 48.3111 41.3824 46.8141 43.1916C45.317 45.0009 43.0891 47.7041 38.9527 47.7041C34.8162 47.7041 32.6593 45.0931 31.0842 43.1916C29.5091 41.2902 28.7286 40.4387 26.9549 40.4387C25.1811 40.4387 24.3155 41.3824 22.8255 43.1916C21.3355 45.0009 19.1005 47.7041 14.957 47.7041C10.8135 47.7041 8.66362 45.0931 7.0956 43.1916C5.52758 41.2902 4.74002 40.4387 2.96624 40.4387C2.3463 40.4052 1.76283 40.1353 1.33585 39.6846C0.908872 39.2338 0.670898 38.6366 0.670898 38.0158C0.670898 37.3949 0.908872 36.7977 1.33585 36.347C1.76283 35.8962 2.3463 35.6263 2.96624 35.5928C7.10269 35.5928 9.25962 38.2038 10.8276 40.1053C12.3957 42.0068 13.1832 42.8582 14.957 42.8582C16.7308 42.8582 17.5964 41.9145 19.0864 40.1053C20.5763 38.296 22.8113 35.5928 26.9549 35.5928C31.0984 35.5928 33.2482 38.2038 34.8162 40.1053C36.3842 42.0068 37.1718 42.8582 38.9527 42.8582C40.7335 42.8582 41.585 41.9145 43.082 40.1053C44.5791 38.296 46.807 35.5928 50.9434 35.5928C55.0799 35.5928 57.2439 38.2038 58.8119 40.1053C60.3799 42.0068 61.1675 42.8582 62.9483 42.8582C64.7292 42.8582 65.5877 41.9145 67.0848 40.1053C68.5819 38.296 70.8097 35.5928 74.9532 35.5928C75.5732 35.6263 76.1567 35.8962 76.5837 36.347C77.0107 36.7977 77.2486 37.3949 77.2486 38.0158C77.2486 38.6366 77.0107 39.2338 76.5837 39.6846C76.1567 40.1353 75.5732 40.4052 74.9532 40.4387C73.1724 40.4387 72.3139 41.3824 70.8168 43.1916C69.3197 45.0009 67.0919 47.7041 62.9483 47.7041Z" fill="#FFCC00"/>
<path d="M19.0863 32.8682C20.6614 30.9596 22.8112 28.3557 26.9548 28.3557C31.0983 28.3557 33.2481 30.9596 34.8161 32.8682C36.3842 34.7768 37.1717 35.6211 38.9526 35.6211C40.7335 35.6211 41.5849 34.6774 43.082 32.8682C44.579 31.0589 46.8069 28.3557 50.9434 28.3557C55.0798 28.3557 57.2438 30.9596 58.8118 32.8682C59.1169 33.2371 59.3936 33.5777 59.6632 33.8544C61.478 30.3088 62.3517 26.3566 62.2008 22.3765C62.0499 18.3964 60.8793 14.5217 58.8013 11.1237C56.7233 7.72577 53.8074 4.91841 50.3332 2.97065C46.8589 1.02289 42.9427 0 38.9597 0C34.9767 0 31.0605 1.02289 27.5862 2.97065C24.112 4.91841 21.1961 7.72577 19.1181 11.1237C17.0401 14.5217 15.8695 18.3964 15.7186 22.3765C15.5677 26.3566 16.4415 30.3088 18.2562 33.8544C18.5116 33.5777 18.7741 33.2513 19.0863 32.8682Z" fill="#FFCC00"/>
</svg>
