<svg width="205" height="160" fill="none" xmlns="http://www.w3.org/2000/svg">
    <path
        d="M166.073 159.905c-11.049 0-16.782-6.962-20.982-12.033-4.201-5.071-6.282-7.341-11.031-7.341-4.749 0-7.019 2.516-11.011 7.341-3.993 4.825-9.934 12.033-20.964 12.033s-16.782-6.962-20.983-12.033c-4.2-5.071-6.338-7.246-11.011-7.246-4.674 0-7.039 2.516-11.012 7.341C55.106 152.791 49.146 160 38.096 160s-16.782-6.963-20.963-12.033c-4.182-5.071-6.282-7.341-11.012-7.341A6.473 6.473 0 010 134.164a6.472 6.472 0 016.12-6.461c11.031 0 16.783 6.963 20.965 12.033 4.181 5.071 6.281 7.341 11.011 7.341 4.73 0 7.039-2.516 11.012-7.341 3.973-4.824 9.933-12.033 20.983-12.033s16.782 6.963 20.963 12.033c4.182 5.071 6.282 7.341 11.031 7.341 4.749 0 7.019-2.516 11.012-7.341 3.992-4.824 9.933-12.033 20.963-12.033 11.031 0 16.801 6.944 20.983 12.033 4.181 5.09 6.281 7.341 11.03 7.341s7.039-2.516 11.031-7.341c3.992-4.824 9.933-12.033 20.983-12.033a6.47 6.47 0 010 12.923c-4.749 0-7.039 2.516-11.031 7.341-3.992 4.824-9.933 11.938-20.983 11.938zM166.073 127.211c-11.049 0-16.782-6.962-20.982-12.033-4.201-5.071-6.282-7.341-11.031-7.341-4.749 0-7.019 2.516-11.011 7.341-3.993 4.825-9.934 12.033-20.964 12.033s-16.782-6.962-20.983-12.033c-4.2-5.071-6.281-7.341-11.011-7.341-4.73 0-7.039 2.516-11.012 7.341-3.973 4.825-9.933 12.033-20.983 12.033s-16.782-6.962-20.963-12.033c-4.182-5.071-6.282-7.341-11.012-7.341a6.472 6.472 0 01-4.348-10.912 6.47 6.47 0 014.348-2.01c11.03 0 16.782 6.962 20.964 12.033 4.181 5.07 6.281 7.341 11.011 7.341 4.73 0 7.039-2.517 11.012-7.341 3.973-4.825 9.933-12.034 20.983-12.034s16.782 6.963 20.963 12.034c4.182 5.07 6.282 7.341 11.031 7.341 4.749 0 7.019-2.517 11.012-7.341 3.992-4.825 9.933-12.034 20.963-12.034 11.031 0 16.801 6.963 20.983 12.034 4.181 5.07 6.281 7.341 11.03 7.341s7.039-2.517 11.031-7.341c3.992-4.825 9.933-12.034 20.983-12.034a6.468 6.468 0 016.121 6.461 6.471 6.471 0 01-6.121 6.462c-4.749 0-7.039 2.516-11.031 7.341-3.992 4.825-9.933 12.033-20.983 12.033z"
        fill="#6F3FF5" />
    <path
        d="M49.108 87.648c4.2-5.089 9.933-12.033 20.983-12.033S86.873 82.56 91.054 87.65c4.182 5.09 6.282 7.34 11.031 7.34 4.749 0 7.019-2.516 11.011-7.34 3.993-4.825 9.934-12.034 20.964-12.034 11.031 0 16.801 6.944 20.983 12.034.813.983 1.551 1.892 2.27 2.63a62.018 62.018 0 00-24.88-82.357 62.021 62.021 0 00-85.539 82.356c.681-.737 1.381-1.608 2.214-2.63z"
        fill="#FC0" />
</svg>